<svg xmlns="http://www.w3.org/2000/svg" viewBox="0 0 424.24 415.08"><defs><style>.cls-1{isolation:isolate;}.cls-2{fill:#6ee0ff;}.cls-3{fill:#d7f7ff;}.cls-4{fill:#c2f4ff;}.cls-15,.cls-5{fill:#eb1478;}.cls-6{fill:#6150e2;}.cls-13,.cls-15,.cls-21,.cls-27,.cls-30,.cls-31,.cls-37,.cls-42,.cls-43,.cls-46,.cls-47,.cls-50,.cls-7,.cls-8{opacity:0.5;}.cls-17,.cls-8{fill:#fff;mix-blend-mode:soft-light;}.cls-9{fill:#ffd2f2;}.cls-10{fill:#24dddd;}.cls-11{fill:#3dedf7;}.cls-12{fill:#0dd3d3;}.cls-13,.cls-15,.cls-21,.cls-27,.cls-30,.cls-31,.cls-37,.cls-42,.cls-43,.cls-46,.cls-50{mix-blend-mode:multiply;}.cls-14{fill:#ff9cde;}.cls-16,.cls-27{fill:#003abc;}.cls-18,.cls-21{fill:#ffaf98;}.cls-19{fill:#d7ccff;}.cls-20{fill:#886ee5;}.cls-22{fill:#0080f7;}.cls-23{fill:#32d2fb;}.cls-24{fill:#2f7bea;}.cls-25,.cls-31{fill:#a184f3;}.cls-26{fill:#003189;}.cls-28{fill:#db3595;}.cls-29,.cls-30{fill:#ff61bb;}.cls-32{fill:#ea47ac;}.cls-33{fill:#e82386;}.cls-34{fill:#0086f7;}.cls-35,.cls-37,.cls-47{fill:#009df7;}.cls-36{fill:#bc2e86;}.cls-38{fill:#ffc5e9;}.cls-39,.cls-43{fill:#3d239b;}.cls-40{fill:#e3cfb7;}.cls-41,.cls-42{fill:#7f65e0;}.cls-44{fill:#ea3da8;}.cls-45,.cls-46{fill:#0083f7;}.cls-47{mix-blend-mode:color-burn;}.cls-48{fill:#ff7bcd;}.cls-49,.cls-50{fill:#003187;}</style></defs><title>FirstPage</title><g class="cls-1"><g id="OBJECTS"><path class="cls-2" d="M352.79,94.07a13.76,13.76,0,1,1,13.75-13.75A13.77,13.77,0,0,1,352.79,94.07Zm0-22.55a8.8,8.8,0,1,0,8.79,8.8A8.8,8.8,0,0,0,352.79,71.52Z" transform="translate(-37.88 -42.46)"/><path class="cls-3" d="M403.83,274.28a38.78,38.78,0,0,0-3.27,4c-3.95,5.65-6.33,14.53-3.43,21.12,4,9.15,15.11,8.15,22.83,4.78,10.91-4.77,19.64-15.86,17-28.19C432.86,257,413.36,264.05,403.83,274.28Z" transform="translate(-37.88 -42.46)"/><path class="cls-4" d="M414.54,397.75c18.77-21.09,12.15-56.67-8.35-76.08-6.86-6.5-15.43-12.36-17.77-21.52-1.36-5.31-.32-11,1.5-16.12,5.46-15.42,17.46-27.41,27.42-40.39s18.41-29.1,14.9-45.08c-1.77-8.08-6.49-15.25-12.05-21.39-9.54-10.54-22.38-18.76-36.55-20-10.63-1-21.4,2-32,.44C334,155,319.43,138.38,319.18,120.51c-.11-8.2,2.42-16.22,3-24.4A50.42,50.42,0,0,0,255.75,45c-14.7,5-26.27,16.32-36.43,28s-19.7,24.32-32.47,33.14S157,119.45,142.91,113c-7-3.2-12.75-8.82-20-11.45-9.87-3.58-21.28-.87-29.86,5.2S78.45,121.85,74,131.35A110.76,110.76,0,0,0,72.81,222c6.68,15.16,17.1,30.26,14.7,46.66-3.91,26.76-40,41.92-39.28,69,.18,6.89,2.9,13.45,6.09,19.56a123.8,123.8,0,0,0,30.11,37.44Z" transform="translate(-37.88 -42.46)"/><path class="cls-5" d="M136.85,266.66a28.48,28.48,0,0,1-2.89-2.5c-.8-.85-1.67-1.66-2.4-2.55-1.55-1.72-2.92-3.54-4.3-5.36a112.26,112.26,0,0,1-7.19-11.44c-1.09-2-2.17-3.92-3.11-5.94s-2-4-2.86-6.05l-2.65-6.12-2.38-6.22c-.83-2.07-1.55-4.16-2.23-6.27l-2.11-6.3c-1.26-4.24-2.52-8.48-3.7-12.73s-2.19-8.56-3.18-12.86l-2.77-12.93a.86.86,0,0,1,1.67-.4v0L100,181.77c1.17,4.23,2.47,8.42,3.69,12.62s2.77,8.31,4.18,12.45l2.34,6.12c.76,2,1.56,4.08,2.45,6.07l2.59,6,2.84,5.87c.9,2,2,3.84,3,5.76s2.12,3.78,3.25,5.62a107.34,107.34,0,0,0,7.28,10.6c1.36,1.62,2.7,3.27,4.16,4.76.7.79,1.48,1.44,2.21,2.16s1.61,1.38,2.16,1.75l.14.09a3.06,3.06,0,0,1-3.39,5.09Z" transform="translate(-37.88 -42.46)"/><path class="cls-5" d="M100.49,192.14a30.89,30.89,0,0,1,1.19-6.3,38.41,38.41,0,0,1,2.29-6,40,40,0,0,1,3.3-5.68,44.11,44.11,0,0,1,4.23-5.18,3.76,3.76,0,0,1,5.51,5.11,3.72,3.72,0,0,1-.64.55l-.09.06a36.09,36.09,0,0,0-4.46,3.41,33.69,33.69,0,0,0-3.95,4.14,34.18,34.18,0,0,0-3.28,4.83,28.51,28.51,0,0,0-2.41,5.36l0,.07a.86.86,0,0,1-1.08.55A.84.84,0,0,1,100.49,192.14Z" transform="translate(-37.88 -42.46)"/><path class="cls-5" d="M106.77,212.53a47,47,0,0,1,1.8-9.15,60.32,60.32,0,0,1,3.31-8.8,64.64,64.64,0,0,1,4.63-8.32,71.68,71.68,0,0,1,5.81-7.71,4.8,4.8,0,0,1,7.34,6.19,5.29,5.29,0,0,1-.72.7l-.11.08a63.11,63.11,0,0,0-6.43,5.5A59,59,0,0,0,112,204.76a45,45,0,0,0-3.5,8l0,.06a.87.87,0,0,1-1.08.57A.86.86,0,0,1,106.77,212.53Z" transform="translate(-37.88 -42.46)"/><path class="cls-5" d="M115.94,233.06a45.27,45.27,0,0,1,1.62-10.53,47.34,47.34,0,0,1,4-10.06,49.55,49.55,0,0,1,2.82-4.73,47.85,47.85,0,0,1,3.44-4.37,49.14,49.14,0,0,1,8.41-7.53,4.3,4.3,0,0,1,5.13,6.91,4.6,4.6,0,0,1-.6.37l-.22.11a39.35,39.35,0,0,0-14.82,11.89,45.53,45.53,0,0,0-8.43,18v.06a.65.65,0,0,1-1.29-.15Z" transform="translate(-37.88 -42.46)"/><path class="cls-5" d="M96.09,172c-1.41-3.37-2.73-6.76-3.92-10.25-.6-1.75-1.17-3.51-1.66-5.33a38.8,38.8,0,0,1-1.2-5.8v-.12a3.57,3.57,0,0,1,7.09-.79,4,4,0,0,1,0,.91,31.41,31.41,0,0,0-.2,4.94c0,1.74.14,3.51.29,5.28.29,3.55.74,7.13,1.27,10.68v0a.86.86,0,0,1-1.65.46Z" transform="translate(-37.88 -42.46)"/><path class="cls-5" d="M125.8,251.81a19.22,19.22,0,0,1,.37-9.5,27.39,27.39,0,0,1,4.28-8.62,41.5,41.5,0,0,1,6.58-7.05c1.24-1,2.51-2,3.79-2.92l4-2.6a5.19,5.19,0,0,1,5.67,8.69,6.05,6.05,0,0,1-1.08.54l-.29.1-3.81,1.35-3.67,1.63a34.09,34.09,0,0,0-6.62,4.35,22.64,22.64,0,0,0-5.07,6,16.54,16.54,0,0,0-2.18,7.62v.16a1,1,0,0,1-2,.22Z" transform="translate(-37.88 -42.46)"/><path class="cls-5" d="M98.2,183.44a27.57,27.57,0,0,0-5.08-2.34,33.52,33.52,0,0,0-10.81-1.91,34.8,34.8,0,0,0-5.32.35h-.07a3.76,3.76,0,1,1-1-7.46,4,4,0,0,1,.91,0,42.15,42.15,0,0,1,6.3,1.14,38.32,38.32,0,0,1,5.94,2.09,36.29,36.29,0,0,1,5.41,3,29.22,29.22,0,0,1,4.78,3.85.85.85,0,0,1,0,1.21.86.86,0,0,1-1,.12Z" transform="translate(-37.88 -42.46)"/><path class="cls-5" d="M105.22,204.44a43,43,0,0,0-8-2.37,53.49,53.49,0,0,0-8.23-1,55.71,55.71,0,0,0-8.18.21,61.74,61.74,0,0,0-7.94,1.32l-.1,0a4.8,4.8,0,0,1-2.07-9.38,5.63,5.63,0,0,1,1.07-.11,68.76,68.76,0,0,1,9.22.58,60.65,60.65,0,0,1,8.93,1.82,59.35,59.35,0,0,1,8.44,3.07,45.21,45.21,0,0,1,7.77,4.4.85.85,0,0,1-.83,1.48Z" transform="translate(-37.88 -42.46)"/><path class="cls-5" d="M112.43,224.67A37.82,37.82,0,0,0,96,221.6a30.84,30.84,0,0,0-7.9,1.27,33.6,33.6,0,0,0-7.13,3l-.16.09a5.18,5.18,0,1,1-3.67-9.62A43,43,0,0,1,87,214.86a37.9,37.9,0,0,1,9.61.85,41.11,41.11,0,0,1,8.88,2.93,39.26,39.26,0,0,1,7.84,4.72.79.79,0,0,1-.8,1.34Z" transform="translate(-37.88 -42.46)"/><path class="cls-5" d="M120.53,243.18a15.15,15.15,0,0,0-7-2.08,20.66,20.66,0,0,0-7.21.94,31.34,31.34,0,0,0-6.67,3l-3.09,2-2.94,2.29-.2.16a4.46,4.46,0,1,1-5.48-7,5.3,5.3,0,0,1,.84-.52l3.94-1.85c1.36-.53,2.72-1,4.08-1.53a37.24,37.24,0,0,1,8.62-1.73,25,25,0,0,1,8.74.83,17.44,17.44,0,0,1,7.54,4.27.84.84,0,0,1,0,1.2.86.86,0,0,1-1,.12Z" transform="translate(-37.88 -42.46)"/><path class="cls-6" d="M113,174.54v95.23a12.57,12.57,0,0,0,12.57,12.57h95.23a12.56,12.56,0,0,0,12.57-12.57V232.64a18.33,18.33,0,1,0,0-21V174.54A12.57,12.57,0,0,0,220.82,162H125.59A12.57,12.57,0,0,0,113,174.54Z" transform="translate(-37.88 -42.46)"/><g class="cls-7"><path class="cls-8" d="M234.24,233.74a18.33,18.33,0,0,0,2.76,2.74Z" transform="translate(-37.88 -42.46)"/><polygon class="cls-8" points="123.91 119.51 111.12 119.51 195.51 203.12 195.51 190.45 123.91 119.51"/><polygon class="cls-8" points="155.08 239.88 162.19 239.88 75.14 153.65 75.14 160.69 155.08 239.88"/><path class="cls-8" d="M129.45,162h-3.86A12.57,12.57,0,0,0,113,174.54v.72L221.1,282.33a12.57,12.57,0,0,0,12.29-12.56V265Z" transform="translate(-37.88 -42.46)"/></g><ellipse class="cls-9" cx="213.54" cy="358.23" rx="172.76" ry="19.22"/><path class="cls-9" d="M307.67,451c0,3.6-15.55,6.52-34.72,6.52s-34.72-2.92-34.72-6.52,15.55-6.53,34.72-6.53S307.67,447.42,307.67,451Z" transform="translate(-37.88 -42.46)"/><path class="cls-9" d="M176.43,430.45c0,2.35-10.14,4.25-22.65,4.25s-22.65-1.9-22.65-4.25,10.14-4.26,22.65-4.26S176.43,428.1,176.43,430.45Z" transform="translate(-37.88 -42.46)"/><path class="cls-9" d="M360,435.84c0,2.35-10.14,4.26-22.65,4.26s-22.65-1.91-22.65-4.26,10.14-4.25,22.65-4.25S360,433.49,360,435.84Z" transform="translate(-37.88 -42.46)"/><ellipse class="cls-9" cx="39.35" cy="360.36" rx="22.65" ry="4.26"/><path class="cls-9" d="M121.9,427.8c0,1-4.28,1.8-9.57,1.8s-9.56-.81-9.56-1.8,4.28-1.8,9.56-1.8S121.9,426.81,121.9,427.8Z" transform="translate(-37.88 -42.46)"/><path class="cls-10" d="M321.29,325.29a256.92,256.92,0,0,1,10.25-30.46,286.33,286.33,0,0,1,13.61-28.91,234.82,234.82,0,0,1,16.93-27.06l4.75-6.41,5.09-6.15,2.54-3.06,2.74-2.91,5.46-5.8a1,1,0,0,1,1.5,1.35l-.05.06-5.18,5.93-2.58,3L374,228l-4.78,6.25-4.44,6.49A232.17,232.17,0,0,0,349.09,268a281.92,281.92,0,0,0-12.28,28.89A252.82,252.82,0,0,0,328,326.77l0,.13a3.42,3.42,0,1,1-6.68-1.48Z" transform="translate(-37.88 -42.46)"/><path class="cls-10" d="M328.58,309.22a49,49,0,0,1,9.81-11.08,48.38,48.38,0,0,1,13.08-7.89,47.61,47.61,0,0,1,15.44-3.51,54.22,54.22,0,0,1,8.06,0c2.69.18,5.3.74,8,1.13a7.88,7.88,0,1,1-2.27,15.6,7.64,7.64,0,0,1-1.66-.43l-.87-.34c-1.89-.72-3.78-1.68-5.74-2.29a39.67,39.67,0,0,0-6-1.51,36.87,36.87,0,0,0-12.54-.21,40.93,40.93,0,0,0-12.52,3.93,45.85,45.85,0,0,0-11.18,7.77l-.07.07a1,1,0,0,1-1.43,0A1,1,0,0,1,328.58,309.22Z" transform="translate(-37.88 -42.46)"/><path class="cls-10" d="M331.79,306.31a43.92,43.92,0,0,0-.76-13.37,44.31,44.31,0,0,0-13.88-24.1,49.36,49.36,0,0,0-5.75-4.5c-2-1.38-4.18-2.44-6.32-3.68A7.14,7.14,0,0,0,298,273a8.1,8.1,0,0,0,1.42.63l.81.25c1.75.54,3.63.92,5.37,1.58a36.91,36.91,0,0,1,5.1,2.28,33.62,33.62,0,0,1,9,6.88,37,37,0,0,1,6.69,9.82A40.79,40.79,0,0,1,330,306.26l0,.09a.91.91,0,0,0,1.81,0Z" transform="translate(-37.88 -42.46)"/><path class="cls-10" d="M337.41,284.56a35.76,35.76,0,0,1,9.91-11.62A49,49,0,0,1,361,265.5l3.76-1.21c1.27-.36,2.55-.59,3.84-.89a68.32,68.32,0,0,1,7.8-1.2c2.62-.26,5.22-.26,7.87-.38l7.85.35a7.25,7.25,0,1,1-.64,14.49,8.11,8.11,0,0,1-1.49-.22l-.48-.13L383,274.59c-2.18-.35-4.4-.85-6.62-1.1a55.31,55.31,0,0,0-6.68-.4c-1.11,0-2.25,0-3.36,0l-3.34.33a42.21,42.21,0,0,0-12.93,3.79,32.38,32.38,0,0,0-10.9,8.3l-.08.1a1,1,0,0,1-1.68-1.09Z" transform="translate(-37.88 -42.46)"/><path class="cls-10" d="M350,258.36a20.83,20.83,0,0,1,4.18-5.33c.78-.81,1.68-1.46,2.52-2.2s1.81-1.32,2.75-1.92a47.88,47.88,0,0,1,12.18-5.49,78.74,78.74,0,0,1,13-2.78c2.2-.2,4.42-.44,6.63-.59l6.64-.21a5.77,5.77,0,0,1,.36,11.53,5.94,5.94,0,0,1-1-.06l-.31-.05-6-.94c-2-.23-4-.38-6-.58a70.09,70.09,0,0,0-12,.27,42.59,42.59,0,0,0-11.58,2.78c-.92.37-1.81.81-2.72,1.23s-1.77.92-2.57,1.5a19,19,0,0,0-4.43,3.83l-.09.11a1,1,0,0,1-1.67-1.1Z" transform="translate(-37.88 -42.46)"/><path class="cls-10" d="M366.23,234.47a40.87,40.87,0,0,1,6.76-4.05,50.53,50.53,0,0,1,7.54-3,52.46,52.46,0,0,1,8.13-1.87,58.3,58.3,0,0,1,8.48-.66c2.92-.06,5.18,1.92,5.06,4.42s-2.59,4.57-5.51,4.62a6.08,6.08,0,0,1-1.37-.12l-.11,0a44.43,44.43,0,0,0-6.64-1.06,43,43,0,0,0-7,0,46.8,46.8,0,0,0-7.17,1.05,40.76,40.76,0,0,0-7,2.19l-.08,0a1.11,1.11,0,0,1-1.43-.4A.88.88,0,0,1,366.23,234.47Z" transform="translate(-37.88 -42.46)"/><path class="cls-10" d="M340.75,280.69a34.06,34.06,0,0,0-.52-14.61,43.53,43.53,0,0,0-5.89-13.29l-2.12-3c-.73-1-1.57-1.84-2.36-2.77a57.12,57.12,0,0,0-5.17-5.15c-1.82-1.61-3.79-3-5.71-4.53l-6.13-3.94a7.26,7.26,0,0,0-9.75,2.33,6.73,6.73,0,0,0,1.56,9.59,6.18,6.18,0,0,0,1.26.63l.44.15,5.95,2.14c1.86.89,3.83,1.68,5.66,2.67a50,50,0,0,1,5.28,3.27c.83.61,1.72,1.18,2.51,1.84l2.32,2.05a36.6,36.6,0,0,1,7.5,10,29.39,29.39,0,0,1,3.25,12.49v.13a.88.88,0,0,0,1,.87A1.07,1.07,0,0,0,340.75,280.69Z" transform="translate(-37.88 -42.46)"/><path class="cls-10" d="M354.83,255.73a19.83,19.83,0,0,0,.53-6.44c0-1.07-.23-2.08-.35-3.13s-.41-2-.68-3a41,41,0,0,0-5-11.22,66,66,0,0,0-7.43-9.69c-1.42-1.42-2.83-2.89-4.3-4.3l-4.56-4a5.69,5.69,0,0,0-7.87.75,5.38,5.38,0,0,0,.07,7.72,4.58,4.58,0,0,0,.77.56l.26.15,4.82,2.76c1.56,1,3.07,2,4.63,3A60.28,60.28,0,0,1,344,236a35.36,35.36,0,0,1,6.37,8.83c.41.81.75,1.66,1.12,2.5s.65,1.73.84,2.63a17.35,17.35,0,0,1,.63,5.46v.14a.87.87,0,0,0,.9.94A1.09,1.09,0,0,0,354.83,255.73Z" transform="translate(-37.88 -42.46)"/><path class="cls-10" d="M367.52,234.89a43.68,43.68,0,0,0-.84-8.37,55.91,55.91,0,0,0-5.93-16.39,59.38,59.38,0,0,0-4.92-7.57c-1.85-2.49-5.06-3.09-7.17-1.34s-2.34,5.19-.49,7.68a5.73,5.73,0,0,0,1,1.07l.09.08a46.17,46.17,0,0,1,5.24,4.89,43.92,43.92,0,0,1,4.59,5.87,47.56,47.56,0,0,1,3.73,6.72,41.82,41.82,0,0,1,2.61,7.32l0,.1a1.17,1.17,0,0,0,1.28.93A1,1,0,0,0,367.52,234.89Z" transform="translate(-37.88 -42.46)"/><path class="cls-10" d="M378.33,221.82a37.25,37.25,0,0,0,.27-7.24,48.61,48.61,0,0,0-3.14-14.67,54.35,54.35,0,0,0-3.32-7c-1.29-2.34-4-3.23-6-2s-2.59,4.15-1.31,6.5a6,6,0,0,0,.73,1l.08.08a40,40,0,0,1,3.9,4.78,39.17,39.17,0,0,1,3.23,5.54,41.44,41.44,0,0,1,2.4,6.18,36.53,36.53,0,0,1,1.37,6.55v.08a1,1,0,0,0,1,1A.83.83,0,0,0,378.33,221.82Z" transform="translate(-37.88 -42.46)"/><path class="cls-10" d="M380.23,218.12a33.09,33.09,0,0,1,5.48-3.38,43.37,43.37,0,0,1,12.72-4,46.39,46.39,0,0,1,6.89-.53c2.38,0,4.24,1.64,4.15,3.74a4.35,4.35,0,0,1-4.44,3.87,5.06,5.06,0,0,1-1.12-.12l-.09,0a35.31,35.31,0,0,0-5.41-.91,33.82,33.82,0,0,0-5.7-.07,36.63,36.63,0,0,0-5.83.86,33.36,33.36,0,0,0-5.66,1.81l-.07,0a.91.91,0,0,1-1.17-.35A.75.75,0,0,1,380.23,218.12Z" transform="translate(-37.88 -42.46)"/><path class="cls-10" d="M381.6,215.94a51,51,0,0,1,3.26-7.12,58.4,58.4,0,0,1,4.22-6.67,60.16,60.16,0,0,1,11.18-11.74l0,0a5,5,0,1,1,6.32,7.86,5.59,5.59,0,0,1-1.14.69,51.73,51.73,0,0,0-12,7.31,55.2,55.2,0,0,0-5.36,4.92,48.11,48.11,0,0,0-4.68,5.64l0,.05a1,1,0,0,1-1.79-.92Z" transform="translate(-37.88 -42.46)"/><path class="cls-11" d="M69.93,369.54a26.06,26.06,0,0,1-6-9.26,33.11,33.11,0,0,1-2.72-14.92c.83-11.39,9-21.05,9.07-32.48.08-8.06-1.61-14.42.87-22.35,3.14-10.08,11.08-17.44,15-27.32a71.7,71.7,0,0,1,3.07-7.44c6.63-12.39,24.5-6.72,25.84,7.12,1.1,11.44-4.57,18-12.23,24.23-9,7.36-8.82,18.73-6.93,30.13,1,6-1.16,11.37-3.14,16.81-2.23,6.14-6.59,11.19-7.8,17.83a27,27,0,0,0,.68,11.44,11.44,11.44,0,0,1,.6,4.16,6.37,6.37,0,0,1-3.71,4.75c-3.63,1.76-8,.83-11.29-1.64A14.26,14.26,0,0,1,69.93,369.54Z" transform="translate(-37.88 -42.46)"/><path class="cls-10" d="M86.49,372.8c-2.73-2.53-2.93-8.31-3.07-12-.69-18,20.24-27.63,15.43-47-3.4-13.69,3.5-19.44,11.59-16.16,6,2.46,6.41,13.12,6.3,19.13a42.33,42.33,0,0,1-8.92,25.85c-2.58,3.28-6,6.83-6.57,11.43-.57,4.82-.85,10.13-2.91,14.5s-7.48,7.65-11.53,4.49Z" transform="translate(-37.88 -42.46)"/><path class="cls-10" d="M53.32,296.75c5.5,5.39,9.5,16,9.73,21.82.33,8.78-2.79,17-2.06,26a44.16,44.16,0,0,0,2.37,11.82c1.47,4,4,5.72,6,9.07,4.22,7.17-5.54,9.7-9.74,7.72-8.5-4-17.25-20.16-13.61-35.5a28.44,28.44,0,0,0-1.15-16.46c-1.69-4.63-4.8-8.5-6.34-13.15-1.35-4.06-.47-9.6,2.69-12.38C45.44,291.9,49.7,293.2,53.32,296.75Z" transform="translate(-37.88 -42.46)"/><path class="cls-12" d="M81.59,375.33a1,1,0,0,1-.75-.34c-.16-.17-15.39-17.45-6.26-37.69,8.91-19.78,9.94-30.05,8.79-44.32-.8-10,5.06-15.87,10.72-21.56,2.78-2.8,5.66-5.69,7.63-9a1,1,0,0,1,1.4-.35,1,1,0,0,1,.35,1.39c-2.1,3.54-5.07,6.52-7.94,9.41-5.58,5.61-10.86,10.91-10.13,20,1.15,14.31.08,25.25-9,45.32-8.58,19,5.77,35.33,5.92,35.49a1,1,0,0,1-.76,1.7Z" transform="translate(-37.88 -42.46)"/><g class="cls-13"><path class="cls-10" d="M91.2,369.26a1,1,0,0,1-1-1c0-.67-.53-16.41,7.11-26.8,14.2-18.07,7.46-36.44,7.39-36.62a1,1,0,1,1,1.9-.72c.07.19,7.21,19.63-7.67,38.57-7.2,9.79-6.7,25.33-6.7,25.49a1,1,0,0,1-1,1.05Z" transform="translate(-37.88 -42.46)"/></g><g class="cls-13"><path class="cls-10" d="M61.1,369.26a1,1,0,0,1-.8-.39c-.44-.57-10.73-14.13-7.18-35.44,3.37-20.22-8.72-29.82-8.84-29.92a1,1,0,0,1,1.24-1.61c.54.41,13.18,10.39,9.61,31.86-3.4,20.45,6.67,33.73,6.78,33.86a1,1,0,0,1-.18,1.43A1.06,1.06,0,0,1,61.1,369.26Z" transform="translate(-37.88 -42.46)"/></g><path class="cls-14" d="M105.34,365.72a3.64,3.64,0,0,0-3.62-3.34H48.81a3.62,3.62,0,0,0-3.62,3.34c-.58,6.94-1,22.71,6.25,28.41a3.37,3.37,0,0,0,2.08.66H97a3.37,3.37,0,0,0,2.08-.66C106.34,388.43,105.92,372.66,105.34,365.72Z" transform="translate(-37.88 -42.46)"/><path class="cls-15" d="M103.46,387.56c-35.76,2-51.48-10.6-58.4-20-.47,7.56-.3,21.34,6.38,26.59a3.37,3.37,0,0,0,2.08.66H97a3.37,3.37,0,0,0,2.08-.66A14.62,14.62,0,0,0,103.46,387.56Z" transform="translate(-37.88 -42.46)"/><path class="cls-16" d="M344.11,388.37c-2.69-4.68-4-10.34-4.49-16a49.63,49.63,0,0,1,2.82-22.63c6.32-16,22.36-26.18,27.66-42.53,3.74-11.53,4.19-21.43,11.31-31.69,9.06-13,23.77-20,33.85-32.45,2.55-3.14,4.9-6.49,7.76-9.29,15.09-14.79,38.19,1.39,33.87,21.86-3.57,16.92-14.67,23.77-28.46,29.26-16.31,6.49-21.1,22.92-23.53,40.13-1.28,9-6.79,15.79-12.08,22.71-6,7.8-14.5,13.09-19.24,22.06a40.76,40.76,0,0,0-4.17,16.74,17.5,17.5,0,0,1-1,6.24c-1.36,3-4.49,4.69-7.45,5.14-6,.89-11.86-2.41-15.48-7.44A22.76,22.76,0,0,1,344.11,388.37Z" transform="translate(-37.88 -42.46)"/><path class="cls-17" d="M440.18,249.07A1.53,1.53,0,0,0,438,249c-4.33,3.88-9.76,6.73-15,9.49-10.69,5.62-21.74,11.42-25.09,26.11-4.79,21-10.89,35.28-32.6,59.65-17.95,20.15-12.2,44.69-9.26,53.53a13.73,13.73,0,0,0,3.33.3c-2.49-6.8-9.73-31.65,8.22-51.8,22-24.72,28.49-39.94,33.29-61,3-13.31,13-18.54,23.54-24.08,5.42-2.85,11-5.79,15.63-9.92A1.52,1.52,0,0,0,440.18,249.07Z" transform="translate(-37.88 -42.46)"/><path class="cls-5" d="M359.06,385.36c-1.56-6,3.34-14.27,6.45-19.57,15.16-25.84,53.15-20.61,63.75-52,7.5-22.25,22.32-24.13,30.73-12.27,6.28,8.86-2.76,24.14-8.31,32.48-9,13.52-21.21,23.21-35.69,28.25-6.56,2.29-14.57,4.17-19.46,10.14-5.11,6.24-10.26,13.44-17.06,17.73s-17.35,4-20.21-4.05C359.19,385.81,359.12,385.59,359.06,385.36Z" transform="translate(-37.88 -42.46)"/><path class="cls-15" d="M368.83,384.63a1.7,1.7,0,0,1-.55-2.28c.56-1,14-23.49,34-31.21,36.1-12.62,43.11-44.41,43.17-44.73a1.7,1.7,0,1,1,3.32.69c-.07.33-7.48,34-45.33,47.22-18.88,7.28-32.11,29.52-32.24,29.74a1.7,1.7,0,0,1-2.32.61Z" transform="translate(-37.88 -42.46)"/><path class="cls-18" d="M130.55,335.48a28,28,0,0,1-4.17.48c.6-.61.77-1.86-.06-1.29a20.31,20.31,0,0,1-3,1.42c-1.31.48-3.87-.17-5.24-.3-.85-.09-1.54-.45-2,.36a2.79,2.79,0,0,0,0,2.14c.42.66,1.12.42,2,.39s1.8-.07,2.69-.13a10.67,10.67,0,0,1,2.72-.26,19.14,19.14,0,0,0,4.39.7C129.79,339,132.28,335.13,130.55,335.48Z" transform="translate(-37.88 -42.46)"/><path class="cls-19" d="M122.07,335.67a1.61,1.61,0,0,1,.85,0,4.94,4.94,0,0,1,.36,2.85c-.22.52-.72.35-1.19.12S121.83,336.33,122.07,335.67Z" transform="translate(-37.88 -42.46)"/><path class="cls-20" d="M90.64,321.94s-.83,2.14,2.24,5.75,8.39,10.12,10.29,11,15.61.45,16.81.67,2,.07,2.35-.92c.17-.7,0-2.84-.61-3.21s-1.07,0-2.23.06S107,334.61,105.41,333c-.79-.8-6.92-10.41-7.74-11.69S93.18,317.81,90.64,321.94Z" transform="translate(-37.88 -42.46)"/><path class="cls-18" d="M376.13,338.37c-.3-.39-.55-.22-1-.11l-4.17,1-8.25,2.17a4.7,4.7,0,0,0-1.34-1.95c-.89-.67-1.77-1-1.67-.51a2.48,2.48,0,0,0,.93,1.35,5.32,5.32,0,0,1-3.36-1.81c-.55-.3-1.08.62.06,2.29a5.69,5.69,0,0,0,3.19,2.33,7.73,7.73,0,0,0,2.48.32l8.5-.34,3-.15c.34,0,1.09.09,1.38-.11.71-.48.79-2.21.73-2.94A3.25,3.25,0,0,0,376.13,338.37Z" transform="translate(-37.88 -42.46)"/><path class="cls-21" d="M376.13,338.37c-.3-.39-.55-.22-1-.11l-3.27.76c-.4,1.34-1.63,3.35-5.37,4.26l5-.2,3-.15c.34,0,1.09.09,1.38-.11.71-.48.79-2.21.73-2.94A3.25,3.25,0,0,0,376.13,338.37Z" transform="translate(-37.88 -42.46)"/><path class="cls-22" d="M389.34,325.81c-2.22-.27-4.47.26-8.29,7-2.52,5.63-8.61,5.54-8.61,5.54s-.32,3.88.67,5c0,0,6.13.39,8.88-1.09s9.16-9.67,10.47-11.46S391.56,326.08,389.34,325.81Z" transform="translate(-37.88 -42.46)"/><path class="cls-23" d="M125.59,402.64h95.23a12.57,12.57,0,0,0,12.57-12.57V355.55a18.33,18.33,0,1,1,0-26.19V294.84a12.57,12.57,0,0,0-12.57-12.57H183.69a18.33,18.33,0,1,0-21,0H125.59A12.57,12.57,0,0,0,113,294.84v95.23A12.57,12.57,0,0,0,125.59,402.64Z" transform="translate(-37.88 -42.46)"/><path class="cls-24" d="M370.25,391.13V295.9a12.57,12.57,0,0,0-12.57-12.57H323.16a18.33,18.33,0,1,1-26.19,0H262.45a12.57,12.57,0,0,0-12.57,12.57V333a18.33,18.33,0,1,0,0,21v37.13a12.57,12.57,0,0,0,12.57,12.57h95.23A12.57,12.57,0,0,0,370.25,391.13Z" transform="translate(-37.88 -42.46)"/><path class="cls-18" d="M245.44,242.78a9.34,9.34,0,0,0-.78,3.06c-.11.21-.47-.44-1.07-1s-.25.89.15,1.48a8.63,8.63,0,0,1,.76,2.08c-.54,2.46-1.13,4.9-1.82,7.32-.28,1-1.14,2.28-.07,2.93.56.34,2.06.73,2.61.15s.37-2.33.44-3q.38-3.58.51-7.19s1.49-1.82,1.15-3.52S246.13,241.67,245.44,242.78Z" transform="translate(-37.88 -42.46)"/><path class="cls-25" d="M243.7,249.63s.06-1,.43-1.14a5,5,0,0,1,2.27.22c.25.23-.08,1.15-.08,1.15S244.63,250.58,243.7,249.63Z" transform="translate(-37.88 -42.46)"/><path class="cls-26" d="M231.25,272.84s-5.83,2.8-5.59,5.71a5.38,5.38,0,0,0,3.85,4.76c1.65.66,3.92-1.17,7.69-4.63s6.91-6.78,7.76-12.14c.51-3.84,1.55-12.43,1.43-13.37-.15-1.24.65-2,.6-2.79s-3.44-1.16-4.1-.41c-.22.41.05.73-.06,1.95S240,268,231.25,272.84Z" transform="translate(-37.88 -42.46)"/><path class="cls-18" d="M82.55,394.89s-.77,1.33-.5,2.07a6.36,6.36,0,0,0,4.54,2.88c2.14.09,2.32,1.54,1.91,1.91s-5.81.72-7,0a27.86,27.86,0,0,1-4.63-3.68,3.33,3.33,0,0,1,2.32-2.55L81,393.57Z" transform="translate(-37.88 -42.46)"/><path class="cls-16" d="M76.92,398.07a27.86,27.86,0,0,0,4.63,3.68c1.14.72,6.54.36,7,0s.23-1.82-1.91-1.91a5.26,5.26,0,0,1-2.51-.9h0c-.92.64-1.75.1-3.21-1.08a4.15,4.15,0,0,1-1.62-2.35A3.33,3.33,0,0,0,76.92,398.07Z" transform="translate(-37.88 -42.46)"/><path class="cls-27" d="M88.5,401.75a.81.81,0,0,0,.1-.85c-.81.72-1.11-.3-1.43.12s-1.91.44-1.62,0,.27-.81-.19-.58a3.8,3.8,0,0,1-3.44.32c-1.65-.53-3.86-2.78-4.69-3.49a7.41,7.41,0,0,0-.31.8,28.28,28.28,0,0,0,4.63,3.68C82.69,402.47,88.09,402.11,88.5,401.75Z" transform="translate(-37.88 -42.46)"/><path class="cls-18" d="M71.65,396.42s-.77,1.34-.5,2.08a6.35,6.35,0,0,0,4.54,2.87c2.14.1,2.33,1.55,1.91,1.91s-5.81.73-6.95,0A27.25,27.25,0,0,1,66,399.6a3.32,3.32,0,0,1,2.32-2.54l1.77-1.95Z" transform="translate(-37.88 -42.46)"/><path class="cls-16" d="M66,399.6a27.25,27.25,0,0,0,4.63,3.68c1.14.73,6.54.37,6.95,0s.23-1.81-1.91-1.91a5.14,5.14,0,0,1-2.51-.89h0c-.92.64-1.75.1-3.21-1.09a4.11,4.11,0,0,1-1.62-2.34A3.32,3.32,0,0,0,66,399.6Z" transform="translate(-37.88 -42.46)"/><path class="cls-28" d="M94.43,366.89a3.85,3.85,0,0,0-.09-.57l-.09-.43L94,365l-.83-3.38L91.52,355l-3.46-13.24-10.73,3.74s-.61,2.47,1.09,7.93,5.36,10.26,8.65,14.73a.39.39,0,0,1,0-.28c.19,2.14-.81,4-1.56,5.93a48,48,0,0,0-1.93,5.64c-.7,2.81-2.36,10.36-2.48,11.2-.43,1.27-.85,2.53-1.29,3.78l2.82,1.26c2.15-4.06,4.21-8.13,6.19-12.29,1-2.08,1.94-4.18,2.85-6.34a50.18,50.18,0,0,0,2.45-6.91,12.22,12.22,0,0,0,.35-2.36A6.87,6.87,0,0,0,94.43,366.89Z" transform="translate(-37.88 -42.46)"/><path class="cls-29" d="M76.6,341c-.24-.44-4.34,2.46-4.59,10.65-.2,6.51,1.09,15.09,1.63,18.34v.09c-.07.49-.21,1.14-.31,1.7l-.67,3.5-1.78,5.89a16.6,16.6,0,0,0-.6,2.78l-1.62,12.3,3,.83,4.92-13.36L79,377.06l1.23-3.34c.2-.58.4-1.07.62-1.72l.19-.68.13-.54.22-.86,6.79-27.65Z" transform="translate(-37.88 -42.46)"/><path class="cls-30" d="M84.64,346.3c-.33-.28-8.55-1.07-8.55-1.07s-1.62.37-3.14.8a19.83,19.83,0,0,0-.93,5.53c1,1,4,3.45,9.74,4.16,1.07.41-1.15,14.55-1.73,16.6S73,395.24,68.72,395.72l-.07.55,3,.83,4.92-13.36L79,377.06l1.23-3.34c.2-.58.4-1.07.62-1.72l.19-.68.13-.54.22-.86L86.53,349A32.57,32.57,0,0,0,84.64,346.3Z" transform="translate(-37.88 -42.46)"/><path class="cls-19" d="M72.7,346.3s-1.44,3.44-1,3.89,4.45,3.6,13.8,3.17c3.62,0,5.42-1,5.68-1.41s-.6-2.06-1.15-2.5S81.7,351.69,72.7,346.3Z" transform="translate(-37.88 -42.46)"/><path class="cls-18" d="M100.42,316.67s-3.35,2.21-5.2,2.49c1.19,1.39,2.6,3.22,3.57,3.29s1.77-2.67,3.57-4.05C102.22,317.08,100.42,316.67,100.42,316.67Z" transform="translate(-37.88 -42.46)"/><path class="cls-21" d="M100.42,316.67s-.93.61-2.08,1.23a1.13,1.13,0,0,0,.45.6,6.48,6.48,0,0,0,2.82.61l.14-.16a7.77,7.77,0,0,0,.25-1.37A3.33,3.33,0,0,0,100.42,316.67Z" transform="translate(-37.88 -42.46)"/><path class="cls-18" d="M109.92,314.42c-.09.28-1.62,5.58-3.58,6.7s-4.85-.88-6.73-5,2.8-7.94,5.91-7.5S110.69,312.12,109.92,314.42Z" transform="translate(-37.88 -42.46)"/><path class="cls-25" d="M72.1,347.88c-.53-.71.06-2.89.65-3.55,2.24-2.5,8.27-9.47,11.1-14.87,3.51-6.7,6.74-12.73,12.12-11.17,4.57,1.33,7.26,8.3,5.61,13.15-1.37,4.05-6,.87-8.64,4.24-2.82,3.56-2.56,9.6-2.19,12.68.12,1.08.3,2.27-.76,2.5C85.18,351.9,75.12,351.86,72.1,347.88Z" transform="translate(-37.88 -42.46)"/><path class="cls-19" d="M95.72,318.53s1.89-1.64,2.56-1.11a17.62,17.62,0,0,1,2.77,3.34,5.09,5.09,0,0,1-.43,3.1C100.34,324.29,96.31,319.79,95.72,318.53Z" transform="translate(-37.88 -42.46)"/><path class="cls-31" d="M97,328.91c.08-.16-7.14-3.8-7.34-3.93a13.87,13.87,0,0,0-3-.62c-1,1.56-1.87,3.3-2.81,5.1a44.28,44.28,0,0,1-2.75,4.45,26.47,26.47,0,0,0,6.45-1.19,2.47,2.47,0,0,1,2.86,1.08c.41.67.78,1.21.78,1.21q-1,2.33-1.78,4.74a18,18,0,0,0-.83,3.4,9.07,9.07,0,0,1-1.06,4.19,7,7,0,0,1-.83,1,6.49,6.49,0,0,1-6,2A52.82,52.82,0,0,1,73,348.77c3.75,3.08,12.57,3,17,2.09,1.06-.23.88-1.42.76-2.5-.37-3.08-.63-9.12,2.19-12.68,1.65-2.08,4-1.67,5.93-2C98,331.46,97,329,97,328.91Z" transform="translate(-37.88 -42.46)"/><path class="cls-18" d="M127.25,344.89a28.26,28.26,0,0,1-4.19-.25c.69-.5,1.08-1.69.17-1.27a21.75,21.75,0,0,1-3.25.87c-1.25.18-3.29-.71-4.5-1s-2.9-1.41-3.73,0c-.28.47-.51,1.82-.08,2.25s2.12.34,2.66.42c.9.13,1.79.24,2.69.34a10.3,10.3,0,0,1,2.74.21,19.13,19.13,0,0,0,4.2,1.45C125.9,348.23,129,344.85,127.25,344.89Z" transform="translate(-37.88 -42.46)"/><path class="cls-19" d="M118.87,343.61a1.63,1.63,0,0,1,.84.12,5,5,0,0,1-.14,2.86c-.3.48-.77.22-1.19-.08S118.51,344.22,118.87,343.61Z" transform="translate(-37.88 -42.46)"/><path class="cls-25" d="M90.28,324.67s-1.19,2,1.21,6S98,342.13,99.73,343.3s15.3,3.13,16.45,3.56,1.94.41,2.47-.5c.29-.67.52-2.79-.05-3.27s-1.06-.18-2.2-.33-12.16-2.79-13.48-4.66c-.64-.92-5-11.45-5.61-12.84S93.5,321,90.28,324.67Z" transform="translate(-37.88 -42.46)"/><path class="cls-31" d="M116.17,345.59c-1.88-.28-14.37-2.26-16-4.62s-5.7-8.32-4.45-9.92A22.66,22.66,0,0,0,98,326.84l-.67-1.58c-.58-1.4-3.81-4.22-7-.59,0,0-1.19,2,1.21,6S98,342.13,99.73,343.3s15.3,3.13,16.45,3.56,1.94.41,2.47-.5a4.88,4.88,0,0,0,.26-1.26A3.34,3.34,0,0,1,116.17,345.59Z" transform="translate(-37.88 -42.46)"/><path class="cls-16" d="M105.88,314.68s4.27,1.5,5.93-1.27-3.71-9.33-8.86-7c-4.24,2-8.56,4-13.3,4.3-5,.34-9.67-1.11-14.54,1.15-8,3.7-8.47,16.45.13,19.92a12.87,12.87,0,0,0,6.38.52,24,24,0,0,0,12.21-5,19.28,19.28,0,0,0,5.45-7.13c.44-1,1.09-6.74,2.72-6.1,1.22.48,1,1.81.74,2.58s1.39-.19,1.89-1.19S105.88,314.68,105.88,314.68Z" transform="translate(-37.88 -42.46)"/><path class="cls-27" d="M111.81,313.41a2.11,2.11,0,0,0,.28-.94c-2.18,2.33-7.68,1.06-8.37.11s-2.83-2.92-4,0-5.93,11.86-18.08,10.73c-8.73-.81-10.16-5.65-10.28-8.32-4,5.26-3,14,3.93,16.83a12.87,12.87,0,0,0,6.38.52,24,24,0,0,0,12.21-5,19.28,19.28,0,0,0,5.45-7.13c.44-1,1.09-6.74,2.72-6.1,1.22.48,1,1.81.74,2.58s1.39-.19,1.89-1.19,1.25-.8,1.25-.8S110.15,316.18,111.81,313.41Z" transform="translate(-37.88 -42.46)"/><path class="cls-27" d="M77.61,403.28a.77.77,0,0,0,.09-.84c-.81.72-1.1-.31-1.42.11s-1.92.45-1.62,0,.26-.8-.2-.57a3.8,3.8,0,0,1-3.43.32c-1.65-.53-3.87-2.78-4.69-3.5a8.33,8.33,0,0,0-.32.8,27,27,0,0,0,4.64,3.68C71.79,404,77.2,403.65,77.61,403.28Z" transform="translate(-37.88 -42.46)"/><path class="cls-18" d="M256.75,151.52c-1-.53-2.76-1.88-2.53-2.21s1.59-.71,1.59-.71-.21-.46-1.69-.31-2.13.27-2.13.27l-.09,0c-2.32-1.41-4.64-2.86-6.89-4.35-1.12-.74-2.27-1.52-3.22-2.3a2.51,2.51,0,0,1-.52-.51l-.35-.61c-.3-.52-.6-1.12-.89-1.72-.81-1.7-1.26-4.69-3.64-4.15a4.83,4.83,0,0,0-1.48.52c-1.21.74-1,1.52-.32,2.53s1.34,2.07,2,3.09c.39.59.8,1.17,1.27,1.78l.36.46c.16.18.35.39.53.57a6.78,6.78,0,0,0,1.07.78c1.31.77,2.54,1.35,3.81,1.95,2.45,1.15,4.9,2.22,7.38,3.27.74,2.18,2.1,3.21,4.6,3.44S257.71,152,256.75,151.52Z" transform="translate(-37.88 -42.46)"/><path class="cls-21" d="M239,141.75a4.91,4.91,0,0,1,.7-3.5c-.64-1.68-1.27-3.76-3.29-3.3a4.83,4.83,0,0,0-1.48.52c-1.21.74-1,1.52-.32,2.53s1.34,2.07,2,3.09c.39.59.8,1.17,1.27,1.78l.36.46c.16.18.35.39.53.57a6.78,6.78,0,0,0,1.07.78c1.31.77,2.54,1.35,3.81,1.95.84.4,1.69.78,2.54,1.16C245.61,147.41,239.47,143.55,239,141.75Z" transform="translate(-37.88 -42.46)"/><path class="cls-32" d="M234.22,139.12a7.77,7.77,0,0,0,5.83-2.54s-2.67-5.43-4-8.64-3.67-3.73-5.73-2.47-1.95,3.12-.44,5.81S234.22,139.12,234.22,139.12Z" transform="translate(-37.88 -42.46)"/><path class="cls-33" d="M385.53,161,313.92,98.26a12.57,12.57,0,0,0-17.74,1.16l-22.76,26a18.33,18.33,0,1,1-17.26,19.69L233.4,171a12.58,12.58,0,0,0,1.17,17.74l27.92,24.48a18.32,18.32,0,1,0,15.77,13.82l27.92,24.48a12.57,12.57,0,0,0,17.74-1.17l62.78-71.61A12.58,12.58,0,0,0,385.53,161Z" transform="translate(-37.88 -42.46)"/><path class="cls-18" d="M188.76,155.22s-1.55-.09-2.86-.28-2.39-1-2.84-.38-.45,5.88,0,7.08,2.72,1.78,3.55,1.38.43-1.23-.47-1.67-.68-3.76-.3-4.15c.63.07,3.53,0,3.53,0Z" transform="translate(-37.88 -42.46)"/><path class="cls-18" d="M220.52,158.32a12.09,12.09,0,0,0-.29,1.35,2.12,2.12,0,0,0,.67,1.58,3.92,3.92,0,0,0,2.46,1.24c1.46.11,2.13,0,2.18.71a1.27,1.27,0,0,1-.53,1.18,19.18,19.18,0,0,1-3.25.06,11.82,11.82,0,0,1-4.59-.95c-1.09-.68-.93-1.16-.46-2.26a32.37,32.37,0,0,1,2.2-3.65Z" transform="translate(-37.88 -42.46)"/><path class="cls-34" d="M231.14,137.43l0-.34,0-.18c0-.1,0-.26-.09-.39a3.71,3.71,0,0,0-1.55-2.09l-.38-.24-.34-.18-.51-.26a83.15,83.15,0,0,0-9.35-3.47c-2.86-.9-6.53-.49-9.54-.49-.85,0-2.51-.18-3.24.35s-.53,1.56-.64,2.28c-.22,1.48-.45,3-.67,4.44l.19,0s1.54,2.79,6.34,3.43,13.06-.75,13.06-.75c-.14.49-.28,1-.44,1.51-.59,1.87-1.25,3.76-1.93,5.65l-2.09,5.69-1,2.88-.51,1.47a16.7,16.7,0,0,0-.5,1.67l2.83.71c.12-.26.35-.75.57-1.17l.7-1.31,1.45-2.65,2.94-5.34c1-1.8,1.94-3.6,2.86-5.49.46-1,.91-1.9,1.34-3a8.65,8.65,0,0,0,.57-2.16A3.25,3.25,0,0,0,231.14,137.43Z" transform="translate(-37.88 -42.46)"/><path class="cls-35" d="M214.89,135l-.07-1.54,0-.78,0-.39a4,4,0,0,0,0-.56l-11.3-2s-2.06,6.34-.59,12S208.37,155,208.37,155c-.51,0-1,.05-1.58.05-1.95,0-4,0-6-.07l-6.06-.22-3.06-.1-1.55,0c-.54,0-2.85,0-3.58,0l.2,2.91,7.56,1,6,1.13c2,.37,4,.72,6.11,1,1,.14,2.09.28,3.27.34a8.46,8.46,0,0,0,2.23-.13,3.2,3.2,0,0,0,.56-.16l.32-.13.16-.07c.1-.05.23-.14.34-.21a3.72,3.72,0,0,0,1.51-2.12l.11-.44a2.9,2.9,0,0,0,.07-.38l.08-.57c.14-1.29.17-2.32.2-3.4s0-2.11,0-3.14q0-3.1-.1-6.17L215,138Z" transform="translate(-37.88 -42.46)"/><path class="cls-36" d="M223.36,162.49a3.71,3.71,0,0,1-2-.84,1.23,1.23,0,0,1-1,.21c-1.06-.24-1.66-1.46-2-1.9a1.05,1.05,0,0,0-.74-.38,13.78,13.78,0,0,0-.9,1.65c-.47,1.1-.63,1.58.46,2.26a11.82,11.82,0,0,0,4.59.95,19.18,19.18,0,0,0,3.25-.06,1.27,1.27,0,0,0,.53-1.18C225.49,162.54,224.82,162.6,223.36,162.49Z" transform="translate(-37.88 -42.46)"/><path class="cls-36" d="M186.16,161.35c-.45-.22-.62-1.15-.63-2.07a1.92,1.92,0,0,1-.74-.14c-.74-.32-.39-3,0-3.33a1.91,1.91,0,0,0,.4-1.05c-.81-.28-1.77-.7-2.13-.2s-.45,5.88,0,7.08,2.72,1.78,3.55,1.38S187.06,161.79,186.16,161.35Z" transform="translate(-37.88 -42.46)"/><path class="cls-37" d="M211.09,161.06c.24,0,.51-.06.84-.12a3.2,3.2,0,0,0,.56-.16l.32-.13.16-.07c.1-.05.23-.14.34-.21a3.72,3.72,0,0,0,1.51-2.12l.11-.44a2.9,2.9,0,0,0,.07-.38l.08-.57c.14-1.29.17-2.32.2-3.4s0-2.11,0-3.14q0-3.1-.1-6.17L215,138l-.13-3.06-.07-1.54,0-.78,0-.39a4,4,0,0,0,0-.56l-11.3-2a24.7,24.7,0,0,0-.74,3.24c1.43,2.28,5.15,7.94,7.58,9.68,2.41,2.17,3.83,7.82,3.58,11.71C213.62,157.54,213,159.91,211.09,161.06Z" transform="translate(-37.88 -42.46)"/><path class="cls-18" d="M233.09,124.36a13,13,0,0,0,6.65.34c-.27,1.09-.57,3.31-.57,3.31s-4.07,0-5.53,0S233.09,124.36,233.09,124.36Z" transform="translate(-37.88 -42.46)"/><path class="cls-29" d="M225.12,120.35a37.29,37.29,0,0,0-19,6c-.08,0-1.77,1.52-2.85,2.49a1.27,1.27,0,0,0-.14,1.75c1.86,2.21,6.86,7.81,12.17,10.51,1.34-1.7,9.44-6.35,14.44-6.47s5.85-2.56,6.1-6.34C236.25,122.13,230.26,120.25,225.12,120.35Z" transform="translate(-37.88 -42.46)"/><path class="cls-38" d="M236.28,124.71a.35.35,0,0,0-.26-.33l-1.29-.33a.35.35,0,0,0-.43.25,10,10,0,0,0,.26,5.36.35.35,0,0,0,.44.23,1.85,1.85,0,0,0,1.27-1.14A17.58,17.58,0,0,0,236.28,124.71Z" transform="translate(-37.88 -42.46)"/><path class="cls-30" d="M234.68,132.72c-4.1,1.33-6.69-.83-8.41-2.35-1.71,4.19-5,5.36-9.45,5.47-6.25.09-11.59-4.64-13.68-6.78a1.25,1.25,0,0,0,0,1.57c1.86,2.21,6.86,7.81,12.17,10.51,1.34-1.7,9.44-6.35,14.44-6.47C232.36,134.61,233.83,133.91,234.68,132.72Z" transform="translate(-37.88 -42.46)"/><path class="cls-18" d="M242.54,160.31c-.86-.68-2.4-2.32-2.11-2.61a4.71,4.71,0,0,1,1.69-.42s-.12-.49-1.61-.6-2.14-.11-2.14-.11c-1.54-2.26-3.05-4.55-4.49-6.85-.71-1.15-1.44-2.33-2-3.44a2.74,2.74,0,0,1-.26-.68l-.07-.7c0-.59-.07-1.27-.08-1.93,0-1.24.52-4-.57-4.69-.76-.51-3.46-1.14-4.09,0-.25.44.24,2,.31,2.49q.2,1.32.42,2.64c.12.7.25,1.39.42,2.15l.14.56c.06.23.16.5.24.74A5.73,5.73,0,0,0,229,148a42.67,42.67,0,0,0,2.64,3.36c1.8,2.12,3.64,4.17,5.51,6.2.31,2.41,1.47,3.71,4,4.39S243.4,161,242.54,160.31Z" transform="translate(-37.88 -42.46)"/><path class="cls-21" d="M229.22,145.39c-.25-1.78,1.6-3.42,2.35-4,.07-1.24.08-2.62-.65-3.1s-3.46-1.14-4.09,0c-.25.44.24,2,.31,2.49q.2,1.32.42,2.64c.12.7.25,1.39.42,2.15l.14.56c.06.23.16.5.24.74A5.73,5.73,0,0,0,229,148a42.67,42.67,0,0,0,2.64,3.36c.78.92,1.57,1.81,2.36,2.71C233.75,153.65,229.52,147.55,229.22,145.39Z" transform="translate(-37.88 -42.46)"/><path class="cls-29" d="M226.1,140.27a7.78,7.78,0,0,0,6.36,0s-.28-6.05-.22-9.53-1.87-4.88-4.27-4.55-3,2.08-2.72,5.15S226.1,140.27,226.1,140.27Z" transform="translate(-37.88 -42.46)"/><path class="cls-30" d="M225.21,130.72c0,.2,0,.4,0,.62.32,3.07.85,8.93.85,8.93a7.78,7.78,0,0,0,6.36,0s0-.66-.07-1.65C227.77,138.28,225.93,133.75,225.21,130.72Z" transform="translate(-37.88 -42.46)"/><path class="cls-18" d="M245.61,129.2c-.22.13-4.28,2.81-6.24,2.44s-2.75-3.36-1.65-7.21,6.42-3.73,8.25-1.65S247.44,128.09,245.61,129.2Z" transform="translate(-37.88 -42.46)"/><path class="cls-16" d="M252.2,128.46a7.91,7.91,0,0,1-2.47-1.37s2.41-2.11,1-3a6,6,0,0,0-2.59-1s1.83-2.44.41-2.89-2.21.28-2.72,0-7.07-.89-8.9,3.11a1.43,1.43,0,0,0,1,2.07.9.9,0,0,0,.78-.19c.62-.57,1.87-1.36,2.66-.74s.46,1.76-.5,2.38,1.24,1.16,2.72.24c0,0,1.92,5.47,4.87,5.17S253.73,129,252.2,128.46Z" transform="translate(-37.88 -42.46)"/><path class="cls-27" d="M252.66,129.24c-3.63,2-7.7-3.09-7.95-4.12s-1.33-2.21-3.45-1.9a5.61,5.61,0,0,1-3.65-1,4.79,4.79,0,0,0-.72,1.09,1.43,1.43,0,0,0,1,2.07.9.9,0,0,0,.78-.19c.62-.57,1.87-1.36,2.66-.74s.46,1.76-.51,2.38,1.25,1.16,2.73.24c0,0,1.92,5.47,4.87,5.17C250.6,132,252.49,130.32,252.66,129.24Z" transform="translate(-37.88 -42.46)"/><path class="cls-18" d="M231.83,268.47s.89,4.88-.72,5.95,5.11.25,5.11.25-1.74-5.08-1.41-6.83C234.07,267.34,231.83,268.47,231.83,268.47Z" transform="translate(-37.88 -42.46)"/><path class="cls-21" d="M235.12,270.83a8.86,8.86,0,0,1-.31-3c-.74-.5-3,.63-3,.63a14.63,14.63,0,0,1,.12,4.29A5.68,5.68,0,0,0,235.12,270.83Z" transform="translate(-37.88 -42.46)"/><path class="cls-18" d="M223.13,353.25a4.25,4.25,0,0,1-2.45-2.45l.93-1.62-1.46-.81-.93,1.63a8.39,8.39,0,0,0-1.59,2.1c-.61,1.21.37,1.54.37,1.54a25.3,25.3,0,0,0,6.67,2.11l.14-.45C224.94,354.85,225,354,223.13,353.25Z" transform="translate(-37.88 -42.46)"/><path class="cls-39" d="M218,353.64a25.3,25.3,0,0,0,6.67,2.11l.14-.45c.13-.45.23-1.3-1.68-2.05a4.25,4.25,0,0,1-2.45-2.45,1.17,1.17,0,0,1-1.46-.8,8.39,8.39,0,0,0-1.59,2.1C217,353.31,218,353.64,218,353.64Z" transform="translate(-37.88 -42.46)"/><path class="cls-40" d="M224.81,355.3s0-.05,0-.07c-4.29-.74-6.52-2-7.37-2.58a.9.9,0,0,0,.55,1,25.3,25.3,0,0,0,6.67,2.11Z" transform="translate(-37.88 -42.46)"/><path class="cls-41" d="M227.14,295.29s-2.07,8.3-1.8,12.2,1.91,14.42,1.91,14.42h0V323a12.45,12.45,0,0,1-.74,2.6l-1.08,3.36-2.17,6.7-4,13.53,2.36.89,6.48-12.55,3.24-6.27,1.62-3.13.8-1.57a8.89,8.89,0,0,0,.93-2.39l4.6-28Z" transform="translate(-37.88 -42.46)"/><path class="cls-40" d="M220.83,351.8a.14.14,0,0,0,.14,0l.16-.13-.14-.21-.2.16a.13.13,0,0,0,0,.18Z" transform="translate(-37.88 -42.46)"/><path class="cls-40" d="M221.41,352.34l0,0a.11.11,0,0,0,.13,0l.08-.06-.18-.18-.07.06A.13.13,0,0,0,221.41,352.34Z" transform="translate(-37.88 -42.46)"/><path class="cls-40" d="M222.06,352.93a.12.12,0,0,0,.13,0,.47.47,0,0,1,.12-.09l-.21-.15-.08.06a.13.13,0,0,0,0,.18Z" transform="translate(-37.88 -42.46)"/><path class="cls-42" d="M239.3,296.17l-12.16-.88s-2.07,8.3-1.8,12.2c.08,1.11.27,2.77.5,4.56a14,14,0,0,0,6.24,4.44c1.15,1.15,1.14,3.41,1.06,4.89a12.88,12.88,0,0,1-.85,3.18,83.65,83.65,0,0,1-2.94,8.82,52.33,52.33,0,0,1-6.44,11.85,12.25,12.25,0,0,1-3.45,3.28l-.19.66,2.36.89,6.48-12.55,3.24-6.27,1.62-3.13.8-1.57a8.89,8.89,0,0,0,.93-2.39Z" transform="translate(-37.88 -42.46)"/><path class="cls-18" d="M244.41,352.14a4.26,4.26,0,0,1-3.19-1.34l.25-1.86-1.66-.19-.25,1.86a8.18,8.18,0,0,0-.68,2.54c-.12,1.34.92,1.28.92,1.28a24.93,24.93,0,0,0,7-.55l0-.47C246.69,352.94,246.46,352.11,244.41,352.14Z" transform="translate(-37.88 -42.46)"/><path class="cls-39" d="M239.8,354.43a24.93,24.93,0,0,0,7-.55l0-.47c0-.47-.27-1.3-2.32-1.27a4.26,4.26,0,0,1-3.19-1.34,1.18,1.18,0,0,1-1.66-.19,8.18,8.18,0,0,0-.68,2.54C238.76,354.49,239.8,354.43,239.8,354.43Z" transform="translate(-37.88 -42.46)"/><path class="cls-40" d="M246.73,353.41s0-.05,0-.08c-4.26.94-6.79.63-7.8.39a.89.89,0,0,0,.88.71,24.93,24.93,0,0,0,7-.55Z" transform="translate(-37.88 -42.46)"/><path class="cls-25" d="M248.2,320.37c-.06-.25-.13-.51-.2-.73l-.13-.44-.52-1.74c-.36-1.15-.73-2.29-1.1-3.42q-1.14-3.37-2.34-6.7c-1.61-4.44-3.27-8.82-5-13.24l-11.36,5.2s-.27,5.4,1.74,8.94S240.15,321,240.15,321l.4.79.19.38a.36.36,0,0,0,.08.09,1.18,1.18,0,0,1,.11.19,1.31,1.31,0,0,1,.08.21h0v.11l0,.21,0,.44-.11,1.73-.24,3.46-.48,6.94-.95,13.87,2.32.34L245,336.2l1.74-6.76.88-3.38.43-1.7.11-.42.06-.21,0-.11,0-.21a7.08,7.08,0,0,0,.11-1.52A7.79,7.79,0,0,0,248.2,320.37Z" transform="translate(-37.88 -42.46)"/><path class="cls-31" d="M240,318a47.59,47.59,0,0,1-2.79-4.62c-.74-1.54-2.36-4.67-.91-6.25a30.43,30.43,0,0,1,6-4.2c-.88-2.36-1.78-4.71-2.69-7.07-.73-.37-1.47-.75-2.18-1.09l-9.87,4.51s-.27,5.4,1.74,8.94S240.15,321,240.15,321l.4.79.19.38a.36.36,0,0,0,.08.09,1.18,1.18,0,0,1,.11.19l.09.21v.11l0,.21,0,.44-.11,1.73-.24,3.46-.48,6.94-.95,13.87.49.07c.74-7.47,1.5-14.94,2.16-22.42.15-1.77.71-3.61.15-5.36a8.06,8.06,0,0,0-.6-1.34C241,319.54,240.5,318.78,240,318Z" transform="translate(-37.88 -42.46)"/><path class="cls-18" d="M235.5,260.69c.15.25,3.19,4.85,2.77,7.07s-3.81,3.12-8.18,1.87-4.23-7.28-1.87-9.36S234.24,258.61,235.5,260.69Z" transform="translate(-37.88 -42.46)"/><path class="cls-39" d="M232.08,255.78s2.36-3.68,3.84-.27-3,6.32-3,6.32c1.81,3.6.52,4.57.52,4.57s-.77-1.48-1.42-1.38-1.24,1.49.06,2.53,1.83,4.27-1.81,4.25a2.26,2.26,0,0,1-1.63-1.3s-2.55.06-3.31-1.79,0-2.66,0-2.66-2-1.23-2-3.06a2.71,2.71,0,0,1,1.46-2.48s-.59-2,.44-3a3.52,3.52,0,0,1,2.82-.6s.23-2,1.74-2A3.08,3.08,0,0,1,232.08,255.78Z" transform="translate(-37.88 -42.46)"/><path class="cls-16" d="M242.65,300.54c-.31-1.72-.8-4.58-1.14-7.28-.52-4.24-.13-6.5,0-12.2s-4.19-8.89-8.25-8.63a7.18,7.18,0,0,0-7.21,6.9c.36,7.67-.68,18.47-1,22.84a1.22,1.22,0,0,0,1,1.31c7.74.89,12.88-.11,15.28-.8A1.86,1.86,0,0,0,242.65,300.54Z" transform="translate(-37.88 -42.46)"/><path class="cls-16" d="M237.49,273.45c-.4-1.65-9.43-1.34-13-1-5.2.45-2.06,2.13-1.9,2.8s-2,1.67-2.73,3.08-.82,7.75,1.29,9,8.11-.92,9.73-5.94C232.4,276.61,237.42,273.78,237.49,273.45Z" transform="translate(-37.88 -42.46)"/><path class="cls-27" d="M237.49,273.45c-.08-.33-.5-.57-1.13-.76-1.34,1.37-5.39,1.78-6.61,2.28s.2,2.63-.47,4.58-2.52,4.74-6,4.66a4.79,4.79,0,0,1-3.9-2.32c0,2.21.5,4.69,1.74,5.44,2.11,1.27,8.11-.92,9.73-5.94C232.4,276.61,237.42,273.78,237.49,273.45Z" transform="translate(-37.88 -42.46)"/><path class="cls-18" d="M256.47,244.87a9.21,9.21,0,0,0-1.19,2.93c-.14.18-.41-.51-.92-1.17s-.36.85-.06,1.49a8.34,8.34,0,0,1,.47,2.16c-.86,2.36-1.78,4.7-2.79,7-.42,1-1.45,2.1-.48,2.89.52.41,1.94,1,2.57.51s.68-2.26.85-2.94q.87-3.5,1.48-7.05s1.72-1.59,1.63-3.33S257.31,243.86,256.47,244.87Z" transform="translate(-37.88 -42.46)"/><path class="cls-25" d="M253.81,251.41s.2-1,.58-1.07a5.09,5.09,0,0,1,2.23.54c.21.25-.24,1.12-.24,1.12S254.6,252.49,253.81,251.41Z" transform="translate(-37.88 -42.46)"/><path class="cls-16" d="M238.31,272.71s-6.16,2-6.32,4.89a5.38,5.38,0,0,0,3.16,5.24c1.55.88,4-.62,8.26-3.54s7.77-5.76,9.34-11c1-3.73,3.23-12.1,3.25-13,0-1.26.91-1.94,1-2.69s-3.25-1.62-4-1c-.27.38-.05.73-.32,1.92S247.69,269.07,238.31,272.71Z" transform="translate(-37.88 -42.46)"/><path class="cls-27" d="M257,252.61a.48.48,0,0,0-.2-.35,4,4,0,0,0-1.53,2.28,31.85,31.85,0,0,1-1.83,7.8c-.75,2.33-1.12,4.92-2.2,7.12a18.9,18.9,0,0,1-9.84,8.69,10.48,10.48,0,0,1-9.34-.76c0,.07,0,.14,0,.21a5.38,5.38,0,0,0,3.16,5.24c1.55.88,4-.62,8.26-3.54s7.77-5.76,9.34-11c1-3.73,3.23-12.1,3.25-13C256,254,256.91,253.36,257,252.61Z" transform="translate(-37.88 -42.46)"/><path class="cls-27" d="M241.35,285.65c.22.45-.26,2-.37,2.51-.2,1-.47,2-.76,3-1.07,3.65-1.46,7.75-4.55,10.36-1.57,1.34-3,1.16-5,1.21-.44,0-5.62,0-5.61-.49a1.21,1.21,0,0,0,1,1.26c7.74.89,12.88-.11,15.28-.8a1.86,1.86,0,0,0,1.26-2.14c-.31-1.72-.8-4.58-1.14-7.28A41.4,41.4,0,0,1,241.35,285.65Z" transform="translate(-37.88 -42.46)"/><path class="cls-43" d="M235.92,255.51c-.45-1-1-1.41-1.5-1.44.37,1.34,1.05,5.12-2.69,6.49-.09,1.09-.82,3.08-2.45,3.31.55,1.67.46,4.53-2.12,4.44-.68-.18-1.5-.17-1.86-2.26,0,0-.76.81,0,2.66s3.31,1.79,3.31,1.79a2.26,2.26,0,0,0,1.63,1.3c3.64,0,3.11-3.22,1.81-4.25s-.7-2.44-.06-2.53,1.42,1.38,1.42,1.38,1.29-1-.52-4.57C232.89,261.83,237.41,258.93,235.92,255.51Z" transform="translate(-37.88 -42.46)"/><path class="cls-4" d="M150.1,67.56a46.27,46.27,0,0,0-4,5c-4.9,7-7.83,18-4.25,26.14,5,11.34,18.7,10.1,28.26,5.92a65.5,65.5,0,0,0,22.46-16.23c3.34-3.72,6.3-7.93,7.67-12.74a17.32,17.32,0,0,0-13.14-22C173.54,50.82,159.38,57.59,150.1,67.56Z" transform="translate(-37.88 -42.46)"/><g class="cls-7"><path class="cls-8" d="M263.09,283.33h-.64a12.57,12.57,0,0,0-12.57,12.57v3.9L354.76,403.7h2.92a12.57,12.57,0,0,0,12.57-12.57v-1.64Z" transform="translate(-37.88 -42.46)"/><path class="cls-8" d="M326.41,304.38a18.26,18.26,0,0,1-5.91,6.81l49.75,49.29V347.81Z" transform="translate(-37.88 -42.46)"/><path class="cls-8" d="M294.92,285.85a17.77,17.77,0,0,1,2.05-2.52h-4.6Z" transform="translate(-37.88 -42.46)"/><polygon class="cls-8" points="291.52 361.24 301.47 361.24 212 272.61 212 282.46 291.52 361.24"/></g><path class="cls-18" d="M339.42,409.73s.86-8.8.53-9.54c-1.24-.73-3.68-.13-5,.08s-1.67.49-1.59,1.7.28,2.71.42,4.06.27,2.67.41,4l.05.5.05.13,7.95,21.13,2-.56Z" transform="translate(-37.88 -42.46)"/><path class="cls-18" d="M335.17,399.46a12.16,12.16,0,0,0-2.67-.28c-1.07,0-3,.12-3.56,1.2-.45.89-.19,2.74-.27,3.71-.11,1.57-.23,3.14-.35,4.71l0,.47v.09l3.17,22.32,2.09-.14V409.45l.57-2.55c-.1-1,1.24-3,1.6-3.93s1.34-2.23.58-3A2.48,2.48,0,0,0,335.17,399.46Z" transform="translate(-37.88 -42.46)"/><path class="cls-29" d="M333.54,430.45a2.15,2.15,0,0,1,.68,1.8,33.91,33.91,0,0,1-.32,3.59h-1.09v-2.39l-2.31,2.39h-3c-.73,0-.3-1.28,1.15-1.49s2.16-1.76,2.8-2.87A2.25,2.25,0,0,0,333.54,430.45Z" transform="translate(-37.88 -42.46)"/><path class="cls-29" d="M344,430.45a2.15,2.15,0,0,1,.68,1.8,33.91,33.91,0,0,1-.32,3.59h-1.09v-2.39L341,435.84h-3c-.73,0-.3-1.28,1.15-1.49s2.34-1.89,3-3A1.88,1.88,0,0,0,344,430.45Z" transform="translate(-37.88 -42.46)"/><path class="cls-21" d="M334.63,400.69h-5.8a17.91,17.91,0,0,0-.16,3.4c-.11,1.57-.23,3.14-.35,4.71l0,.47v.09l.06.41a34.47,34.47,0,0,1,5.2,7v-7.34l.57-2.55c-.09-.9,1-2.68,1.48-3.66C335.07,401.8,334.63,400.69,334.63,400.69Z" transform="translate(-37.88 -42.46)"/><path class="cls-21" d="M340.85,416.14l-1.43-6.41s.46-4.72.58-7.54l-4.82-2-.22,0a5.3,5.3,0,0,0-.83.18l-.54,3.85c.07.58.14,1.16.2,1.73.14,1.34.27,2.67.41,4v.08A66.9,66.9,0,0,1,340.85,416.14Z" transform="translate(-37.88 -42.46)"/><path class="cls-18" d="M330.64,354a67,67,0,0,1-4.73-5.86,17.47,17.47,0,0,1-1-1.53l-1-1.68-2-3.37-3-4.75s.19-2.75-.35-3.71-.74-2.23-.94-2.48-.53,1.27-.24,2.07c-.45-.32-1-.76-2-3.47-.26-.73-.86-.38-.39.73a4.08,4.08,0,0,1,.54,2.23c-.12.29-.84.8-.66,1.69a7.66,7.66,0,0,0,2.72,3.56l1.71,5.33,1.36,3.66.68,1.84c.22.58.52,1.32.8,1.93a74.25,74.25,0,0,0,3.9,7.1c.78,1.27,1.57,2.52,2.38,3.77a3.17,3.17,0,0,0,4.67.7h0a3.17,3.17,0,0,0,.29-4.62C332.53,356.09,331.57,355,330.64,354Z" transform="translate(-37.88 -42.46)"/><path class="cls-21" d="M332,362.36s.85-.6,1.86-1.38a3.16,3.16,0,0,0-.36-3.86c-.85-.91-1.69-1.84-2.52-2.77-2.82.66-5.85-1-7.83-2.37.94,1.83,2,3.56,3,5.29.78,1.27,1.57,2.52,2.38,3.77a3.15,3.15,0,0,0,2.69,1.42l.75-.09Z" transform="translate(-37.88 -42.46)"/><path class="cls-18" d="M338.76,343.63c-2.18-1.93-5.57-1.54-6.74.38-.14.24-2.95,4.5-2.57,6.55.25,1.33,1.66,2.14,3.71,2.24.24,1.31.42,3.59-1,4.76.73.44,4.56.7,5.31-.34a31.84,31.84,0,0,1-1.38-4.7c.3-.06.61-.14.92-.23C341.08,351.14,341,345.55,338.76,343.63Z" transform="translate(-37.88 -42.46)"/><path class="cls-25" d="M336.14,355.21c-5.1-.8-12.38,3.41-9.72,8.65,1.95,3.87,3.26,2.28,3.35,5.94s-1.34,10.3-1.34,10.3,4.09,2.7,13.93,0a70.47,70.47,0,0,1-1.75-19.05C340.85,357.38,338.79,355.62,336.14,355.21Z" transform="translate(-37.88 -42.46)"/><path class="cls-18" d="M336.37,358.06a3.5,3.5,0,0,0-4.33,2.86l-.62,4.06-.6,3.94-.3,2a1.59,1.59,0,0,1-.21.82,1.78,1.78,0,0,1-.27.36,3.42,3.42,0,0,1-.31.25l-.4.29-1.59,1.2-3.19,2.39L318.17,381a6.72,6.72,0,0,0-2.15,0c-.41.06-2.34.47-2.21.69s.54.19.72.21.79-.06,1,.14l-.17.18L314,383.64c-.68.64-1.06,1.77-.44,1.66a25.92,25.92,0,0,0,2.78-1s-1.51,1.16-1,1.13a9,9,0,0,0,2.17-1.27,3.4,3.4,0,0,0,.85-1,7.24,7.24,0,0,1,3.18-2.15l4.55-2.17,3.6-1.72,1.8-.85L332,376a4.45,4.45,0,0,0,.53-.27,6.29,6.29,0,0,0,2.86-3.59l.69-1.87,1.36-3.74,1.41-3.86A3.51,3.51,0,0,0,336.37,358.06Z" transform="translate(-37.88 -42.46)"/><path class="cls-16" d="M328.43,380.1s-1.9,10.3-1.34,17.59.62,8.61.62,8.61,2.52,1.27,7.71,1.27,6.94-1.27,6.94-1.27-.87-7.12,1.19-13.1,1.17-9.56-1.19-13.1C340.18,378.43,328.43,380.1,328.43,380.1Z" transform="translate(-37.88 -42.46)"/><path class="cls-27" d="M343.55,393.2a22.68,22.68,0,0,0,.87-3.19c-1.83,4.62-6.68,13.5-16.91,13.26.18,2.45.2,3,.2,3s2.52,1.27,7.71,1.27,6.94-1.27,6.94-1.27S341.49,399.18,343.55,393.2Z" transform="translate(-37.88 -42.46)"/><path class="cls-21" d="M337.9,358.92a3.31,3.31,0,0,0-1.53-.86,3.5,3.5,0,0,0-4.33,2.86l-.62,4.06-.6,3.94-.3,2a1.59,1.59,0,0,1-.21.82,1.91,1.91,0,0,1-.25.33,11.34,11.34,0,0,1-.64,2.73c-.39.81-1.05,2.12-1.59,3.17l1.87-.89,1.8-.85L332,376a4.45,4.45,0,0,0,.53-.27,6.29,6.29,0,0,0,2.86-3.59l.69-1.87,1.36-3.74.92-2.54C338.14,362.43,338,360.36,337.9,358.92Z" transform="translate(-37.88 -42.46)"/><path class="cls-29" d="M332.18,342.36s.37,4.14,2.16,4.88c.15.75-1,1.74-1.31,2.39s2.6-.8,3.15,0-.55,2.66-1.74,3.19c-4.14,1.83-.34,5.13-.42,7.89,0,1.89-1.51,3.46-2.1,5.2-.84,2.44.69,3.54,2.16,5.29a4.7,4.7,0,0,1,1.27,2.7c0,1.08-.74,1.87-1,2.84a6.12,6.12,0,0,0,.38,3.89,5.56,5.56,0,0,0,2.52,2.39,8.41,8.41,0,0,0,8.68-.78c2.32-1.76,4.73-6.52,2.37-9.1a8.91,8.91,0,0,1-1.88-6.31c.1-2.62,1.58-5,.75-7.69-.67-2.18-2.73-3.18-3.71-5.09a7.56,7.56,0,0,1-.57-5.54c.65-2.43-1.09-5-3-6.42A6.16,6.16,0,0,0,332.18,342.36Z" transform="translate(-37.88 -42.46)"/><path class="cls-30" d="M348.3,373.14a8.91,8.91,0,0,1-1.88-6.31c.1-2.62,1.58-5,.75-7.69a5,5,0,0,0-.46-1c.45.78-2.45,2.45-2.88,2.63-1.54.65-3.79,1.21-5.29.24-2-1.27-2.52-5.61-1.21-7.49,1-1.41,2.2-5.08-.92-6.05a6.52,6.52,0,0,1-4.05-3.88c.25,1.28.82,3.19,2,3.67.15.75-1,1.74-1.31,2.39s2.6-.8,3.15,0-.55,2.66-1.74,3.19c-4.14,1.83-.34,5.13-.42,7.89,0,1.89-1.51,3.46-2.1,5.2-.84,2.44.69,3.54,2.16,5.29a4.7,4.7,0,0,1,1.27,2.7c0,1.08-.74,1.87-1,2.84a6.12,6.12,0,0,0,.38,3.89,5.56,5.56,0,0,0,2.52,2.39,8.41,8.41,0,0,0,8.68-.78C348.25,380.48,350.66,375.72,348.3,373.14Z" transform="translate(-37.88 -42.46)"/><path class="cls-18" d="M376.7,405.58a5.38,5.38,0,0,0,4-1.57l-.25-2.33,2.08-.18.24,2.33a10.43,10.43,0,0,1,.77,3.19c.09,1.69-1.2,1.58-1.2,1.58a31.87,31.87,0,0,1-8.69-.93l.07-.59C373.82,406.5,374.14,405.47,376.7,405.58Z" transform="translate(-37.88 -42.46)"/><path class="cls-16" d="M383,404.21a3.65,3.65,0,0,1-2.52,1.35,3.56,3.56,0,0,1-1.63-.33,5.34,5.34,0,0,1-2.1.35c-2.56-.11-2.88.92-2.95,1.5l-.07.59a31.87,31.87,0,0,0,8.69.93s1.29.11,1.2-1.58A10,10,0,0,0,383,404.21Z" transform="translate(-37.88 -42.46)"/><path class="cls-44" d="M392.25,350a24.83,24.83,0,0,1-.87,9.61c-1.5,4.38-7.52,18.32-7.52,18.32l0,.82-.1,3.42-.2,6.85-.41,13.7-3.32.11-1.3-13.64-.65-6.83-.32-3.41-.08-.88a8.07,8.07,0,0,1,0-1.39,5.46,5.46,0,0,1,.1-.69l.07-.44.15-.84,4.57-27Z" transform="translate(-37.88 -42.46)"/><path class="cls-18" d="M395.67,405.12a5.34,5.34,0,0,0,3.38-2.7l-.93-2.15,1.93-.8.93,2.16a10.27,10.27,0,0,1,1.68,2.82c.59,1.58-.67,1.86-.67,1.86a31.82,31.82,0,0,1-8.58,1.7l-.1-.58C393.2,406.85,393.2,405.78,395.67,405.12Z" transform="translate(-37.88 -42.46)"/><path class="cls-29" d="M395.82,347.44a25,25,0,0,1,1.77,9.49c-.26,4.62-2.27,19.67-2.27,19.67l.2.8.83,3.33,1.67,6.64,3.32,13.3-3.16,1-4.95-12.78-2.48-6.38-1.24-3.2-.32-.83a7.52,7.52,0,0,1-.34-1.34c0-.23-.07-.46-.1-.69l0-.45-.09-.85-2.94-27.25Z" transform="translate(-37.88 -42.46)"/><path class="cls-16" d="M401.23,402a3.35,3.35,0,0,1-3.66,2.21,5.29,5.29,0,0,1-1.9,1c-2.47.66-2.47,1.73-2.36,2.31l.1.58a31.82,31.82,0,0,0,8.58-1.7s1.26-.28.67-1.86A10.22,10.22,0,0,0,401.23,402Z" transform="translate(-37.88 -42.46)"/><path class="cls-30" d="M397.45,358.81c.06-.73.11-1.37.14-1.88a17.54,17.54,0,0,0-.15-3.33,17.49,17.49,0,0,0-5.05,0,20.29,20.29,0,0,0-5.85,2.24l2.08,19.27.09.85,0,.45c0,.23.06.46.1.69a7.52,7.52,0,0,0,.34,1.34l.32.83,1.24,3.2.56,1.43h0c-2.2-7.1-.8-16.83.75-20.33C393.26,360.91,396.19,359.37,397.45,358.81Z" transform="translate(-37.88 -42.46)"/><path class="cls-18" d="M378.3,343.87c-.4-.29-.59-.05-1,.18l-3.74,2.07-7.34,4.34a4.8,4.8,0,0,0-1.83-1.51c-1-.4-2-.49-1.74,0a2.46,2.46,0,0,0,1.26,1,5.31,5.31,0,0,1-3.73-.82c-.61-.14-.86.9.69,2.19a5.73,5.73,0,0,0,3.71,1.37,7.79,7.79,0,0,0,2.46-.37l8.09-2.65,2.81-1c.32-.1,1.07-.21,1.3-.48.54-.65.15-2.34-.11-3A3.33,3.33,0,0,0,378.3,343.87Z" transform="translate(-37.88 -42.46)"/><path class="cls-21" d="M378.3,343.87c-.4-.29-.59-.05-1,.18L374,345.89c.23,1,.25,3.15-2.88,5.11l4-1.32,2.81-1c.32-.1,1.07-.21,1.3-.48.54-.65.15-2.34-.11-3A3.33,3.33,0,0,0,378.3,343.87Z" transform="translate(-37.88 -42.46)"/><path class="cls-18" d="M383.07,315.88c-.05.24-1,4.78,0,6.39s3.94,1.27,7-1,1.07-7-1.41-7.9S383.41,313.87,383.07,315.88Z" transform="translate(-37.88 -42.46)"/><path class="cls-18" d="M390.35,325.67a11.86,11.86,0,0,1-1.32-6c-.94.41-2.9,1-2.9,1s.57,3.69.84,5S390.35,325.67,390.35,325.67Z" transform="translate(-37.88 -42.46)"/><path class="cls-29" d="M391,322c-.67.07-1.73-.85-1.44-1.6s.55-2.14-.28-2.62-1.71.21-1.93,1.28-1.46-.7-1.16-2.33a7.58,7.58,0,0,1-3.63-1.13,2.52,2.52,0,0,1-.72-3.09,9.62,9.62,0,0,1,.8-1.44c.17-.25.54-.95.9-.85s.28.63.69.6.95-.73,1.29-1,.78-.84,1.24-.85c.64,0,.44.89.95,1,.33.11.87-.3,1.21-.4a5.88,5.88,0,0,1,1.72-.26c.63,0,.18,1.11.52,1.32s1.17-.31,1.6-.15.34.75.3,1.09-.28.79-.18,1.1.39.26.76.23c-.08,1.71.17,3.49-.05,5.19C393.36,319.59,392.71,321.8,391,322Z" transform="translate(-37.88 -42.46)"/><path class="cls-35" d="M395.26,330.57s-.05-6.89-7.24-6c-3.36,1.1-6.8,3.58-6.29,10a80.1,80.1,0,0,1,.33,12.52c-.19,4.79-2.57,10.55-2.57,10.55s7.69,2.28,18.37-.17C397.52,353.87,395.48,340.11,395.26,330.57Z" transform="translate(-37.88 -42.46)"/><path class="cls-16" d="M390.53,323.63a.75.75,0,0,0-.85-.54c-1.12.18-3.28.58-3.55.93s0,1.73,0,1.73,4.84-.26,4.78-.63S390.68,324.18,390.53,323.63Z" transform="translate(-37.88 -42.46)"/><path class="cls-37" d="M382.62,343.41a1.67,1.67,0,0,0-.46.26c0,1-.05,2.05-.1,3.38-.19,4.79-2.57,10.55-2.57,10.55s7.69,2.28,18.37-.17c0-.49-.12-1.18-.23-2C383.86,356.66,382.62,343.41,382.62,343.41Z" transform="translate(-37.88 -42.46)"/><path class="cls-35" d="M387.57,328.18c-2.21.35-4.23,1.47-6.06,9-.88,6.11-6.77,7.68-6.77,7.68s.75,3.82,2,4.64c0,0,6-1.3,8.24-3.48s6.17-11.8,6.94-13.88S389.77,327.83,387.57,328.18Z" transform="translate(-37.88 -42.46)"/><path class="cls-37" d="M388.44,328.17c0,2.32-.2,12.92-5.6,16.88a29.58,29.58,0,0,1-6.62,3.9,2.18,2.18,0,0,0,.54.55s6-1.3,8.24-3.48,6.17-11.8,6.94-13.88C392.61,330.33,390.47,328.4,388.44,328.17Z" transform="translate(-37.88 -42.46)"/><path class="cls-30" d="M393.48,318.57c-2.15,1.34-3-2.55-3.13-2.23s-1.63.27-2.11-.86-.31-.8-2.11-.47a4.27,4.27,0,0,1-4.45-2.17,2.48,2.48,0,0,0,.84,2.75,7.58,7.58,0,0,0,3.63,1.13c-.31,1.63.94,3.4,1.16,2.33s1.1-1.77,1.93-1.28.56,1.87.28,2.62.77,1.67,1.44,1.6C392.55,321.82,393.22,320,393.48,318.57Z" transform="translate(-37.88 -42.46)"/><path class="cls-8" d="M113.2,292.84a12.09,12.09,0,0,0-.18,2v10.5l98.22,97.3h9.58a12.24,12.24,0,0,0,2.86-.34Z" transform="translate(-37.88 -42.46)"/><path class="cls-8" d="M228.59,358.91a18.07,18.07,0,0,1-8,1.87,18.29,18.29,0,0,1-16.54-26.18l-52.83-52.33H125.59a12.54,12.54,0,0,0-3.65.54L233.06,392.9a12.59,12.59,0,0,0,.33-2.83v-26.4Z" transform="translate(-37.88 -42.46)"/><path class="cls-18" d="M165.11,336.76c-.57-.75-.07-1.2.39-2,1.05-1.82,2-3.72,2.87-5.62a6.91,6.91,0,0,0-.4-1.75c-.26-.55-.39-1.85.05-1.28s.67,1.17.8,1a8,8,0,0,1,1-2.53c.72-.86,1.26.66,1.35,2.15a4.47,4.47,0,0,1-1.39,2.87c.31.21-1.41,5-1.58,5.56s-.42,2.17-.88,2.47-1.73-.33-2.09-.73Z" transform="translate(-37.88 -42.46)"/><path class="cls-29" d="M169.74,332s-1.29-1.9-2.74-1.22c0,0-3.38,8.29-7.63,11.63s-12.39,6.49-12.9,7.95-.46,7.18,4.22,6.92,12.81-7.75,14.94-13.32S169.74,332,169.74,332Z" transform="translate(-37.88 -42.46)"/><path class="cls-30" d="M146.47,350.32c.15-.43,1-1,2.18-1.71,2.9.34,5.55,4,7.07,3.61,3.73-1.39,7.69-6,10.45-9.72l-.54,1.42c-2.13,5.57-10.26,13.07-14.94,13.32S146,351.77,146.47,350.32Z" transform="translate(-37.88 -42.46)"/><path class="cls-18" d="M160.51,428.27a4.71,4.71,0,0,1-3.56-1.4l.22-2.06-1.84-.17-.22,2.06a9.2,9.2,0,0,0-.69,2.83c-.09,1.49,1.05,1.4,1.05,1.4a27.79,27.79,0,0,0,7.71-.8l-.06-.52C163.06,429.1,162.78,428.18,160.51,428.27Z" transform="translate(-37.88 -42.46)"/><path class="cls-45" d="M138.64,375.93c1.43,2.17,2.89,4.56,4.27,6.89s2.73,4.72,4,7.12,2.49,4.81,3.57,7.24a57.08,57.08,0,0,1,2.74,7.29l0-.35c.28,1.63.45,3.39.59,5.16s.22,3.59.28,5.4c.12,3.61.91,7.37.86,11l2.55.29c.73-3.65,1.39-7.28,1.95-11,.28-1.85.54-3.7.75-5.59s.37-3.79.41-5.81l0-.36a64.28,64.28,0,0,0-1.55-8.9c-.68-2.87-1.5-5.66-2.36-8.43s-1.8-5.49-2.79-8.21-2-5.36-3.16-8.14Z" transform="translate(-37.88 -42.46)"/><path class="cls-16" d="M155.47,430.93s-1.14.09-1.05-1.4a8.35,8.35,0,0,1,.48-2.27,3.24,3.24,0,0,0,3.35.54h0a4.68,4.68,0,0,0,2.26.47c2.27-.09,2.55.83,2.61,1.34l.06.52A27.79,27.79,0,0,1,155.47,430.93Z" transform="translate(-37.88 -42.46)"/><path class="cls-46" d="M150,396.19c-1-2.1-2-4.18-3.11-6.25-1.27-2.4-2.62-4.77-4-7.12-.82-1.38-1.67-2.78-2.52-4.14l7.27-7.53s2.67,1.61,5,3.39c.4,1,.79,2.1,1.18,3.16s.7,2,1,2.95A98,98,0,0,0,150,396.19Z" transform="translate(-37.88 -42.46)"/><path class="cls-18" d="M109.91,412.64a4.71,4.71,0,0,1,.38-3.81l2-.35-.34-1.82-2,.35a9.21,9.21,0,0,0-2.91.11c-1.45.32-1,1.4-1,1.4a28.06,28.06,0,0,0,2.87,7.19l.48-.2C109.81,415.31,110.61,414.79,109.91,412.64Z" transform="translate(-37.88 -42.46)"/><path class="cls-35" d="M124.18,402.11c2.25-.65,4.48-1.34,6.59-2.13,1.06-.39,2.09-.81,3-1.26a13.67,13.67,0,0,0,1.28-.69,4,4,0,0,0,.79-.59s0-.1-.2.11c0,0-.07.1-.08.11h0s0,0,0-.06l.08-.42c0-.12,0-.28.08-.44-.63-2.5-2.73-11.24-2.62-14.87a31.49,31.49,0,0,1,2.08-9.13l12.51-.22c-.29,5-.71,9.76-1.31,14.69-.31,2.45-.66,4.92-1.16,7.46-.26,1.27-.54,2.55-1,4-.13.37-.22.7-.38,1.11l-.23.59c-.09.21-.2.44-.3.66a7.59,7.59,0,0,1-.41.75l-.24.39c-.1.14-.24.32-.37.47a7.36,7.36,0,0,1-1.47,1.36,12.14,12.14,0,0,1-2.29,1.2,20.69,20.69,0,0,1-2,.72c-1.3.39-2.55.69-3.79.94-2.47.52-4.9.88-7.32,1.2-4.85.63-9.64,1-14.49,1.33l-.4-3.15C115.12,405.23,119.67,403.39,124.18,402.11Z" transform="translate(-37.88 -42.46)"/><path class="cls-16" d="M107,407.12a8.84,8.84,0,0,1,2.07-.17c-.06.73-.14,2.68.62,3.56a4.78,4.78,0,0,0,.19,2.13c.7,2.15-.1,2.67-.58,2.87l-.48.2a28.06,28.06,0,0,1-2.87-7.19S105.58,407.44,107,407.12Z" transform="translate(-37.88 -42.46)"/><path class="cls-47" d="M133.73,377.33a35.7,35.7,0,0,1,1.42-4.58l12.51-.22c-.29,5-.71,9.76-1.31,14.69-.31,2.45-.66,4.92-1.16,7.46-.26,1.27-.54,2.55-1,4-.13.37-.22.7-.38,1.11l-.23.59c-.09.21-.2.44-.3.66a7.59,7.59,0,0,1-.41.75l-.24.39c-.1.14-.24.32-.37.47a7.36,7.36,0,0,1-1.47,1.36c2.59-3.49,3.68-10.81,2.23-16.28C142,383.66,136.61,379.45,133.73,377.33Z" transform="translate(-37.88 -42.46)"/><path class="cls-29" d="M133.17,376.15a66.71,66.71,0,0,0,3.06-18c0-9,1.09-12.06,9.43-10.75,4.61.72,6.67,1.52,6.79,6.14,0,1.2-.35,4.78-.4,6-.07,2.15-.2,4.29-.12,6.45a41.47,41.47,0,0,0,2.61,11.87.85.85,0,0,1-.62,1.15c-1.11.17-3.68.47-6.79.74-5.19,0-11.56-2-13.54-2.69A.67.67,0,0,1,133.17,376.15Z" transform="translate(-37.88 -42.46)"/><path class="cls-18" d="M146.47,344.42a15,15,0,0,0-.12,2.12,2.07,2.07,0,0,0,.53,1.71.72.72,0,0,1,0,1.2,1.81,1.81,0,0,1-1.79.27,5.11,5.11,0,0,1-1.09-.56c-.41-.24-.79-.57-.69-1.09a18,18,0,0,1,.5-1.92,18.85,18.85,0,0,1,.86-2.71A2.58,2.58,0,0,1,146.47,344.42Z" transform="translate(-37.88 -42.46)"/><path class="cls-30" d="M133.18,376.15a65.68,65.68,0,0,0,3-17.16c.88-.46,1.46-.74,1.46-.74s-.38,18.35,16.85,20.12a.79.79,0,0,1-.61.56c-1.11.17-3.68.47-6.79.74-5.19,0-11.56-2-13.54-2.69A.66.66,0,0,1,133.18,376.15Z" transform="translate(-37.88 -42.46)"/><path class="cls-18" d="M133.66,366.29a1.07,1.07,0,0,1,.45-.23c.85-.16,1.24,1.09,1.64,1.74,1.2,1.9,2.45,3.78,3.74,5.62l.13,0a7.63,7.63,0,0,0,1.8.77c.62.1,1.8.77,1.05.8s-1.38-.13-1.32.07a8.31,8.31,0,0,1,1.52,2.35c.3,1.12-1.3.67-2.61-.14a4.54,4.54,0,0,1-1.58-2.88.38.38,0,0,1,0-.15c-1.61-1.41-3.19-2.86-4.71-4.38-.61-.61-1.26-1-1.11-2A3,3,0,0,1,133.66,366.29Z" transform="translate(-37.88 -42.46)"/><path class="cls-29" d="M144.77,352.32a4,4,0,0,1-.05.78,3.73,3.73,0,0,1-1,1.76,20.93,20.93,0,0,1-4.09,3.23c-.55.35-5.82,3.36-5.88,3.24l4.88,10.07a2.68,2.68,0,0,1-2.21,1.54c-1.47-.87-8.23-7.55-9.5-10.93s5.92-9.84,8.7-12.17c1.42-1.19,3.32-2.52,5.27-2.39S144.69,350.21,144.77,352.32Z" transform="translate(-37.88 -42.46)"/><path class="cls-30" d="M136.23,357.11c4.19-1.51,6.67-5.16,7.8-7.27a5.67,5.67,0,0,1,.74,2.48,4,4,0,0,1-.05.78,3.73,3.73,0,0,1-1,1.76,20.93,20.93,0,0,1-4.09,3.23c-.55.35-5.82,3.36-5.88,3.24l4.88,10.07,0,.05c-1.74-2.11-5.52-6.69-6.63-8.32C130.52,361,130.19,359.31,136.23,357.11Z" transform="translate(-37.88 -42.46)"/><path class="cls-21" d="M143.63,346.72c.06-.19.12-.38.17-.57a18.85,18.85,0,0,1,.86-2.71,2.58,2.58,0,0,1,1.81,1,15.19,15.19,0,0,0-.12,1.91A4,4,0,0,1,143.63,346.72Z" transform="translate(-37.88 -42.46)"/><path class="cls-18" d="M150.51,338.33c.05.26,1.06,5,0,6.73s-4.16,1.34-7.35-1.11-1.13-7.37,1.49-8.32S150.15,336.21,150.51,338.33Z" transform="translate(-37.88 -42.46)"/><path class="cls-29" d="M140.74,341.59s.55,4.15,4.57,3.71c-.62-1.27-2-2.57-1.82-3.48s1.13-.94,1.6,0c.36.51,1.09-.29.8-1.37s-.74-1.56-.43-2.24S141.34,339.08,140.74,341.59Z" transform="translate(-37.88 -42.46)"/><path class="cls-35" d="M146.75,338.14a62.93,62.93,0,0,0-6,3.45c-.14-2-.36-6.65,3.54-7.59,4.84-1.16,6,3.54,6,3.54A11.63,11.63,0,0,0,146.75,338.14Z" transform="translate(-37.88 -42.46)"/><path class="cls-16" d="M150.58,338.7a8.25,8.25,0,0,0-3.83-.56s.32-5.16,4.6-5C155.22,333.28,153.49,336.66,150.58,338.7Z" transform="translate(-37.88 -42.46)"/><path class="cls-37" d="M145.82,338.63a47.11,47.11,0,0,0-5.08,3,11.72,11.72,0,0,1,.45-4.79C141.35,337.37,142.16,338.94,145.82,338.63Z" transform="translate(-37.88 -42.46)"/><path class="cls-48" d="M256.12,403.53a.74.74,0,0,1-.71-.51l-16.09-47a.75.75,0,0,1,1.41-.49l16.1,47a.75.75,0,0,1-.47.95A.67.67,0,0,1,256.12,403.53Z" transform="translate(-37.88 -42.46)"/><path class="cls-48" d="M270.9,403.53a.73.73,0,0,1-.71-.51l-16.1-47a.75.75,0,0,1,.47-.95.74.74,0,0,1,.95.46l16.1,47a.75.75,0,0,1-.47.95A.67.67,0,0,1,270.9,403.53Z" transform="translate(-37.88 -42.46)"/><path class="cls-48" d="M268.89,397.68H254.18a.75.75,0,0,1,0-1.5h14.71a.75.75,0,0,1,0,1.5Z" transform="translate(-37.88 -42.46)"/><path class="cls-48" d="M266.54,390.82H251.83a.75.75,0,1,1,0-1.5h14.71a.75.75,0,0,1,0,1.5Z" transform="translate(-37.88 -42.46)"/><path class="cls-48" d="M264.2,384H249.48a.75.75,0,1,1,0-1.5H264.2a.75.75,0,0,1,0,1.5Z" transform="translate(-37.88 -42.46)"/><path class="cls-48" d="M261.85,377.09H247.14a.75.75,0,0,1,0-1.5h14.71a.75.75,0,0,1,0,1.5Z" transform="translate(-37.88 -42.46)"/><path class="cls-48" d="M259.5,370.23H244.79a.75.75,0,1,1,0-1.5H259.5a.75.75,0,0,1,0,1.5Z" transform="translate(-37.88 -42.46)"/><path class="cls-48" d="M257.15,363.37H242.44a.75.75,0,1,1,0-1.5h14.71a.75.75,0,0,1,0,1.5Z" transform="translate(-37.88 -42.46)"/><path class="cls-48" d="M207.17,403.53a.67.67,0,0,1-.24,0,.74.74,0,0,1-.47-.95l16.09-47a.74.74,0,0,1,.95-.46.75.75,0,0,1,.47.95l-16.09,47A.75.75,0,0,1,207.17,403.53Z" transform="translate(-37.88 -42.46)"/><path class="cls-48" d="M192.39,403.53a.67.67,0,0,1-.24,0,.75.75,0,0,1-.47-.95l16.09-47a.75.75,0,0,1,1.42.49L193.1,403A.75.75,0,0,1,192.39,403.53Z" transform="translate(-37.88 -42.46)"/><path class="cls-48" d="M209.1,397.68H194.39a.75.75,0,1,1,0-1.5H209.1a.75.75,0,0,1,0,1.5Z" transform="translate(-37.88 -42.46)"/><path class="cls-48" d="M211.45,390.82H196.74a.75.75,0,1,1,0-1.5h14.71a.75.75,0,0,1,0,1.5Z" transform="translate(-37.88 -42.46)"/><path class="cls-48" d="M213.8,384H199.09a.75.75,0,1,1,0-1.5H213.8a.75.75,0,0,1,0,1.5Z" transform="translate(-37.88 -42.46)"/><path class="cls-48" d="M216.15,377.09H201.44a.75.75,0,0,1,0-1.5h14.71a.75.75,0,1,1,0,1.5Z" transform="translate(-37.88 -42.46)"/><path class="cls-48" d="M218.5,370.23H203.78a.75.75,0,1,1,0-1.5H218.5a.75.75,0,0,1,0,1.5Z" transform="translate(-37.88 -42.46)"/><path class="cls-48" d="M220.84,363.37H206.13a.75.75,0,0,1,0-1.5h14.71a.75.75,0,1,1,0,1.5Z" transform="translate(-37.88 -42.46)"/><path class="cls-28" d="M256.31,354.42H207.19a1.33,1.33,0,1,0,0,2.66h49.12a1.33,1.33,0,1,0,0-2.66Z" transform="translate(-37.88 -42.46)"/><path class="cls-18" d="M300.64,391.83a15.26,15.26,0,0,1-3,.08,7,7,0,0,0,2-.75c.22-.3-.71-.14-1.56-.07s-3,.15-3,.15c-2.63-.87-5.2-2.14-7.72-3.23a35.54,35.54,0,0,1-3.61-1.75,10.4,10.4,0,0,1-1.47-1c-.46-.4-.23-.28-.57-.9-.5-1.09-1-2.4-1.45-3.68s-.9-2.61-1.34-3.93c-.48-1.48-1-3-1.43-4.47a3.42,3.42,0,1,0-6.33,2.55c.71,1.43,1.42,2.85,2.15,4.28.65,1.27,1.32,2.53,2,3.8s1.38,2.51,2.27,3.86c.1.16.26.37.39.55l.21.27c.08.1.23.26.34.38a6.27,6.27,0,0,0,1.29,1,14.79,14.79,0,0,0,2.23,1,42.94,42.94,0,0,0,4.24,1.25c2.81.68,5.59,1.2,8.41,1.65h0c2.06,1.76,3.64,1.11,5.18.44S301.54,391.62,300.64,391.83Z" transform="translate(-37.88 -42.46)"/><path class="cls-21" d="M290.64,392.16c-.07,0-6.06-2.18-6.79-3.79a14.09,14.09,0,0,1-.71-2.47,8.61,8.61,0,0,1-.87-.62c-.46-.4-.23-.28-.57-.9-.5-1.09-1-2.4-1.45-3.68s-.9-2.61-1.34-3.93c-.48-1.48-1-3-1.43-4.47a3.42,3.42,0,1,0-6.33,2.55c.71,1.43,1.42,2.85,2.15,4.28.65,1.27,1.32,2.53,2,3.8s1.38,2.51,2.27,3.86c.1.16.26.37.39.55l.21.27c.08.1.23.26.34.38a6.27,6.27,0,0,0,1.29,1,14.79,14.79,0,0,0,2.23,1,42.94,42.94,0,0,0,4.24,1.25C287.74,391.57,289.19,391.88,290.64,392.16Z" transform="translate(-37.88 -42.46)"/><path class="cls-18" d="M255.74,446.68a7.26,7.26,0,0,1,1.19-2.89l-1.56-1.05a20.71,20.71,0,0,0-1.24,1.81,25.66,25.66,0,0,0-1.87,2.78,49,49,0,0,0,4.21,3.65,5.36,5.36,0,0,0,2.66,0c.25-.13,0-1-.86-1.17A3.84,3.84,0,0,1,255.74,446.68Z" transform="translate(-37.88 -42.46)"/><path class="cls-49" d="M266.79,391.9s-3.19,6.43-3,11.5,1.81,16.71,1.81,16.71a.76.76,0,0,1-.07.19l-.18.39-.37.78-1.49,3.11-3,6.22-6,12.44,2,1.19,7.82-11.37,3.91-5.68,1.95-2.85.49-.71.24-.35c.1-.15.24-.38.35-.58a8.55,8.55,0,0,0,.91-2.63l5.35-27.08Z" transform="translate(-37.88 -42.46)"/><path class="cls-29" d="M259.22,450.75a1.1,1.1,0,0,0-1-.94,3.52,3.52,0,0,1-1.74-1.26l-.31-.1c-1.28-.46-2.36-2.11-2.18-2.57.09-.22-.13-.47-.38-.67a11.94,11.94,0,0,0-1.4,2.12,49,49,0,0,0,4.21,3.65,5.36,5.36,0,0,0,2.66,0,.22.22,0,0,0,.09-.2Z" transform="translate(-37.88 -42.46)"/><path class="cls-50" d="M272,421.54a8.89,8.89,0,0,0,.33-1.28l4.81-24.36a2.19,2.19,0,0,0-.75-.42c-1.53-.46-6.91-2.68-9.67-3.42a31.17,31.17,0,0,0-2.83,9.73,28.19,28.19,0,0,0,5,8.65C271.24,413.13,272.12,418.26,272,421.54Z" transform="translate(-37.88 -42.46)"/><path class="cls-18" d="M284.26,447s0,2.36,1,2.85,3.07.07,4.32.9,1.25,1,.35,1.32a46.17,46.17,0,0,1-7.64.56,27.29,27.29,0,0,1,0-3.41,21.54,21.54,0,0,1,0-2.22Z" transform="translate(-37.88 -42.46)"/><path class="cls-16" d="M285.68,419.72c-.05-1.24-.09-2.45-.26-3.82s-.39-2.51-.62-3.73c-.47-2.39-1-4.72-1.58-7-1.15-4.63-2.39-9.15-3.73-13.74l-10.65,4.13s.57,7.7,2.38,11.89,7.06,9.91,7.39,11.46c.12.51.23,1,.33,1.56.84,4.39,1.41,9,1.92,13.62s.95,9.25,1.32,13.88l2.34,0c.4-4.67.53-9.33.79-14S285.78,424.58,285.68,419.72Z" transform="translate(-37.88 -42.46)"/><path class="cls-29" d="M289.62,450.7a4.27,4.27,0,0,0-2-.56,2.17,2.17,0,0,1-1.15.63c-1.34.22-3.06-.53-3.19-1-.08-.31-.61-.34-1-.31a17,17,0,0,0,0,3.12A46.17,46.17,0,0,0,290,452C290.87,451.67,290.87,451.53,289.62,450.7Z" transform="translate(-37.88 -42.46)"/><path class="cls-27" d="M282.25,409.7c2,5.89,3.37,17,3.38,17.08.07-2.32.1-4.67.05-7.06-.05-1.24-.09-2.45-.26-3.82s-.39-2.51-.62-3.73c-.47-2.39-1-4.72-1.58-7-1.15-4.63-2.39-9.15-3.73-13.74l-10.65,4.13s.18,2.38.64,5.21C272.49,401.89,279.61,403.75,282.25,409.7Z" transform="translate(-37.88 -42.46)"/><path class="cls-18" d="M278.89,355.85c.06.29,1.46,5.65.35,7.62s-4.64,1.73-8.38-.87-1.67-8.28,1.25-9.5S278.37,353.47,278.89,355.85Z" transform="translate(-37.88 -42.46)"/><path class="cls-18" d="M272.24,362.77s-.74,4-1.83,5.5c1.83.1,4.14.36,4.87-.29s-.69-3.14-.44-5.4C273.79,361.76,272.24,362.77,272.24,362.77Z" transform="translate(-37.88 -42.46)"/><path class="cls-29" d="M267.27,368.87a9.42,9.42,0,0,0-1,5.16c.37,3.38.91,6.93.35,10.31-.93,5.51-2.77,12.35-2.77,12.35a27.17,27.17,0,0,0,8.51,1.35,32.17,32.17,0,0,0,9.86-1.27s-4.27-9.41-3.39-16c.39-2.54,2.55-3.1,2.86-5.61.45-3.69-2.2-6-5.62-8.34-2-1.37-4.37-.68-6.7.1A4,4,0,0,0,267.27,368.87Z" transform="translate(-37.88 -42.46)"/><path class="cls-30" d="M281.09,393.85c-9.45-1.08-13-6.55-14.27-11,0,.51-.09,1-.17,1.51-.93,5.51-2.77,12.35-2.77,12.35a27.17,27.17,0,0,0,8.51,1.35,32.17,32.17,0,0,0,9.86-1.27S281.73,395.61,281.09,393.85Z" transform="translate(-37.88 -42.46)"/><path class="cls-18" d="M291.91,403.31a15.34,15.34,0,0,1-2.83-1,6.92,6.92,0,0,0,2.08,0c.32-.21-.61-.38-1.43-.6s-2.55-1-2.55-1c-2.09-2.2-4.13-4.48-6.05-6.81q-1.45-1.74-2.75-3.54a20.76,20.76,0,0,1-2.15-3.53l-.17-.4a1.77,1.77,0,0,1-.06-.28,4.67,4.67,0,0,1-.11-.76c-.05-.63-.07-1.33-.08-2,0-1.44.05-2.92.13-4.41.1-1.67.23-3.38.39-5.07a3.67,3.67,0,1,0-7.32-.09c.14,1.78.3,3.55.49,5.35.17,1.57.37,3.14.65,4.76.15.81.31,1.63.54,2.51a8.26,8.26,0,0,0,.49,1.45c.12.26.24.54.36.77l.39.61a25.46,25.46,0,0,0,3.29,3.84q1.71,1.68,3.48,3.21c2.36,2.05,4.77,4,7.25,5.84,1.33,2.41,3,2.34,4.73,2.25S292.83,403.43,291.91,403.31Z" transform="translate(-37.88 -42.46)"/><path class="cls-21" d="M272,380.31c.07-3.74,2.65-6.61,4.12-7.95a3.67,3.67,0,0,0-7.12,1.47c.14,1.78.3,3.55.49,5.35.17,1.57.37,3.14.65,4.76.15.81.31,1.63.54,2.51a8.26,8.26,0,0,0,.49,1.45c.12.26.24.54.36.77l.39.61a25.46,25.46,0,0,0,3.29,3.84C273.31,390.34,271.92,385.53,272,380.31Z" transform="translate(-37.88 -42.46)"/><path class="cls-39" d="M280.57,355.11a4.78,4.78,0,0,1-4,2.78c-1-.05-1.43.23-1.66,1.44s-.55,1.33-.88.41-1.18-1.94-1.87-1.61-1.4,2.3-.24,2.93c.8.44,1.16,2.33,1.5,3.13a7.36,7.36,0,0,0,1.23,2.05c.45.49,1.23.95,1.47,1.6a1.86,1.86,0,0,1-.77,1.87c-2.06,1.83-5,2.22-7.63,2-1.86-.18-6.09-.66-5.58-3.41a8.6,8.6,0,0,1,1.58-2.93,11.49,11.49,0,0,0,1.95-5.17c.15-1.39-.06-2.79.11-4.19.34-2.76,1.76-5.26,4.67-5.81C274.92,349.29,279.48,350.75,280.57,355.11Z" transform="translate(-37.88 -42.46)"/><path class="cls-43" d="M280,356h0s-3.92,1.11-7,0a2.8,2.8,0,0,0-3.95,3.11c.33,1.23-1.51,5.06-3.66,2.53a12,12,0,0,1-1.66,3.65,8.6,8.6,0,0,0-1.58,2.93c-.51,2.75,3.72,3.23,5.58,3.41,2.65.26,5.57-.13,7.63-2a1.86,1.86,0,0,0,.77-1.87c-.24-.65-1-1.11-1.47-1.6a7.36,7.36,0,0,1-1.23-2.05c-.34-.8-.7-2.69-1.5-3.13-1.16-.63-.45-2.6.24-2.93s1.54.68,1.87,1.61.65.8.88-.41.63-1.49,1.66-1.44A4.41,4.41,0,0,0,280,356Z" transform="translate(-37.88 -42.46)"/><g class="cls-7"><polygon class="cls-8" points="256.33 59.21 250.39 65.99 336.06 150.86 342.01 144.08 256.33 59.21"/><polygon class="cls-8" points="288.67 204.92 294.62 198.14 208.94 113.27 203 120.05 288.67 204.92"/><path class="cls-8" d="M280.4,117.42l-7,8a18.3,18.3,0,0,1,15.24,29.78l63.55,63,13.87-15.82Z" transform="translate(-37.88 -42.46)"/></g><path class="cls-6" d="M398.07,123.07a13.09,13.09,0,0,0-1.46-3.51l5.12-5.11-4.36-4.35-5.11,5.11a12.69,12.69,0,0,0-3.5-1.45v-7.23H382.6v7.23a12.69,12.69,0,0,0-3.5,1.45L374,110.1l-4.36,4.35,5.12,5.11a13.09,13.09,0,0,0-1.46,3.51h-7.23v6.15h7.23a12.89,12.89,0,0,0,1.46,3.5l-5.12,5.12,4.36,4.35,5.11-5.12a12.71,12.71,0,0,0,3.5,1.46v7.23h6.16v-7.23a12.69,12.69,0,0,0,3.5-1.45l5.11,5.11,4.36-4.35-5.12-5.12a12.89,12.89,0,0,0,1.46-3.5h7.23v-6.15Zm-6.82-.29a6.47,6.47,0,0,1-8.94,8.94,6.67,6.67,0,0,1-2.19-2.2,6.51,6.51,0,1,1,11.13-6.74Z" transform="translate(-37.88 -42.46)"/><path class="cls-10" d="M266.65,91.82a9,9,0,0,0-1-2.44l3.55-3.55-3-3-3.56,3.56a8.45,8.45,0,0,0-2.44-1v-5h-4.28v5a8.55,8.55,0,0,0-2.43,1L249.9,82.8l-3,3,3.56,3.55a8.74,8.74,0,0,0-1,2.44h-5V96.1h5a8.74,8.74,0,0,0,1,2.44l-3.56,3.55,3,3,3.56-3.56a8.57,8.57,0,0,0,2.43,1v5h4.28v-5a8.76,8.76,0,0,0,2.44-1l3.56,3.56,3-3-3.55-3.55a9,9,0,0,0,1-2.44h5V91.82Zm-4.74-.2a4.51,4.51,0,0,1-6.22,6.22,4.66,4.66,0,0,1-1.53-1.53,4.5,4.5,0,0,1,6.22-6.22A4.66,4.66,0,0,1,261.91,91.62Z" transform="translate(-37.88 -42.46)"/><path class="cls-5" d="M66.85,253.61a10.1,10.1,0,0,0-1.16-2.79l4.08-4.08-3.48-3.48-4.08,4.09a10.12,10.12,0,0,0-2.79-1.17v-5.77H54.51v5.77a10.18,10.18,0,0,0-2.8,1.17l-4.08-4.09-3.47,3.48,4.08,4.08a10.23,10.23,0,0,0-1.16,2.79H41.31v4.92h5.77a10.23,10.23,0,0,0,1.16,2.79l-4.08,4.08,3.47,3.48,4.08-4.09a9.86,9.86,0,0,0,2.8,1.16v5.77h4.91V266a9.8,9.8,0,0,0,2.79-1.16l4.08,4.09,3.48-3.48-4.08-4.08a10.23,10.23,0,0,0,1.16-2.79h5.77v-4.92Zm-5.44-.23a5.17,5.17,0,0,1-7.13,7.14,5.29,5.29,0,0,1-1.76-1.76,5.16,5.16,0,0,1,7.14-7.13A5.23,5.23,0,0,1,61.41,253.38Z" transform="translate(-37.88 -42.46)"/><path class="cls-5" d="M429,212.65a15.23,15.23,0,1,1,15.23-15.23A15.25,15.25,0,0,1,429,212.65Zm0-25a9.74,9.74,0,1,0,9.74,9.74A9.75,9.75,0,0,0,429,187.68Z" transform="translate(-37.88 -42.46)"/><path class="cls-2" d="M126.77,147.5A15.23,15.23,0,1,1,142,132.27,15.24,15.24,0,0,1,126.77,147.5Zm0-25a9.74,9.74,0,1,0,9.74,9.74A9.75,9.75,0,0,0,126.77,122.53Z" transform="translate(-37.88 -42.46)"/></g></g></svg>