<svg xmlns="http://www.w3.org/2000/svg" xmlns:xlink="http://www.w3.org/1999/xlink" viewBox="0 0 566.58 402.65"><defs><style>.cls-1,.cls-45{fill:none;}.cls-2,.cls-38{fill:#eb1478;}.cls-3{isolation:isolate;}.cls-4{fill:#c2f4ff;}.cls-34,.cls-5{fill:#24dddd;}.cls-6{fill:#fff;}.cls-7{clip-path:url(#clip-path);}.cls-8{fill:#32d2fb;}.cls-29,.cls-32,.cls-9{fill:#3d239b;}.cls-10,.cls-26{fill:#f9d5be;}.cls-11{fill:#dbbba9;}.cls-11,.cls-16,.cls-26{opacity:0.55;}.cls-11,.cls-15,.cls-16,.cls-21,.cls-26,.cls-29,.cls-32,.cls-34,.cls-35,.cls-37,.cls-38,.cls-39,.cls-41,.cls-44,.cls-49,.cls-53,.cls-54{mix-blend-mode:multiply;}.cls-12{clip-path:url(#clip-path-2);}.cls-13{fill:#eb1479;}.cls-14,.cls-35,.cls-44{fill:#003abc;}.cls-15{fill:#c69e89;}.cls-15,.cls-35,.cls-41,.cls-49{opacity:0.35;}.cls-16{fill:#ccc;}.cls-17,.cls-21,.cls-39{fill:#ffd2f2;}.cls-18{clip-path:url(#clip-path-3);}.cls-19{fill:#2f7bea;}.cls-20{fill:#e82386;}.cls-21{opacity:0.4;}.cls-22{clip-path:url(#clip-path-4);}.cls-23{fill:#ff61bb;}.cls-24,.cls-37{fill:#6150e2;}.cls-25{clip-path:url(#clip-path-5);}.cls-27{fill:#2494c6;}.cls-28{fill:#d7f7ff;}.cls-29,.cls-38,.cls-44{opacity:0.5;}.cls-30{clip-path:url(#clip-path-6);}.cls-31{fill:#bababa;}.cls-33{clip-path:url(#clip-path-7);}.cls-36{clip-path:url(#clip-path-8);}.cls-37{opacity:0.25;}.cls-40{clip-path:url(#clip-path-9);}.cls-41{fill:#54433c;}.cls-42{clip-path:url(#clip-path-10);}.cls-43{clip-path:url(#clip-path-11);}.cls-45{stroke:#003187;stroke-linecap:round;stroke-miterlimit:10;stroke-width:3px;stroke-dasharray:2 8;}.cls-46{clip-path:url(#clip-path-12);}.cls-47{clip-path:url(#clip-path-13);}.cls-48,.cls-49{fill:#009df7;}.cls-50{clip-path:url(#clip-path-14);}.cls-51{clip-path:url(#clip-path-15);}.cls-52,.cls-54{fill:#fcb23a;}.cls-53{fill:#e0982f;opacity:0.45;}.cls-54{opacity:0.15;}.cls-55{fill:#6ee0ff;}</style><clipPath id="clip-path" transform="translate(54.89 -12.45)"><path class="cls-1" d="M334.44,249.07A32.42,32.42,0,1,1,302,216.65a32.41,32.41,0,0,1,32.41,32.42"/></clipPath><clipPath id="clip-path-2" transform="translate(54.89 -12.45)"><ellipse class="cls-1" cx="374.98" cy="82.03" rx="32.36" ry="32.46"/></clipPath><clipPath id="clip-path-3" transform="translate(54.89 -12.45)"><ellipse class="cls-1" cx="10.5" cy="208.39" rx="21.61" ry="21.64"/></clipPath><clipPath id="clip-path-4" transform="translate(54.89 -12.45)"><ellipse class="cls-1" cx="103.06" cy="49.57" rx="21.61" ry="21.64"/></clipPath><clipPath id="clip-path-5" transform="translate(54.89 -12.45)"><ellipse class="cls-1" cx="450" cy="127.94" rx="21.57" ry="21.64"/></clipPath><clipPath id="clip-path-6" transform="translate(54.89 -12.45)"><path class="cls-2" d="M238.78,87.34a32.52,32.52,0,1,1,1.57-10,32.39,32.39,0,0,1-1.57,10"/></clipPath><clipPath id="clip-path-7" transform="translate(54.89 -12.45)"><circle class="cls-1" cx="27.3" cy="127.09" r="21.61"/></clipPath><clipPath id="clip-path-8" transform="translate(54.89 -12.45)"><circle class="cls-1" cx="271.77" cy="152.47" r="21.61"/></clipPath><clipPath id="clip-path-9" transform="translate(54.89 -12.45)"><ellipse class="cls-1" cx="374.33" cy="297.2" rx="21.57" ry="21.64"/></clipPath><clipPath id="clip-path-10" transform="translate(54.89 -12.45)"><ellipse class="cls-1" cx="123.59" cy="349.94" rx="32.41" ry="32.46"/></clipPath><clipPath id="clip-path-11" transform="translate(54.89 -12.45)"><ellipse class="cls-1" cx="235.91" cy="321.36" rx="21.57" ry="21.64"/></clipPath><clipPath id="clip-path-12" transform="translate(54.89 -12.45)"><circle class="cls-1" cx="210.24" cy="217.74" r="32.41"/></clipPath><clipPath id="clip-path-13" transform="translate(54.89 -12.45)"><circle class="cls-1" cx="111.17" cy="151.43" r="32.41"/></clipPath><clipPath id="clip-path-14" transform="translate(54.89 -12.45)"><ellipse class="cls-1" cx="390.74" cy="171.81" rx="21.61" ry="21.64"/></clipPath><clipPath id="clip-path-15" transform="translate(54.89 -12.45)"><ellipse class="cls-1" cx="109.13" cy="249.9" rx="21.61" ry="21.64"/></clipPath></defs><title>MindMap</title><g class="cls-3"><g id="Layer_2" data-name="Layer 2"><path class="cls-4" d="M237.37,124.52c-29.37-9-16.79-32.19-27-56.87s-30.53-45.86-56.09-53c-21.1-5.87-46.63-.29-58.76,18.08C80.38,55.74,89.8,90.46,71,110.51,53,129.75,21.39,123.11-3.34,132c-22.22,8-38,28.75-46,51.12-7.6,21.22-8.61,46.76,5,64.67,15.48,20.38,44.26,24.43,69.68,23,17.77-1,37.59-3.21,51.48,8,9.57,7.73,13.89,20.11,18.08,31.74Q105.22,339.33,118,367.1c6.41,13.92,13.69,28.16,25.9,37.33,14.43,10.83,34.06,12.89,51.53,8.57s31.11-72.2,45-83.76c21.35-17.79,97,32.83,124.82,34.93,32.35,2.44,72.24-23.67,74.53-44.65,2.95-27-19.05-61.86-33.64-83.23-15.38-22.51,8.64-26.81,19.58-28.9,26.6-5.07,45.82-32.65,45.16-59.94s-18.76-52.4-42.67-65.19S375.51,68,349.11,74s-50.75,19.06-73.35,34.09C264,116,251.5,124.72,237.37,124.52" transform="translate(54.89 -12.45)"/></g><g id="Layer_1" data-name="Layer 1"><path class="cls-5" d="M375.22,351a278.8,278.8,0,0,1,21.38-27.58,312.09,312.09,0,0,1,24.28-24.79,255.75,255.75,0,0,1,27-21.7l7.16-4.88,7.41-4.49,3.71-2.23,3.83-2,7.68-4a1.09,1.09,0,0,1,1.05,1.92l-.07,0-7.42,4.24-3.71,2.11L464,270l-7.13,4.7L450,279.78a250.16,250.16,0,0,0-25.76,22.36,307.48,307.48,0,0,0-22.91,25.24,275.24,275.24,0,0,0-19.74,27.53l-.08.13a3.72,3.72,0,1,1-6.32-3.91Z" transform="translate(54.89 -12.45)"/><path class="cls-5" d="M388.43,337.13a53.11,53.11,0,0,1,14-7.85,52.05,52.05,0,0,1,16.23-3.43,51.51,51.51,0,0,1,17.08,1.91,57.05,57.05,0,0,1,8.26,2.91c2.69,1.15,5.17,2.65,7.79,4a8.56,8.56,0,1,1-7.9,15.19,8.8,8.8,0,0,1-1.54-1l-.78-.66c-1.67-1.42-3.27-3.07-5.06-4.41a44.3,44.3,0,0,0-5.6-3.68,40.18,40.18,0,0,0-12.78-4.69A44.56,44.56,0,0,0,403.9,335a48.94,48.94,0,0,0-14.24,4l-.09,0a1.1,1.1,0,0,1-1.14-1.86Z" transform="translate(54.89 -12.45)"/><path class="cls-5" d="M392.76,335.3a48.1,48.1,0,0,0,4-14,47.1,47.1,0,0,0-.38-15,46.56,46.56,0,0,0-5.25-14.65,52.43,52.43,0,0,0-4.29-6.66c-1.58-2.14-3.41-4-5.17-6a7.75,7.75,0,1,0-11.72,10.13,7.4,7.4,0,0,0,1.23,1.15l.74.55c1.6,1.17,3.39,2.24,4.94,3.53a38.64,38.64,0,0,1,4.41,4.17,36.2,36.2,0,0,1,6.81,10.27,40.23,40.23,0,0,1,3.36,12.46,44.24,44.24,0,0,1-.53,13.38l0,.09a1,1,0,0,0,.79,1.17A1,1,0,0,0,392.76,335.3Z" transform="translate(54.89 -12.45)"/><path class="cls-5" d="M406.29,315a38.71,38.71,0,0,1,14.31-8.38,53.33,53.33,0,0,1,16.7-2.74l4.28.11c1.43.08,2.83.3,4.25.45a73.24,73.24,0,0,1,8.44,1.55c2.77.67,5.44,1.6,8.2,2.42l7.93,3.16a7.87,7.87,0,1,1-5.83,14.63,8,8,0,0,1-1.45-.76l-.45-.3-6.08-4.09c-2.11-1.14-4.21-2.44-6.39-3.5a64.15,64.15,0,0,0-6.71-2.79c-1.15-.38-2.3-.84-3.46-1.16l-3.54-.85a46.18,46.18,0,0,0-14.62-.73,35.22,35.22,0,0,0-14.13,4.62l-.13.08a1.1,1.1,0,0,1-1.5-.36A1.09,1.09,0,0,1,406.29,315Z" transform="translate(54.89 -12.45)"/><path class="cls-5" d="M428.58,292.64a22.2,22.2,0,0,1,6.18-4c1.09-.56,2.24-.9,3.38-1.36s2.32-.71,3.49-1A52.46,52.46,0,0,1,456.08,285a87,87,0,0,1,14.39,1.81c2.32.58,4.68,1.13,7,1.76l6.89,2.16a6.26,6.26,0,1,1-3.75,11.95,6.12,6.12,0,0,1-1.05-.44l-.3-.16L473.49,299c-2-.95-3.95-1.82-5.94-2.74a76.31,76.31,0,0,0-12.35-4A46.5,46.5,0,0,0,442.34,291c-1.08.05-2.15.19-3.23.29s-2.15.32-3.18.63a20.44,20.44,0,0,0-5.9,2.34l-.14.08a1.09,1.09,0,0,1-1.31-1.72Z" transform="translate(54.89 -12.45)"/><path class="cls-5" d="M453.71,273.91a44.79,44.79,0,0,1,8.39-1.73,55.66,55.66,0,0,1,8.79-.37,58.72,58.72,0,0,1,9,1,62.48,62.48,0,0,1,8.93,2.35c3,1,4.63,3.82,3.61,6.34s-4.28,3.76-7.3,2.77a6.73,6.73,0,0,1-1.36-.62l-.1-.07a49.25,49.25,0,0,0-6.43-3.45,47.37,47.37,0,0,0-7.16-2.54,50.51,50.51,0,0,0-7.73-1.48,45,45,0,0,0-7.94-.25h-.1a1.21,1.21,0,0,1-1.31-.93A1,1,0,0,1,453.71,273.91Z" transform="translate(54.89 -12.45)"/><path class="cls-5" d="M411.09,312.22a36.81,36.81,0,0,0,4.68-15.16,46.9,46.9,0,0,0-1.3-15.74l-1.1-3.81c-.41-1.26-.95-2.45-1.43-3.69a63.31,63.31,0,0,0-3.46-7.13c-1.3-2.3-2.82-4.44-4.25-6.68l-4.88-6.23c-2.48-3.17-7.33-3.66-10.83-1.09a7.05,7.05,0,0,0-.75,11.48l.4.32,5.34,4.31c1.58,1.58,3.32,3.1,4.84,4.77a53.14,53.14,0,0,1,4.26,5.23c.62.92,1.33,1.83,1.91,2.78l1.65,2.94a39.7,39.7,0,0,1,4.12,12.9,31.74,31.74,0,0,1-1.12,14l0,.13a1,1,0,0,0,.7,1.25A1.16,1.16,0,0,0,411.09,312.22Z" transform="translate(54.89 -12.45)"/><path class="cls-5" d="M434.44,291.65a21.75,21.75,0,0,0,2.84-6.41c.36-1.11.5-2.22.76-3.34s.31-2.24.39-3.36a44.89,44.89,0,0,0-1.15-13.3,71.88,71.88,0,0,0-4.16-12.58c-.95-2-1.87-4-2.87-5.94L427,241a6.17,6.17,0,0,0-8.33-2,5.86,5.86,0,0,0-2.7,7.95,6.48,6.48,0,0,0,.6.85l.21.24,4,4.55c1.24,1.56,2.42,3.17,3.65,4.77a64.78,64.78,0,0,1,5.94,10.29,39,39,0,0,1,3.39,11.32c.12,1,.17,2,.25,3s0,2-.08,3a18.71,18.71,0,0,1-1.31,5.82l-.06.14a.94.94,0,0,0,.6,1.28A1.18,1.18,0,0,0,434.44,291.65Z" transform="translate(54.89 -12.45)"/><path class="cls-5" d="M454.88,274.81a47.28,47.28,0,0,0,2.13-8.88,58.79,58.79,0,0,0,.63-9.34,59.93,59.93,0,0,0-.85-9.58,66.48,66.48,0,0,0-2.35-9.52c-1-3.22-4.08-5-6.88-3.94s-4.24,4.49-3.24,7.71a6.35,6.35,0,0,0,.65,1.45l.07.12a49.89,49.89,0,0,1,3.63,6.88,48.17,48.17,0,0,1,2.61,7.65,52,52,0,0,1,1.42,8.23,45,45,0,0,1,.07,8.44v.11a1.28,1.28,0,0,0,1,1.41A1.06,1.06,0,0,0,454.88,274.81Z" transform="translate(54.89 -12.45)"/><path class="cls-5" d="M470.64,265.27a39.76,39.76,0,0,0,2.85-7.33,48.74,48.74,0,0,0,1.63-7.9,51.57,51.57,0,0,0,.39-8.27,56.88,56.88,0,0,0-.89-8.4c-.48-2.86-2.9-4.73-5.41-4.16s-4.15,3.33-3.67,6.19a5.61,5.61,0,0,0,.39,1.32l.05.11a44.31,44.31,0,0,1,2.29,6.29A42.44,42.44,0,0,1,469.6,250a44,44,0,0,1,.26,7.19,40,40,0,0,1-.93,7.21l0,.09a1.09,1.09,0,0,0,.67,1.32A.9.9,0,0,0,470.64,265.27Z" transform="translate(54.89 -12.45)"/><path class="cls-5" d="M473.9,262.15a36.23,36.23,0,0,1,6.83-1.51,43.5,43.5,0,0,1,7.16-.35,45.71,45.71,0,0,1,7.32.77,50.37,50.37,0,0,1,7.25,1.93c2.45.81,3.76,3.19,2.93,5.31a5,5,0,0,1-7.05,1.86l-.09-.05a38.52,38.52,0,0,0-5.22-2.87,37.89,37.89,0,0,0-5.82-2.1,40.74,40.74,0,0,0-6.28-1.2,35,35,0,0,0-6.46-.16h-.08a1,1,0,0,1-1.07-.77A.82.82,0,0,1,473.9,262.15Z" transform="translate(54.89 -12.45)"/><path class="cls-5" d="M476.09,260.4a56.09,56.09,0,0,1,5.89-6.14,65.83,65.83,0,0,1,6.7-5.33,65.17,65.17,0,0,1,15.65-8l.05,0a5.48,5.48,0,0,1,3.67,10.32,5.92,5.92,0,0,1-1.41.3,56.46,56.46,0,0,0-14.92,3.21,58.56,58.56,0,0,0-7.25,3.14,51.41,51.41,0,0,0-6.82,4.11l-.06,0a1.1,1.1,0,0,1-1.5-1.59Z" transform="translate(54.89 -12.45)"/><path class="cls-2" d="M374.42,355.09a32.77,32.77,0,0,1-.15-4.31c.1-1.32.1-2.66.28-3.95.24-2.62.71-5.16,1.15-7.7a126.79,126.79,0,0,1,4-14.82c.79-2.42,1.59-4.84,2.55-7.19s1.76-4.77,2.82-7.07l3.06-6.95,3.34-6.81c1.08-2.29,2.26-4.52,3.49-6.73l3.61-6.65c2.56-4.34,5.12-8.69,7.75-13s5.43-8.49,8.23-12.67l8.63-12.38a1,1,0,0,1,1.35-.26,1,1,0,0,1,.26,1.31l0,0-8.07,12.66c-2.62,4.26-5.1,8.6-7.65,12.89s-4.79,8.76-7.14,13.15l-3.29,6.71c-1.12,2.22-2.19,4.46-3.16,6.75l-3,6.81-2.7,6.91c-.95,2.29-1.65,4.65-2.47,7s-1.51,4.68-2.17,7a122.78,122.78,0,0,0-3.21,14.24c-.31,2.38-.65,4.76-.76,7.11-.12,1.19-.06,2.34-.11,3.5a28.78,28.78,0,0,0,.21,3.12l0,.19a3.53,3.53,0,0,1-2.87,4,3.38,3.38,0,0,1-4-2.79S374.43,355.14,374.42,355.09Z" transform="translate(54.89 -12.45)"/><path class="cls-2" d="M408.41,267.1a36.24,36.24,0,0,1,6.16-4,43.48,43.48,0,0,1,6.77-2.86,44.43,44.43,0,0,1,7.26-1.76,49.8,49.8,0,0,1,7.54-.61,4.15,4.15,0,0,1,4.25,4.16,4.35,4.35,0,0,1-4.25,4.33,4.2,4.2,0,0,1-.95-.09l-.12,0a41.84,41.84,0,0,0-6.26-1,39,39,0,0,0-6.48,0,40,40,0,0,0-6.53,1.11,33.88,33.88,0,0,0-6.3,2.23l-.08,0a1,1,0,0,1-1.28-.44A1,1,0,0,1,408.41,267.1Z" transform="translate(54.89 -12.45)"/><path class="cls-2" d="M396.29,288.19a55.39,55.39,0,0,1,9-5.7,71,71,0,0,1,9.86-4.19,73.89,73.89,0,0,1,10.47-2.75,81.91,81.91,0,0,1,10.86-1.29,5.29,5.29,0,0,1,5.67,5.06,5.55,5.55,0,0,1-5.17,5.76,5.39,5.39,0,0,1-1.14-.05l-.15,0a72.93,72.93,0,0,0-9.51-.93,67.5,67.5,0,0,0-9.72.4,66.75,66.75,0,0,0-9.71,1.86,51.73,51.73,0,0,0-9.37,3.44l-.07,0a1,1,0,0,1-1.29-.43A1,1,0,0,1,396.29,288.19Z" transform="translate(54.89 -12.45)"/><path class="cls-2" d="M386.29,311.74a53,53,0,0,1,10-6.93,55.36,55.36,0,0,1,11.39-4.65,54,54,0,0,1,6.1-1.41,55.16,55.16,0,0,1,19,.33,4.77,4.77,0,0,1,3.89,5.6,5,5,0,0,1-5.69,4,6.69,6.69,0,0,1-.77-.2l-.26-.09a46,46,0,0,0-10.32-2.64,48.5,48.5,0,0,0-5.42-.43,51.32,51.32,0,0,0-5.52.3,52,52,0,0,0-21.46,7.26l-.05,0a.73.73,0,0,1-1-.23A.74.74,0,0,1,386.29,311.74Z" transform="translate(54.89 -12.45)"/><path class="cls-2" d="M421.74,247.78c1.72-3.79,3.52-7.52,5.51-11.23,1-1.85,2-3.69,3.15-5.52a44,44,0,0,1,3.9-5.51l.09-.11a4,4,0,1,1,6.1,5.16,4.24,4.24,0,0,1-.77.7,36.06,36.06,0,0,0-4.26,3.7c-1.42,1.38-2.81,2.86-4.16,4.37-2.73,3-5.36,6.19-7.9,9.41h0a1,1,0,0,1-1.37.18A1,1,0,0,1,421.74,247.78Z" transform="translate(54.89 -12.45)"/><path class="cls-2" d="M378.28,334.46a22.27,22.27,0,0,1,8.17-7.14,31.68,31.68,0,0,1,10.45-3.27,46.87,46.87,0,0,1,10.91-.15c1.78.24,3.56.5,5.34.8l5.23,1.22a5.74,5.74,0,0,1,4.25,7,5.92,5.92,0,0,1-8.4,3.93l-.31-.16-4-2.05L405.7,333a37.89,37.89,0,0,0-8.69-2,25.28,25.28,0,0,0-8.91.59,19.11,19.11,0,0,0-8,4.18l-.14.13a1.12,1.12,0,0,1-1.58-.05A1.1,1.1,0,0,1,378.28,334.46Z" transform="translate(54.89 -12.45)"/><path class="cls-2" d="M413.89,258.43a31.45,31.45,0,0,0-2-6,36.49,36.49,0,0,0-3-5.48,34.8,34.8,0,0,0-3.75-4.81,38.13,38.13,0,0,0-4.38-4.07l-.07-.05a4.23,4.23,0,0,1-.52-6,4.29,4.29,0,0,1,6-.63,4.88,4.88,0,0,1,.7.74,45.49,45.49,0,0,1,3.89,6,42.4,42.4,0,0,1,4.51,13.21,33.65,33.65,0,0,1,.48,6.9,1,1,0,0,1-1,.95.94.94,0,0,1-.91-.75Z" transform="translate(54.89 -12.45)"/><path class="cls-2" d="M401.83,280.59a46.94,46.94,0,0,0-4.19-8.39,59.19,59.19,0,0,0-5.48-7.51,60.82,60.82,0,0,0-6.45-6.49,66.85,66.85,0,0,0-7.19-5.44l-.1-.07a5.37,5.37,0,0,1-1.35-7.52,5.48,5.48,0,0,1,7.56-1.5,5.27,5.27,0,0,1,.91.78,75.71,75.71,0,0,1,6.61,8,68.33,68.33,0,0,1,5.34,8.7,65.52,65.52,0,0,1,3.93,9.28,51.09,51.09,0,0,1,2.31,9.77,1,1,0,0,1-.85,1.1,1,1,0,0,1-1-.61Z" transform="translate(54.89 -12.45)"/><path class="cls-2" d="M390.55,302.31a41.64,41.64,0,0,0-10.05-15.78,34.2,34.2,0,0,0-7.12-5.45,37.32,37.32,0,0,0-8-3.45l-.2-.07a5.74,5.74,0,0,1-3.58-7.4,6,6,0,0,1,7.48-3.72,6.45,6.45,0,0,1,1.27.6,47.4,47.4,0,0,1,8.77,6.83,41.66,41.66,0,0,1,6.67,8.5,45.29,45.29,0,0,1,4.38,9.53A43.34,43.34,0,0,1,392.3,302a.9.9,0,0,1-.81,1,.88.88,0,0,1-.91-.58Z" transform="translate(54.89 -12.45)"/><path class="cls-2" d="M381.4,323.41a16.8,16.8,0,0,0-3.65-7.33,22.49,22.49,0,0,0-6.31-5.14,35.06,35.06,0,0,0-7.6-3.1l-4.07-.93-4.15-.6-.29,0a4.93,4.93,0,0,1-4.15-5.7A5.15,5.15,0,0,1,357,296.3a5.54,5.54,0,0,1,1.08.29l4.55,1.75c1.49.69,3,1.4,4.42,2.13a41.33,41.33,0,0,1,8.05,5.67,27.34,27.34,0,0,1,6,7.76,19.42,19.42,0,0,1,2.24,9.49,1,1,0,0,1-1,.94.94.94,0,0,1-.91-.77Z" transform="translate(54.89 -12.45)"/><circle class="cls-6" cx="302.03" cy="249.07" r="35.29" transform="translate(-14.64 359.92) rotate(-57.87)"/><g class="cls-7"><circle class="cls-8" cx="356.91" cy="236.61" r="32.41"/><ellipse class="cls-9" cx="356.91" cy="222.46" rx="13.71" ry="11.23"/><ellipse class="cls-9" cx="356.91" cy="240.24" rx="13.71" ry="11.23"/><path class="cls-10" d="M325.12,265.66c-.25-4.84-7.33-5.8-12.82-6.69-2.93-.48-3.85-3.53-4.08-6.26-1.86,1.72-4.25,3.48-6.15,3.48s-4.29-1.77-6.16-3.49c-.23,2.73-1.14,5.79-4.08,6.27-5.49.89-12.57,1.85-12.82,6.69s-.13,17.64-.13,17.64h46.37S325.38,270.51,325.12,265.66Z" transform="translate(54.89 -12.45)"/><path class="cls-10" d="M308.22,252.71c0-.46-.06-.91-.07-1.33H296c0,.42,0,.87-.07,1.32,1.87,1.72,4.28,3.49,6.16,3.49S306.36,254.43,308.22,252.71Z" transform="translate(54.89 -12.45)"/><path class="cls-11" d="M308.22,252.71c0-.46-.06-.91-.07-1.33H296c0,.42,0,.87-.07,1.32,1.87,1.72,4.28,3.49,6.16,3.49S306.36,254.43,308.22,252.71Z" transform="translate(54.89 -12.45)"/><path class="cls-10" d="M310.21,249.14a15,15,0,0,0,1.52-3.77,1.31,1.31,0,0,0,.23-.06c2.81-1.05,3.29-6.93,2.33-7.27a1.53,1.53,0,0,0-1.6.61c0-.6,0-1.06,0-1.31a10.64,10.64,0,1,0-21.25,0c0,.25,0,.71,0,1.31a1.53,1.53,0,0,0-1.6-.61c-1,.34-.48,6.22,2.34,7.27a1,1,0,0,0,.23.06,14.24,14.24,0,0,0,1.52,3.77c.76,1.26,5.19,6.19,8.14,6.19s7.37-4.93,8.14-6.19" transform="translate(54.89 -12.45)"/><path class="cls-9" d="M302.35,225h-.67c-10.27,0-11.49,6.67-11.48,9.06s-.64,4.39,2.44,4.39c3.79,0,8.38-4.13,9.38-8.34,1.1,4.08,5.84,8.21,9.25,8.21,2.92,0,2-1.3,2-3.71S312.62,225,302.35,225Z" transform="translate(54.89 -12.45)"/><path class="cls-6" d="M325.12,265.66c-.25-4.84-7.33-5.8-12.82-6.69a4.32,4.32,0,0,1-3.29-2.78l-.79,1a7.9,7.9,0,0,1-12.34,0l-.76-1a4.3,4.3,0,0,1-3.29,2.78c-5.49.89-12.57,1.85-12.82,6.69s-.13,17.64-.13,17.64h46.37S325.38,270.51,325.12,265.66Z" transform="translate(54.89 -12.45)"/><path class="cls-2" d="M325.12,265.66c-.25-4.84-7.33-5.8-12.82-6.69a4.32,4.32,0,0,1-3.29-2.78c.14-.07.54,4.6-.79,7.05a7,7,0,0,1-6.19,4.07,6.7,6.7,0,0,1-6.24-4.62c-1.58-4-.67-6.47-.65-6.4l0-.1a4.3,4.3,0,0,1-3.29,2.78c-5.49.89-12.57,1.85-12.82,6.69s-.13,17.64-.13,17.64h46.37S325.38,270.51,325.12,265.66Z" transform="translate(54.89 -12.45)"/></g><ellipse class="cls-6" cx="429.87" cy="69.57" rx="35.23" ry="35.29"/><g class="cls-12"><ellipse class="cls-13" cx="429.87" cy="69.57" rx="32.36" ry="32.46"/><path class="cls-14" d="M387.05,69.18c0,3.23-1,5.36-1.53,5.52C383.73,75.2,380,67,375,67h0c-5.06,0-8.75,8.23-10.54,7.73-.56-.16-1.51-2.43-1.51-5.66,0-3.68.27-9.26,4.09-9,0,0-.25-3.13,5.47-3.33,4-.14,8.05.28,10.48,1.65C386.11,60.16,387.12,63.63,387.05,69.18Z" transform="translate(54.89 -12.45)"/><path class="cls-10" d="M352.34,101c.25-4.85,7-6.1,12.44-7,2.92-.48,3.84-3.52,4.07-6.26,1.85,1.73,4.23,3.48,6.13,3.48s4.27-1.76,6.13-3.49c.23,2.74,1.14,5.79,4.07,6.27,5.46.89,12.11,2.45,12.36,7.29s.54,16.63.54,16.63h-46.2S352.08,105.83,352.34,101Z" transform="translate(54.89 -12.45)"/><path class="cls-6" d="M352.34,101c.25-4.85,7-6.1,12.44-7,2.92-.48,8.3,2.46,10.2,2.46s7.27-2.94,10.2-2.46c5.46.89,11.81,2.14,12.06,7s.84,16.93.84,16.93h-46.2S352.08,105.83,352.34,101Z" transform="translate(54.89 -12.45)"/><path class="cls-10" d="M368.85,87.74c0-.45.06-.9.06-1.33H381c0,.42,0,.87.07,1.32-1.86,1.73-4.26,3.49-6.13,3.49S370.7,89.47,368.85,87.74Z" transform="translate(54.89 -12.45)"/><path class="cls-15" d="M368.85,87.74c0-.45.06-.9.06-1.33H381c0,.42,0,.87.07,1.32-1.86,1.73-4.26,3.49-6.13,3.49S370.7,89.47,368.85,87.74Z" transform="translate(54.89 -12.45)"/><path class="cls-10" d="M362.8,73.09a1.52,1.52,0,0,1,1.59.6c0-.6,0-1.06,0-1.3a10.61,10.61,0,1,1,21.17,0,12.61,12.61,0,0,1,0,1.3,1.51,1.51,0,0,1,1.58-.6c1,.33.49,6.21-2.32,7.26l-.23.06a14.57,14.57,0,0,1-1.51,3.77c-.76,1.26-5.17,6.18-8.11,6.18s-7.35-4.92-8.11-6.18a14.57,14.57,0,0,1-1.51-3.77l-.23-.06C362.32,79.3,361.84,73.42,362.8,73.09Z" transform="translate(54.89 -12.45)"/><path class="cls-14" d="M375.34,58.4c-9.32,0-12.72,6.79-12.39,12.32a28.58,28.58,0,0,0,1.21,5.76c.12.17.58.07.53-.23A14.42,14.42,0,0,1,368.3,65c3.11-3.09,11.09,6.33,16.08,3.89a13.84,13.84,0,0,1,1,7.41c-.05.3.41.4.53.23a26.8,26.8,0,0,0,1.17-6.23C387.05,67.79,385.91,58.4,375.34,58.4Z" transform="translate(54.89 -12.45)"/><polygon class="cls-9" points="432.37 83.65 427.38 83.65 428.86 87.02 428.15 105.47 431.54 105.47 430.78 87.02 432.37 83.65"/><polygon class="cls-16" points="436.53 78.24 429.83 83.54 423.2 78.24 420.09 81.48 423.33 87.84 429.87 84.27 436.4 87.84 439.64 81.48 436.53 78.24"/><polygon class="cls-6" points="436.53 78.24 429.83 83.08 423.2 78.24 419.96 80.67 423.54 87.25 429.85 83.54 436.19 87.25 439.77 80.67 436.53 78.24"/><path class="cls-17" d="M352,100.69c.25-4.85,8.16-6.1,13.63-7L375,111.78l9.4-18.21c5.47.89,13.31,2.27,13.56,7.12s.13,17.23.13,17.23h-46.2S351.75,105.53,352,100.69Z" transform="translate(54.89 -12.45)"/><polygon class="cls-17" points="416.5 82.7 420.37 80.23 429.88 99.33 429.87 105.47 426.74 105.44 418.29 88.89 419.96 87.25 416.5 82.7"/><polygon class="cls-17" points="443.25 82.7 439.38 80.23 429.88 99.33 429.89 105.47 433.02 105.44 441.46 88.89 439.79 87.25 443.25 82.7"/></g><circle class="cls-6" cx="10.5" cy="208.39" r="23.52" transform="translate(-131.16 125.89) rotate(-67.5)"/><g class="cls-18"><ellipse class="cls-19" cx="65.39" cy="195.94" rx="21.61" ry="21.64"/><path class="cls-2" d="M10.5,190.53h0a8,8,0,0,1,8.05,8c0,2.15-.64,3.67-1,3.77-1.19.34-3.66-5.15-7-5.15h0c-3.38,0-5.84,5.49-7,5.15-.37-.1-1-1.62-1-3.77A8,8,0,0,1,10.5,190.53Z" transform="translate(54.89 -12.45)"/><path class="cls-10" d="M-4.84,219.65c.17-3.23,4.88-3.87,8.53-4.46,1.95-.32,2.56-2.35,2.72-4.17,1.23,1.15,2.83,2.32,4.09,2.32s2.85-1.18,4.1-2.33c.15,1.82.76,3.86,2.71,4.18,3.65.59,8.36,1.23,8.53,4.46s.09,13.27.09,13.27H-4.92S-5,222.88-4.84,219.65Z" transform="translate(54.89 -12.45)"/><path class="cls-10" d="M6.41,211c0-.31,0-.61,0-.89h8.1c0,.28,0,.58,0,.88-1.25,1.15-2.85,2.33-4.1,2.33S7.64,212.17,6.41,211Z" transform="translate(54.89 -12.45)"/><path class="cls-15" d="M6.41,211c0-.31,0-.61,0-.89h8.1c0,.28,0,.58,0,.88-1.25,1.15-2.85,2.33-4.1,2.33S7.64,212.17,6.41,211Z" transform="translate(54.89 -12.45)"/><path class="cls-10" d="M2.37,201.25a1,1,0,0,1,1.06.4c0-.4,0-.71,0-.87a7.26,7.26,0,0,1,7.07-7.51,7.26,7.26,0,0,1,7.07,7.51,8.06,8.06,0,0,1,0,.87,1,1,0,0,1,1.06-.4c.64.22.33,4.14-1.55,4.84l-.15,0a10.22,10.22,0,0,1-1,2.51c-.51.84-3.46,4.12-5.42,4.12s-4.9-3.28-5.41-4.12a9.49,9.49,0,0,1-1-2.51l-.16,0C2.05,205.39,1.73,201.47,2.37,201.25Z" transform="translate(54.89 -12.45)"/><path class="cls-2" d="M10.28,191.45c6.22,0,8.49,4.53,8.27,8.22a19,19,0,0,1-.81,3.84c-.08.11-.39,0-.35-.16.54-3.37-1.09-6.48-1.9-6.77-4.14-1.07-6,4.92-11.25,1.84a9.13,9.13,0,0,0-.65,4.93c0,.2-.28.27-.36.16a18.41,18.41,0,0,1-.78-4.15C2.45,197.71,3.22,191.45,10.28,191.45Z" transform="translate(54.89 -12.45)"/><path class="cls-6" d="M-4.84,219.65c.17-3.23,4.88-3.87,8.53-4.46A3,3,0,0,0,6,213.06l4.52,2.31,4.5-2.31a3,3,0,0,0,2.3,2.13c3.65.59,8.36,1.23,8.53,4.46s.09,13.27.09,13.27H-4.92S-5,222.88-4.84,219.65Z" transform="translate(54.89 -12.45)"/><path class="cls-20" d="M6.67,214.63v2.76a.49.49,0,0,0,.73.42l6.2-3.6a.48.48,0,0,1,.73.42v2.76a.49.49,0,0,1-.73.42l-6.2-3.6A.48.48,0,0,0,6.67,214.63Z" transform="translate(54.89 -12.45)"/><path class="cls-5" d="M17.31,215.19,10.5,226,3.69,215.19C-2,216-3,216.93-3,216.93c3.73,2.24,4.35,16,4.35,16H19.61s.62-13.75,4.35-16C24,216.93,23,216,17.31,215.19Z" transform="translate(54.89 -12.45)"/><rect class="cls-21" x="64.56" y="204.87" width="1.68" height="9.18"/><path class="cls-6" d="M11,218.34a.47.47,0,0,1-.46.46.47.47,0,0,1,0-.93A.47.47,0,0,1,11,218.34Z" transform="translate(54.89 -12.45)"/><path class="cls-6" d="M11,220.87a.47.47,0,0,1-.46.47.47.47,0,1,1,.46-.47Z" transform="translate(54.89 -12.45)"/><path class="cls-6" d="M11,223.41a.47.47,0,0,1-.46.47.47.47,0,1,1,.46-.47Z" transform="translate(54.89 -12.45)"/></g><circle class="cls-6" cx="103.06" cy="49.57" r="23.52" transform="translate(43.73 31.45) rotate(-22.84)"/><g class="cls-22"><ellipse class="cls-23" cx="157.95" cy="37.11" rx="21.61" ry="21.64"/><path class="cls-14" d="M103.06,32.19h0a9.36,9.36,0,0,0-9.29,9c0,1.33.13,1.5,0,5.31-.09,3.16,18.39,2.33,18.31-.27a30.46,30.46,0,0,1,.27-5A9.36,9.36,0,0,0,103.06,32.19Z" transform="translate(54.89 -12.45)"/><path class="cls-10" d="M118.49,62.16c-.17-3.25-4.91-3.89-8.58-4.49-2-.32-2.57-2.36-2.73-4.19-1.24,1.15-2.85,2.33-4.12,2.33s-2.87-1.18-4.12-2.34c-.15,1.83-.76,3.88-2.73,4.2-3.67.6-8.41,1.24-8.58,4.49S87.55,75,87.55,75h31S118.66,65.41,118.49,62.16Z" transform="translate(54.89 -12.45)"/><path class="cls-10" d="M107.18,53.48c0-.31,0-.61,0-.9H99c0,.29,0,.59,0,.89,1.25,1.16,2.86,2.34,4.12,2.34S105.94,54.63,107.18,53.48Z" transform="translate(54.89 -12.45)"/><path class="cls-11" d="M107.18,53.48c0-.31,0-.61,0-.9H99c0,.29,0,.59,0,.89,1.25,1.16,2.86,2.34,4.12,2.34S105.94,54.63,107.18,53.48Z" transform="translate(54.89 -12.45)"/><path class="cls-10" d="M111.24,43.65a1,1,0,0,0-1.07.4,8.06,8.06,0,0,0,0-.87,7.12,7.12,0,1,0-14.22,0c0,.16,0,.47,0,.87a1,1,0,0,0-1.07-.4c-.64.22-.32,4.16,1.56,4.87l.16,0a9.84,9.84,0,0,0,1,2.53c.52.84,3.48,4.14,5.45,4.14s4.94-3.3,5.45-4.14a10.22,10.22,0,0,0,1-2.53l.15,0C111.57,47.81,111.89,43.87,111.24,43.65Z" transform="translate(54.89 -12.45)"/><path class="cls-24" d="M118.49,62.16c-.17-3.25-4.91-3.89-8.58-4.49a2.87,2.87,0,0,1-2.2-1.86,15.68,15.68,0,0,1-4.65,1.37c-1.6,0-4.63-1.4-4.65-1.37a2.84,2.84,0,0,1-2.2,1.86c-3.67.6-8.41,1.24-8.58,4.49S87.55,75,87.55,75h31S118.66,65.41,118.49,62.16Z" transform="translate(54.89 -12.45)"/><path class="cls-14" d="M102.82,33.8c6.26,0,8.54,4.55,8.32,8.26a18.55,18.55,0,0,1-.81,3.87c-.08.11-.38,0-.36-.16.54-5.13-2.8-3.05-2.56-7.66a15.37,15.37,0,0,1-10.65,2.17h0a11.17,11.17,0,0,0-.65,5.5c0,.2-.28.27-.36.16A18.47,18.47,0,0,1,95,41.75C95,40.09,95.72,33.8,102.82,33.8Z" transform="translate(54.89 -12.45)"/><path class="cls-6" d="M100.78,64.33" transform="translate(54.89 -12.45)"/></g><ellipse class="cls-6" cx="504.89" cy="115.49" rx="23.48" ry="23.52"/><g class="cls-25"><ellipse class="cls-23" cx="504.89" cy="115.49" rx="21.57" ry="21.64"/><path class="cls-10" d="M465.29,140.31c-.17-3.22-4.86-3.86-8.5-4.45-2-.32-2.56-2.35-2.71-4.17-1.23,1.15-2.82,2.32-4.08,2.32s-2.84-1.18-4.08-2.33c-.15,1.83-.76,3.86-2.71,4.18-3.64.59-8.33,1.23-8.5,4.45s-.09,11.75-.09,11.75h30.76S465.46,143.54,465.29,140.31Z" transform="translate(54.89 -12.45)"/><path class="cls-10" d="M454.08,131.69c0-.3,0-.6,0-.88H446c0,.28,0,.57,0,.87,1.24,1.15,2.83,2.33,4.08,2.33S452.85,132.84,454.08,131.69Z" transform="translate(54.89 -12.45)"/><path class="cls-26" d="M454.08,131.69c0-.3,0-.6,0-.88H446c0,.28,0,.57,0,.87,1.24,1.15,2.83,2.33,4.08,2.33S452.85,132.84,454.08,131.69Z" transform="translate(54.89 -12.45)"/><path class="cls-9" d="M450,110.74h0c-4.62,0-7.91,2.1-7.91,6.7,0,2.25.21,5.46.6,5.57,1.24.35,3.8-5.37,7.31-5.37h0c3.51,0,6.07,5.72,7.31,5.37.39-.11.6-3.32.6-5.57C457.91,112.84,454.62,110.74,450,110.74Z" transform="translate(54.89 -12.45)"/><path class="cls-10" d="M458.1,121.94a1,1,0,0,0-1.05.4c0-.4,0-.71,0-.87a7.06,7.06,0,1,0-14.1,0c0,.16,0,.47,0,.87a1,1,0,0,0-1.06-.4c-.64.22-.32,4.13,1.55,4.83l.15,0a10.06,10.06,0,0,0,1,2.51c.51.84,3.44,4.11,5.4,4.11s4.89-3.27,5.4-4.11a10.06,10.06,0,0,0,1-2.51l.15,0C458.43,126.07,458.74,122.16,458.1,121.94Z" transform="translate(54.89 -12.45)"/><path class="cls-9" d="M450.22,112.16c-6.2,0-8.46,4.52-8.24,8.2a19,19,0,0,0,.81,3.84c.08.11.38,0,.35-.16a10,10,0,0,1,1.89-7.77,5.47,5.47,0,0,1,2.28-1.39,11.36,11.36,0,0,1,2.87,0,8.83,8.83,0,0,1,3,.1,5.43,5.43,0,0,1,3.1,3.15,13.24,13.24,0,0,1,.65,5.93c0,.2.27.27.35.16a17.82,17.82,0,0,0,.78-4.15C458,118.41,457.26,112.16,450.22,112.16Z" transform="translate(54.89 -12.45)"/><path class="cls-9" d="M453.24,129.25s0-1.35-3.2-1.31H450c-3.24,0-3.2,1.31-3.2,1.31l-3-1.91a9.67,9.67,0,0,0,.91,2.26c1.91,4,4.47,4,5.19,3.87h.31c.72.09,3.29.11,5.2-3.87a9.67,9.67,0,0,0,.91-2.26ZM450,131H450c-.91.09-2.12-.31-2.07-1,.08-1,1.73-1,2.07-1H450c.34,0,2,0,2.06,1C452.16,130.64,451,131,450,131Z" transform="translate(54.89 -12.45)"/><path class="cls-9" d="M452.7,110.74a1.35,1.35,0,1,1-1.35-1.28A1.32,1.32,0,0,1,452.7,110.74Z" transform="translate(54.89 -12.45)"/><path class="cls-9" d="M452.7,114.35a1.35,1.35,0,1,1-1.35-1.28A1.31,1.31,0,0,1,452.7,114.35Z" transform="translate(54.89 -12.45)"/><path class="cls-9" d="M455.1,111.45a1.28,1.28,0,1,1-1.28-1.21A1.24,1.24,0,0,1,455.1,111.45Z" transform="translate(54.89 -12.45)"/><path class="cls-9" d="M455.1,115a1.28,1.28,0,1,1-1.28-1.21A1.24,1.24,0,0,1,455.1,115Z" transform="translate(54.89 -12.45)"/><path class="cls-9" d="M457,112.8a1.35,1.35,0,1,1-1.34-1.28A1.32,1.32,0,0,1,457,112.8Z" transform="translate(54.89 -12.45)"/><path class="cls-9" d="M457.19,116a1.35,1.35,0,1,1-1.35-1.28A1.31,1.31,0,0,1,457.19,116Z" transform="translate(54.89 -12.45)"/><path class="cls-9" d="M458.11,114.83a1.43,1.43,0,1,1-1.42-1.36A1.39,1.39,0,0,1,458.11,114.83Z" transform="translate(54.89 -12.45)"/><path class="cls-9" d="M458.89,117.05a1.42,1.42,0,1,1-1.42-1.35A1.39,1.39,0,0,1,458.89,117.05Z" transform="translate(54.89 -12.45)"/><path class="cls-9" d="M458.18,117.32a1.42,1.42,0,1,1-1.42-1.35A1.39,1.39,0,0,1,458.18,117.32Z" transform="translate(54.89 -12.45)"/><path class="cls-9" d="M458.8,119.3a1,1,0,1,1-1-1A1,1,0,0,1,458.8,119.3Z" transform="translate(54.89 -12.45)"/><path class="cls-9" d="M458.31,119.17a1,1,0,0,1-2,0,1,1,0,0,1,2,0Z" transform="translate(54.89 -12.45)"/><path class="cls-9" d="M447.37,110.74a1.35,1.35,0,1,0,1.34-1.28A1.32,1.32,0,0,0,447.37,110.74Z" transform="translate(54.89 -12.45)"/><path class="cls-9" d="M447.37,114.35a1.35,1.35,0,1,0,1.34-1.28A1.31,1.31,0,0,0,447.37,114.35Z" transform="translate(54.89 -12.45)"/><path class="cls-9" d="M445,111.45a1.28,1.28,0,1,0,1.28-1.21A1.24,1.24,0,0,0,445,111.45Z" transform="translate(54.89 -12.45)"/><path class="cls-9" d="M445,115a1.28,1.28,0,1,0,1.28-1.21A1.24,1.24,0,0,0,445,115Z" transform="translate(54.89 -12.45)"/><path class="cls-9" d="M443.07,112.8a1.35,1.35,0,1,0,1.34-1.28A1.32,1.32,0,0,0,443.07,112.8Z" transform="translate(54.89 -12.45)"/><path class="cls-9" d="M442.88,116a1.35,1.35,0,1,0,1.34-1.28A1.31,1.31,0,0,0,442.88,116Z" transform="translate(54.89 -12.45)"/><path class="cls-9" d="M442,114.83a1.43,1.43,0,0,0,2.85,0,1.43,1.43,0,0,0-2.85,0Z" transform="translate(54.89 -12.45)"/><path class="cls-9" d="M441.18,117.05a1.42,1.42,0,1,0,1.42-1.35A1.39,1.39,0,0,0,441.18,117.05Z" transform="translate(54.89 -12.45)"/><path class="cls-9" d="M441.89,117.32a1.42,1.42,0,1,0,1.42-1.35A1.39,1.39,0,0,0,441.89,117.32Z" transform="translate(54.89 -12.45)"/><path class="cls-9" d="M441.27,119.3a1,1,0,1,0,1-1A1,1,0,0,0,441.27,119.3Z" transform="translate(54.89 -12.45)"/><path class="cls-9" d="M441.76,119.17a1,1,0,0,0,2,0,1,1,0,0,0-2,0Z" transform="translate(54.89 -12.45)"/><path class="cls-27" d="M465.29,140.31c-.17-3.22-4.86-3.86-8.5-4.45a2.85,2.85,0,0,1-2.18-1.85,6.23,6.23,0,0,1-9.22,0,2.85,2.85,0,0,1-2.18,1.85c-3.64.59-8.33,1.23-8.5,4.45s-.09,11.75-.09,11.75h30.76S465.46,143.54,465.29,140.31Z" transform="translate(54.89 -12.45)"/></g><path class="cls-28" d="M242.06,336.8a21.46,21.46,0,0,0-2,2.26c-2.48,3.16-4,8.13-2.15,11.82,2.51,5.13,9.45,4.57,14.28,2.68,6.82-2.67,12.28-8.88,10.62-15.78C260.22,327.1,248,331.07,242.06,336.8Z" transform="translate(54.89 -12.45)"/><path class="cls-17" d="M-15.88,179.31a6.56,6.56,0,0,1-6.56,6.55A6.55,6.55,0,0,1-29,179.31a6.56,6.56,0,0,1,6.55-6.56A6.56,6.56,0,0,1-15.88,179.31Z" transform="translate(54.89 -12.45)"/><path class="cls-4" d="M248.77,85.22a24.69,24.69,0,0,0-2.2,2.72c-2.67,3.81-4.27,9.8-2.32,14.25,2.71,6.17,10.19,5.5,15.4,3.22a35.81,35.81,0,0,0,12.25-8.84,18.18,18.18,0,0,0,4.18-6.95,9.44,9.44,0,0,0-7.16-12C261.55,76.09,253.83,79.78,248.77,85.22Z" transform="translate(54.89 -12.45)"/><path class="cls-24" d="M189.25,324.46a7.85,7.85,0,0,0-.88-2.13l3.1-3.11-2.64-2.64-3.11,3.1a7.85,7.85,0,0,0-2.13-.88v-4.39h-3.74v4.39a8,8,0,0,0-2.13.88l-3.1-3.1L172,319.22l3.11,3.11a7.85,7.85,0,0,0-.88,2.13h-4.4v3.74h4.4a8,8,0,0,0,.88,2.13l-3.11,3.1,2.65,2.65,3.1-3.11a7.69,7.69,0,0,0,2.13.89v4.39h3.74v-4.39a7.57,7.57,0,0,0,2.13-.89l3.11,3.11,2.64-2.65-3.1-3.1a8,8,0,0,0,.88-2.13h4.39v-3.74Zm-4.14-.18a4,4,0,1,1-1.34-1.33A3.93,3.93,0,0,1,185.11,324.28Z" transform="translate(54.89 -12.45)"/><path class="cls-5" d="M341.65,151.66a7.41,7.41,0,0,0-.83-2l2.94-3-2.5-2.5-2.95,2.94a7.41,7.41,0,0,0-2-.83v-4.16h-3.55v4.16a7.41,7.41,0,0,0-2,.83l-2.95-2.94-2.5,2.5,2.94,3a7.41,7.41,0,0,0-.83,2h-4.17v3.55h4.17a7.41,7.41,0,0,0,.83,2l-2.94,2.95,2.5,2.5,2.95-2.94a7.11,7.11,0,0,0,2,.83v4.17h3.55v-4.17a7.11,7.11,0,0,0,2-.83l2.95,2.94,2.5-2.5-2.94-2.95a7.41,7.41,0,0,0,.83-2h4.16v-3.55Zm-3.92-.16a3.75,3.75,0,1,1-1.26-1.27A3.82,3.82,0,0,1,337.73,151.5Z" transform="translate(54.89 -12.45)"/><path class="cls-2" d="M63.89,251.08A7.87,7.87,0,0,0,63,249l3-3-2.57-2.56-3,3a7.46,7.46,0,0,0-2.06-.85v-4.27H54.76v4.27a7.46,7.46,0,0,0-2.06.85l-3-3L47.11,246l3,3a7.87,7.87,0,0,0-.86,2.07H45v3.63h4.26a7.87,7.87,0,0,0,.86,2.07l-3,3,2.57,2.57,3-3a7.19,7.19,0,0,0,2.06.86v4.27H58.4V260.2a7.19,7.19,0,0,0,2.06-.86l3,3,2.57-2.57-3-3a7.87,7.87,0,0,0,.86-2.07h4.26v-3.63Zm-4-.17a3.82,3.82,0,0,1-5.28,5.27,4,4,0,0,1-1.29-1.29,3.84,3.84,0,1,1,6.57-4Z" transform="translate(54.89 -12.45)"/><path class="cls-2" d="M187,152.86a8.31,8.31,0,1,1,8.3-8.31A8.31,8.31,0,0,1,187,152.86Zm0-13.61a5.31,5.31,0,1,0,5.31,5.3A5.31,5.31,0,0,0,187,139.25Z" transform="translate(54.89 -12.45)"/><path class="cls-29" d="M302.35,225h-.67c-10.27,0-11.49,6.67-11.48,9.06s-.64,4.39,2.44,4.39c3.79,0,8.38-4.13,9.38-8.34,1.1,4.08,5.84,8.21,9.25,8.21,2.92,0,2-1.3,2-3.71S312.62,225,302.35,225Z" transform="translate(54.89 -12.45)"/><circle class="cls-6" cx="208" cy="77.3" r="35.29" transform="translate(86.8 199.88) rotate(-57.87)"/><path class="cls-29" d="M196,64.46c0,3.23,1,5.36,1.53,5.52,1.79.5,5.48-7.74,10.54-7.74h0c5.06,0,8.75,8.24,10.53,7.74.57-.16,1.52-2.43,1.52-5.66,0-3.68-.27-9.27-4.1-9,0,0,.26-3.12-5.47-3.32C208.49,52,195.87,50,196,64.46Z" transform="translate(54.89 -12.45)"/><path class="cls-29" d="M196.85,60.6A12.48,12.48,0,0,0,196,66a27.85,27.85,0,0,0,1.21,5.76c.12.16.58.06.53-.24-.81-5,1.06-9.6,2.54-11a27.48,27.48,0,0,0,15.89-.08s3,5.34,2.23,11.07c-.05.3.41.4.53.24a27.38,27.38,0,0,0,1.17-6.23c0-2.47-1.14-11.86-11.71-11.86-6.36,0-10,3.17-11.51,6.93" transform="translate(54.89 -12.45)"/><path class="cls-2" d="M238.78,87.34a32.52,32.52,0,1,1,1.57-10,32.39,32.39,0,0,1-1.57,10" transform="translate(54.89 -12.45)"/><g class="cls-30"><ellipse class="cls-2" cx="262.88" cy="64.85" rx="32.36" ry="32.46"/><path class="cls-9" d="M196,64.46c0,3.23,1,5.36,1.53,5.52,1.79.5,5.48-7.74,10.54-7.74h0c5.06,0,8.75,8.24,10.53,7.74.57-.16,1.52-2.43,1.52-5.66,0-3.68-.27-9.27-4.1-9,0,0,.26-3.12-5.47-3.32C208.49,52,195.87,50,196,64.46Z" transform="translate(54.89 -12.45)"/><path class="cls-10" d="M185.36,96.26c.25-4.84,7-6.09,12.44-7,2.92-.47,3.84-3.52,4.06-6.25,1.85,1.72,4.24,3.48,6.14,3.48s4.27-1.77,6.13-3.49c.22,2.73,1.14,5.79,4.07,6.26,5.46.9,12.11,2.45,12.36,7.3s.54,16.63.54,16.63H184.9S185.1,101.11,185.36,96.26Z" transform="translate(54.89 -12.45)"/><path class="cls-6" d="M185.36,96.26c.25-4.84,7-6.09,12.44-7,2.92-.47,8.3,2.38,10.2,2.38s7.27-2.85,10.2-2.38c5.46.9,11.81,2.15,12.06,7s.84,16.94.84,16.94H184.9S185.1,101.11,185.36,96.26Z" transform="translate(54.89 -12.45)"/><path class="cls-10" d="M201.86,83c0-.46.07-.91.07-1.33h12.13c0,.42,0,.87.07,1.32-1.86,1.72-4.26,3.49-6.13,3.49S203.71,84.74,201.86,83Z" transform="translate(54.89 -12.45)"/><path class="cls-15" d="M201.86,83c0-.46.07-.91.07-1.33h12.13c0,.42,0,.87.07,1.32-1.86,1.72-4.26,3.49-6.13,3.49S203.71,84.74,201.86,83Z" transform="translate(54.89 -12.45)"/><path class="cls-10" d="M217.62,75.69a14.72,14.72,0,0,1-1.51,3.77c-.77,1.25-5.18,6.18-8.11,6.18s-7.35-4.93-8.11-6.18a15.1,15.1,0,0,1-1.52-3.77l-.23-.06c-2.8-1.06-3.28-6.93-2.32-7.27a1.52,1.52,0,0,1,1.59.61c0-.6,0-1.06,0-1.31a10.61,10.61,0,1,1,21.17,0c0,.25,0,.71,0,1.31a1.52,1.52,0,0,1,1.59-.61c1,.34.49,6.21-2.32,7.27l-.23.06" transform="translate(54.89 -12.45)"/><path class="cls-9" d="M196.85,60.6A12.48,12.48,0,0,0,196,66a27.85,27.85,0,0,0,1.21,5.76c.12.16.58.06.53-.24-.81-5,1.06-9.6,2.54-11a27.48,27.48,0,0,0,15.89-.08s3,5.34,2.23,11.07c-.05.3.41.4.53.24a27.38,27.38,0,0,0,1.17-6.23c0-2.47-1.14-11.86-11.71-11.86-6.36,0-10,3.17-11.51,6.93" transform="translate(54.89 -12.45)"/><path class="cls-27" d="M185,96c.26-4.85,8.17-6.1,13.64-7L208,107.06l9.4-18.21c5.47.89,13.3,2.27,13.56,7.12s.13,17.23.13,17.23H184.9S184.77,100.81,185,96Z" transform="translate(54.89 -12.45)"/><polygon class="cls-16" points="269.55 75.29 262.85 79.2 256.22 75.29 253.11 76.76 256.35 84.1 262.88 79.93 269.42 84.1 272.66 76.76 269.55 75.29"/><polyline class="cls-6" points="268.99 74.51 262.85 78.95 255.4 73.52 251.77 76.24"/><polyline class="cls-6" points="251.77 76.24 255.79 83.63 262.86 79.46 269.98 83.63 273.99 76.24 270.36 73.52 268.99 74.51"/><path class="cls-31" d="M208.88,97a.87.87,0,1,1-.86-.86A.86.86,0,0,1,208.88,97Z" transform="translate(54.89 -12.45)"/><path class="cls-31" d="M208.88,99.79a.87.87,0,1,1-.86-.87A.86.86,0,0,1,208.88,99.79Z" transform="translate(54.89 -12.45)"/><path class="cls-31" d="M208.88,102.63a.87.87,0,0,1-1.73,0,.87.87,0,1,1,1.73,0Z" transform="translate(54.89 -12.45)"/></g><path class="cls-32" d="M196.85,60.6A12.48,12.48,0,0,0,196,66a27.85,27.85,0,0,0,1.21,5.76c.12.16.58.06.53-.24-.81-5,1.06-9.6,2.54-11a27.48,27.48,0,0,0,15.89-.08s3,5.34,2.23,11.07c-.05.3.41.4.53.24a27.38,27.38,0,0,0,1.17-6.23c0-2.47-1.14-11.86-11.71-11.86-6.36,0-10,3.17-11.51,6.93" transform="translate(54.89 -12.45)"/><circle class="cls-6" cx="27.3" cy="127.09" r="23.52" transform="translate(-47.63 121.22) rotate(-80.78)"/><g class="cls-33"><circle class="cls-17" cx="27.3" cy="127.09" r="21.61" transform="translate(8.33 7.67) rotate(-22.5)"/><ellipse class="cls-5" cx="82.19" cy="105.2" rx="9.14" ry="7.49"/><path class="cls-10" d="M42.7,138.15c-.17-3.23-4.89-3.87-8.55-4.47-1.95-.31-2.57-2.34-2.72-4.17-1.24,1.15-2.83,2.33-4.1,2.33s-2.86-1.18-4.11-2.33c-.15,1.82-.76,3.86-2.72,4.17-3.65.6-8.37,1.24-8.54,4.47s-.09,11.76-.09,11.76H42.79S42.87,141.38,42.7,138.15Z" transform="translate(54.89 -12.45)"/><path class="cls-10" d="M31.43,129.51c0-.3,0-.6,0-.89H23.27c0,.29,0,.58-.05.89,1.25,1.15,2.85,2.33,4.11,2.33S30.19,130.66,31.43,129.51Z" transform="translate(54.89 -12.45)"/><path class="cls-11" d="M31.43,129.51c0-.3,0-.6,0-.89H23.27c0,.29,0,.58-.05.89,1.25,1.15,2.85,2.33,4.11,2.33S30.19,130.66,31.43,129.51Z" transform="translate(54.89 -12.45)"/><path class="cls-10" d="M35.48,119.74a1,1,0,0,0-1.07.4,8.06,8.06,0,0,0,0-.87,7.28,7.28,0,0,0-7.08-7.52,7.27,7.27,0,0,0-7.08,7.52,7.38,7.38,0,0,0,0,.87,1,1,0,0,0-1.06-.4c-.64.22-.32,4.14,1.55,4.84l.16,0a9.77,9.77,0,0,0,1,2.52c.51.84,3.46,4.12,5.43,4.12s4.91-3.28,5.42-4.12a9.78,9.78,0,0,0,1-2.52l.15,0C35.8,123.88,36.12,120,35.48,119.74Z" transform="translate(54.89 -12.45)"/><path class="cls-5" d="M34.78,117.44c0-1.6-.42-6.41-7.26-6.41h-.45c-6.84,0-7.66,4.44-7.65,6S19,120,21,120h1.38a5,5,0,0,1,.8-3.15s-.16,1.85-.14,3.14h1.76a5,5,0,0,1,.81-3.13s-.16,1.84-.14,3.13l2,0c0-1.29-.15-3.11-.15-3.11a4.94,4.94,0,0,1,.81,3.11l1.76,0c0-1.29-.14-3.09-.14-3.09a4.92,4.92,0,0,1,.81,3.09l1.76,0c0-1.28-.14-3.07-.14-3.07a4.94,4.94,0,0,1,.8,3.07h.47C35.41,119.9,34.78,119,34.78,117.44Z" transform="translate(54.89 -12.45)"/><path class="cls-6" d="M42.7,138.15c-.17-3.23-4.89-3.87-8.55-4.47A2.84,2.84,0,0,1,32,131.84l-2.64,1.24a1.19,1.19,0,0,1-.32.1,12.45,12.45,0,0,1-3.34,0,1.39,1.39,0,0,1-.33-.1l-2.63-1.24a2.87,2.87,0,0,1-2.2,1.84c-3.65.6-8.37,1.24-8.54,4.47s-.09,11.76-.09,11.76H42.79S42.87,141.38,42.7,138.15Z" transform="translate(54.89 -12.45)"/><path class="cls-24" d="M42.7,138.15c-.17-3.23-4.89-3.87-8.55-4.47A2.84,2.84,0,0,1,32,131.84l-4.63,10.6-4.63-10.6a2.87,2.87,0,0,1-2.2,1.84c-3.65.6-8.37,1.24-8.54,4.47s-.09,11.76-.09,11.76H42.79S42.87,141.38,42.7,138.15Z" transform="translate(54.89 -12.45)"/></g><path class="cls-5" d="M18.94,113.73s-5.88-5.17-6.62,2.54C12,119.66,13.62,122,14,123c.49,1.23-1,1.45-2.57,1.37-.82-.05-.79-.73-.31-1.11a.75.75,0,0,1,1.09.26c.32-.65-.69-2.1-2.16-.58-1.12,1.15-1.83,4,3.48,3.22s4.25-4.12,3-6.47c-1.56-2.84-1.6-7.24,2.41-4.79C18.9,114.9,19.72,114.83,18.94,113.73Z" transform="translate(54.89 -12.45)"/><path class="cls-5" d="M35.62,113.73s5.89-5.17,6.63,2.54c.32,3.39-1.3,5.77-1.68,6.73-.49,1.23,1,1.45,2.57,1.37.82-.05.79-.73.31-1.11a.75.75,0,0,0-1.09.26c-.32-.65.69-2.1,2.15-.58,1.12,1.15,1.84,4-3.47,3.22s-4.25-4.12-3-6.47c1.56-2.84,1.59-7.24-2.42-4.79C35.66,114.9,34.85,114.83,35.62,113.73Z" transform="translate(54.89 -12.45)"/><path class="cls-34" d="M34.78,117.44c0-1.6-.42-6.41-7.26-6.41h-.45c-6.84,0-7.66,4.44-7.65,6S19,120,21,120h1.38a5,5,0,0,1,.8-3.15s-.16,1.85-.14,3.14h1.76a5,5,0,0,1,.81-3.13s-.16,1.84-.14,3.13l2,0c0-1.29-.15-3.11-.15-3.11a4.94,4.94,0,0,1,.81,3.11l1.76,0c0-1.29-.14-3.09-.14-3.09a4.92,4.92,0,0,1,.81,3.09l1.76,0c0-1.28-.14-3.07-.14-3.07a4.94,4.94,0,0,1,.8,3.07h.47C35.41,119.9,34.78,119,34.78,117.44Z" transform="translate(54.89 -12.45)"/><path class="cls-35" d="M102.82,33.8c6.26,0,8.54,4.55,8.32,8.26a18.55,18.55,0,0,1-.81,3.87c-.08.11-.38,0-.36-.16.54-5.13-2.8-3.05-2.56-7.66a15.37,15.37,0,0,1-10.65,2.17h0a11.17,11.17,0,0,0-.65,5.5c0,.2-.28.27-.36.16A18.47,18.47,0,0,1,95,41.75C95,40.09,95.72,33.8,102.82,33.8Z" transform="translate(54.89 -12.45)"/><circle class="cls-6" cx="271.77" cy="152.47" r="23.52" transform="translate(133.42 384.48) rotate(-80.97)"/><g class="cls-36"><circle class="cls-8" cx="271.77" cy="152.47" r="21.61" transform="translate(132.36 383.64) rotate(-80.72)"/><path class="cls-2" d="M271.8,135.31h0c-13.41,0-14.8,24.13-12.88,29.73.2.58,8.17,1.64,12.86,1.69s12.39-1.13,12.65-1.69C286.73,159.94,284.5,135.31,271.8,135.31Z" transform="translate(54.89 -12.45)"/><path class="cls-10" d="M287.17,163.53c-.17-3.23-4.89-3.87-8.55-4.46-1.95-.32-2.57-2.35-2.72-4.17-1.24,1.14-2.84,2.32-4.1,2.32s-2.86-1.18-4.11-2.33c-.15,1.82-.76,3.86-2.72,4.18-3.66.59-8.38,1.23-8.55,4.46s-.08,11.76-.08,11.76h30.91S287.34,166.76,287.17,163.53Z" transform="translate(54.89 -12.45)"/><path class="cls-10" d="M275.9,154.9c0-.31,0-.61,0-.89h-8.11c0,.28,0,.58-.05.88,1.25,1.15,2.85,2.33,4.11,2.33S274.66,156,275.9,154.9Z" transform="translate(54.89 -12.45)"/><path class="cls-11" d="M275.9,154.9c0-.31,0-.61,0-.89h-8.11c0,.28,0,.58-.05.88,1.25,1.15,2.85,2.33,4.11,2.33S274.66,156,275.9,154.9Z" transform="translate(54.89 -12.45)"/><path class="cls-10" d="M279.94,145.12a1,1,0,0,0-1.06.4c0-.4,0-.71,0-.87a7.1,7.1,0,1,0-14.17,0c0,.16,0,.47,0,.87a1,1,0,0,0-1.06-.4c-.64.22-.33,4.14,1.55,4.84a.53.53,0,0,0,.16,0,9.77,9.77,0,0,0,1,2.52c.51.84,3.46,4.12,5.43,4.12s4.91-3.28,5.42-4.12a9.78,9.78,0,0,0,1-2.52.48.48,0,0,0,.15,0C280.27,149.26,280.59,145.34,279.94,145.12Z" transform="translate(54.89 -12.45)"/><path class="cls-2" d="M272,136.44h-.46c-7.08,0-8.85,4.59-8.85,6.24s.78,11.93.78,11.93a6.57,6.57,0,0,0,2.52-.15c-.05-.31-1.47-9.42-.68-9.84,1.75-.93,5.77-1.76,6.46-4.66.76,2.81,4.6,3.6,6.38,4.57.82.45-.42,9.59-.48,9.93s2.13.27,2.21.15.56-9.88.56-11.55S279.08,136.44,272,136.44Z" transform="translate(54.89 -12.45)"/><path class="cls-24" d="M287.17,163.53c-.17-3.23-4.89-3.87-8.55-4.46a2.85,2.85,0,0,1-2.19-1.85l-4.63,10.6-4.63-10.6a2.88,2.88,0,0,1-2.2,1.85c-3.66.59-8.38,1.23-8.55,4.46s-.08,11.76-.08,11.76h30.91S287.34,166.76,287.17,163.53Z" transform="translate(54.89 -12.45)"/><path class="cls-37" d="M278.61,159a2.87,2.87,0,0,1-2.21-1.87l-4.59,10.52-4.6-10.53A2.87,2.87,0,0,1,265,159c-1.26.2-2.64.41-3.93.73L265,175.36h13.57l4-15.62C281.26,159.43,279.87,159.22,278.61,159Z" transform="translate(54.89 -12.45)"/></g><path class="cls-38" d="M272,136.44h-.46c-7.08,0-8.85,4.59-8.85,6.24s.78,11.93.78,11.93a6.57,6.57,0,0,0,2.52-.15c-.05-.31-1.47-9.42-.68-9.84,1.75-.93,5.77-1.76,6.46-4.66.76,2.81,4.6,3.6,6.38,4.57.82.45-.42,9.59-.48,9.93s2.13.27,2.21.15.56-9.88.56-11.55S279.08,136.44,272,136.44Z" transform="translate(54.89 -12.45)"/><path class="cls-32" d="M453.24,129.25s0-1.35-3.2-1.31H450c-3.24,0-3.2,1.31-3.2,1.31l-3-1.91a9.67,9.67,0,0,0,.91,2.26c1.91,4,4.47,4,5.19,3.87h.31c.72.09,3.29.11,5.2-3.87a9.67,9.67,0,0,0,.91-2.26ZM450,131H450c-.91.09-2.12-.31-2.07-1,.08-1,1.73-1,2.07-1H450c.34,0,2,0,2.06,1C452.16,130.64,451,131,450,131Z" transform="translate(54.89 -12.45)"/><polygon class="cls-39" points="416.5 82.7 420.37 80.23 429.88 99.33 429.87 102.03 424.79 101.64 418.29 88.89 419.96 87.25 416.5 82.7"/><polygon class="cls-39" points="443.25 82.7 439.38 80.23 429.88 99.33 429.87 102.03 434.96 101.63 441.46 88.89 439.79 87.25 443.25 82.7"/><ellipse class="cls-6" cx="429.22" cy="284.74" rx="23.48" ry="23.52"/><g class="cls-40"><ellipse class="cls-23" cx="429.22" cy="284.74" rx="21.57" ry="21.64"/><path class="cls-10" d="M389.62,309.57c-.17-3.23-4.86-3.86-8.5-4.46-1.94-.32-2.55-2.34-2.71-4.16-1.23,1.14-2.82,2.32-4.08,2.32s-2.84-1.18-4.08-2.33c-.15,1.82-.76,3.85-2.71,4.17-3.64.6-8.33,1.23-8.5,4.46s-.09,11.74-.09,11.74h30.76S389.79,312.79,389.62,309.57Z" transform="translate(54.89 -12.45)"/><path class="cls-10" d="M378.41,301c0-.31,0-.61,0-.89h-8.08c0,.28,0,.58,0,.88,1.24,1.15,2.83,2.33,4.08,2.33S377.18,302.09,378.41,301Z" transform="translate(54.89 -12.45)"/><path class="cls-26" d="M378.41,301c0-.31,0-.61,0-.89h-8.08c0,.28,0,.58,0,.88,1.24,1.15,2.83,2.33,4.08,2.33S377.18,302.09,378.41,301Z" transform="translate(54.89 -12.45)"/><path class="cls-9" d="M374.33,280h0c-4.62,0-8.36,2.1-8.36,6.71,0,2.24.66,5.46,1,5.57,1.24.34,3.8-5.37,7.31-5.37h0c3.51,0,6.07,5.71,7.31,5.37.39-.11,1.05-3.33,1.05-5.57C382.69,282.09,379,280,374.33,280Z" transform="translate(54.89 -12.45)"/><path class="cls-10" d="M382.44,291.19a1,1,0,0,0-1.06.4c0-.4,0-.7,0-.86a7.06,7.06,0,1,0-14.1,0c0,.16,0,.46,0,.86a1,1,0,0,0-1-.4c-.64.22-.33,4.14,1.54,4.84l.15,0a10.22,10.22,0,0,0,1,2.51c.51.83,3.45,4.11,5.4,4.11s4.89-3.28,5.4-4.11a10.22,10.22,0,0,0,1-2.51l.15,0C382.76,295.33,383.08,291.41,382.44,291.19Z" transform="translate(54.89 -12.45)"/><path class="cls-9" d="M374.56,281.41c-6.2,0-8.47,4.52-8.25,8.21a19,19,0,0,0,.81,3.83c.08.11.38,0,.35-.15a10,10,0,0,1,1.89-7.77,5.31,5.31,0,0,1,2.29-1.39,11.24,11.24,0,0,1,2.86,0,8.83,8.83,0,0,1,3,.11,5.43,5.43,0,0,1,3.11,3.14,13.26,13.26,0,0,1,.64,5.94c0,.19.28.26.36.15a18,18,0,0,0,.77-4.14C382.35,287.66,381.59,281.41,374.56,281.41Z" transform="translate(54.89 -12.45)"/><path class="cls-6" d="M389.62,309.57c-.17-3.23-4.86-3.86-8.5-4.46a2.82,2.82,0,0,1-2.18-1.84,6.23,6.23,0,0,1-9.22,0,2.82,2.82,0,0,1-2.18,1.84c-3.64.6-8.33,1.23-8.5,4.46s-.09,11.74-.09,11.74h30.76S389.79,312.79,389.62,309.57Z" transform="translate(54.89 -12.45)"/><path class="cls-41" d="M376.63,312.6a.56.56,0,0,1-.56.57.57.57,0,0,1-.57-.57.58.58,0,0,1,.57-.57A.57.57,0,0,1,376.63,312.6Z" transform="translate(54.89 -12.45)"/><path class="cls-41" d="M376.63,316.56a.56.56,0,0,1-.56.57.57.57,0,0,1-.57-.57.58.58,0,0,1,.57-.57A.57.57,0,0,1,376.63,316.56Z" transform="translate(54.89 -12.45)"/><rect class="cls-41" x="428.95" y="296.85" width="0.46" height="12.01"/></g><circle class="cls-6" cx="178.47" cy="338.48" r="35.29"/><g class="cls-42"><ellipse class="cls-19" cx="178.68" cy="338.42" rx="32.41" ry="32.46"/><path class="cls-9" d="M123.56,328.72h0a15.08,15.08,0,0,0-14.65,14.91c0,4,.8,23.72-1.57,26.21,0,0,8.15,5.19,16.2,5.27s16.23-5.27,16.23-5.27c-3.33-6.38-1.57-22.2-1.57-26.21A15.08,15.08,0,0,0,123.56,328.72Z" transform="translate(54.89 -12.45)"/><path class="cls-10" d="M146.71,371.31c-.26-4.87-7.37-5.84-12.88-6.73-2.94-.48-3.86-3.55-4.09-6.29-1.87,1.73-4.27,3.5-6.18,3.5s-4.31-1.78-6.18-3.52c-.23,2.76-1.15,5.83-4.1,6.31-5.51.89-12.62,1.86-12.87,6.73s-.13,12.25-.13,12.25h46.55S147,376.18,146.71,371.31Z" transform="translate(54.89 -12.45)"/><path class="cls-10" d="M129.74,358.29c0-.46-.07-.92-.07-1.35H117.44c0,.43,0,.88-.06,1.33,1.87,1.74,4.29,3.52,6.18,3.52S127.87,360,129.74,358.29Z" transform="translate(54.89 -12.45)"/><path class="cls-11" d="M129.74,358.29c0-.46-.07-.92-.07-1.35H117.44c0,.43,0,.88-.06,1.33,1.87,1.74,4.29,3.52,6.18,3.52S127.87,360,129.74,358.29Z" transform="translate(54.89 -12.45)"/><path class="cls-10" d="M133.55,342.84c0-7.23-5-11.33-10-11.34s-10,4.11-10,11.34a57.88,57.88,0,0,0,.29,8.07,15.09,15.09,0,0,0,1.52,3.79c.77,1.27,5.22,6.22,8.18,6.22s7.4-4.95,8.17-6.22a14.73,14.73,0,0,0,1.52-3.79A51.22,51.22,0,0,0,133.55,342.84Z" transform="translate(54.89 -12.45)"/><path class="cls-17" d="M146.71,371.31c-.26-4.87-7.37-5.84-12.88-6.73a4.31,4.31,0,0,1-3.3-2.79l-.68.79-.66.64a8,8,0,0,1-11.27,0l-.66-.64-.68-.79a4.31,4.31,0,0,1-3.3,2.79c-5.51.89-12.62,1.86-12.87,6.73s-.13,12.25-.13,12.25h46.55S147,376.18,146.71,371.31Z" transform="translate(54.89 -12.45)"/><path class="cls-6" d="M134.82,352.28a.76.76,0,1,1-.76-.75A.76.76,0,0,1,134.82,352.28Z" transform="translate(54.89 -12.45)"/><path class="cls-6" d="M113.87,352.28a.76.76,0,1,1-.76-.75A.76.76,0,0,1,113.87,352.28Z" transform="translate(54.89 -12.45)"/><path class="cls-9" d="M135.56,341.91c0,1.94-24,1.95-24,0,0-3.88,5.36-11.67,12-11.67S135.56,338,135.56,341.91Z" transform="translate(54.89 -12.45)"/></g><path class="cls-9" d="M135.56,341.91c0,1.94-24,1.95-24,0,0-3.88,5.36-11.67,12-11.67S135.56,338,135.56,341.91Z" transform="translate(54.89 -12.45)"/><path class="cls-29" d="M135.56,341.91c0,1.94-24,1.95-24,0,0-3.88,5.36-11.67,12-11.67S135.56,338,135.56,341.91Z" transform="translate(54.89 -12.45)"/><ellipse class="cls-6" cx="290.8" cy="308.9" rx="23.48" ry="23.52"/><g class="cls-43"><ellipse class="cls-17" cx="290.8" cy="308.9" rx="21.57" ry="21.64"/><path class="cls-10" d="M251.21,333.73c-.17-3.23-4.87-3.86-8.51-4.46a2.85,2.85,0,0,1-2.2-1.9,1.69,1.69,0,0,0-2.47-.71,4.34,4.34,0,0,1-2.12.77,4.26,4.26,0,0,1-2.11-.78,1.69,1.69,0,0,0-2.47.71,2.85,2.85,0,0,1-2.2,1.91c-3.64.6-8.34,1.23-8.51,4.46s-.08,11.74-.08,11.74h30.75S251.38,337,251.21,333.73Z" transform="translate(54.89 -12.45)"/><path class="cls-10" d="M240,325.11c0-.31,0-.61-.05-.89h-8.07c0,.28,0,.58,0,.88,1.24,1.15,2.84,2.33,4.08,2.33S238.77,326.26,240,325.11Z" transform="translate(54.89 -12.45)"/><path class="cls-26" d="M240,325.11c0-.31,0-.61-.05-.89h-8.07c0,.28,0,.58,0,.88,1.24,1.15,2.84,2.33,4.08,2.33S238.77,326.26,240,325.11Z" transform="translate(54.89 -12.45)"/><path class="cls-14" d="M235.92,304.15h0l1.58-1.39a7.44,7.44,0,0,0-4.57,1.73c-3.14.75-5.37,2.82-5.37,6.37,0,2.24.66,5.46,1,5.57,1.24.34,3.8-5.37,7.31-5.37h0c3.51,0,6.07,5.71,7.31,5.37.39-.11.86-3.34,1.05-5.57a6.33,6.33,0,0,0-2.54-5.26l1.69-.75c-1.46-1-3.81-.25-4.3-.29l1.78-1.14C238.56,302.8,237.47,304.1,235.92,304.15Z" transform="translate(54.89 -12.45)"/><path class="cls-10" d="M244,315.35a1,1,0,0,0-1.06.4,7.86,7.86,0,0,0,0-.86,7.06,7.06,0,1,0-14.09,0,7.86,7.86,0,0,0,0,.86,1,1,0,0,0-1.06-.4c-.64.22-.32,4.14,1.55,4.84l.15,0a9.84,9.84,0,0,0,1,2.51c.5.83,3.44,4.11,5.39,4.11s4.9-3.28,5.4-4.11a9.84,9.84,0,0,0,1-2.51l.15,0C244.34,319.49,244.66,315.57,244,315.35Z" transform="translate(54.89 -12.45)"/><path class="cls-14" d="M236.14,305.57c-6.2,0-8.46,4.52-8.25,8.21a19,19,0,0,0,.81,3.83c.08.11.38,0,.35-.15a10,10,0,0,1,1.89-7.77,5.31,5.31,0,0,1,2.29-1.39,11.26,11.26,0,0,1,2.86,0,8.82,8.82,0,0,1,3,.11,5.4,5.4,0,0,1,3.11,3.14,13.12,13.12,0,0,1,.64,5.94c0,.19.28.26.36.15a18.4,18.4,0,0,0,.78-4.14C243.94,311.82,243.18,305.57,236.14,305.57Z" transform="translate(54.89 -12.45)"/><path class="cls-24" d="M251.21,333.73c-.17-3.23-4.87-3.86-8.51-4.46h0a1.71,1.71,0,0,0-2.08,1.67c.28,15.83,1.24,79.69-1.55,79.69s-6.66-64.38-7.54-79.88a1.67,1.67,0,0,0-2.08-1.54l-.29.06c-3.64.6-8.34,1.23-8.51,4.46s-.08,11.74-.08,11.74h30.75S251.38,337,251.21,333.73Z" transform="translate(54.89 -12.45)"/></g><path class="cls-44" d="M236.14,305.57c-6.2,0-8.46,4.52-8.25,8.21a19,19,0,0,0,.81,3.83c.08.11.38,0,.35-.15a10,10,0,0,1,1.89-7.77,5.31,5.31,0,0,1,2.29-1.39,11.26,11.26,0,0,1,2.86,0,8.82,8.82,0,0,1,3,.11,5.4,5.4,0,0,1,3.11,3.14,13.12,13.12,0,0,1,.64,5.94c0,.19.28.26.36.15a18.4,18.4,0,0,0,.78-4.14C243.94,311.82,243.18,305.57,236.14,305.57Z" transform="translate(54.89 -12.45)"/><path class="cls-24" d="M98.21,97.24a7.85,7.85,0,0,0-.88-2.13l3.1-3.11-2.64-2.64-3.11,3.11a7.57,7.57,0,0,0-2.13-.89V87.19H88.81v4.39a7.69,7.69,0,0,0-2.13.89l-3.1-3.11L80.93,92,84,95.11a7.26,7.26,0,0,0-.88,2.13h-4.4V101h4.4a7.38,7.38,0,0,0,.88,2.13l-3.11,3.11,2.65,2.64,3.1-3.11a7.69,7.69,0,0,0,2.13.89V111h3.74v-4.39a7.57,7.57,0,0,0,2.13-.89l3.11,3.11,2.64-2.64-3.1-3.11a8,8,0,0,0,.88-2.13h4.39V97.24Zm-4.14-.18a3.93,3.93,0,0,1-5.43,5.43,3.88,3.88,0,0,1-1.34-1.33,4,4,0,0,1,6.77-4.1Z" transform="translate(54.89 -12.45)"/><path class="cls-2" d="M358.16,223.18a7.81,7.81,0,0,0-.86-2.06l3-3-2.56-2.57-3,3a7.87,7.87,0,0,0-2.07-.86v-4.26H349v4.26a7.67,7.67,0,0,0-2.06.86l-3-3-2.57,2.57,3,3a7.19,7.19,0,0,0-.86,2.06h-4.27v3.64h4.27a7.19,7.19,0,0,0,.86,2.06l-3,3,2.57,2.57,3-3a7.67,7.67,0,0,0,2.06.86v4.26h3.63v-4.26a7.87,7.87,0,0,0,2.07-.86l3,3,2.56-2.57-3-3a7.81,7.81,0,0,0,.86-2.06h4.26v-3.64Zm-4-.17a3.84,3.84,0,1,1-1.29-1.29A3.88,3.88,0,0,1,354.13,223Z" transform="translate(54.89 -12.45)"/><path class="cls-45" d="M118.58,71.84q37.3,56.16,77.07,108.83" transform="translate(54.89 -12.45)"/><path class="cls-45" d="M208.47,117q-.71,35.31-1.46,68.43" transform="translate(54.89 -12.45)"/><path class="cls-45" d="M366.79,182.45q-113,30.38-233.44,58.87" transform="translate(54.89 -12.45)"/><circle class="cls-6" cx="210.24" cy="217.74" r="35.29" transform="translate(22.4 24.47) rotate(-9.32)"/><g class="cls-46"><circle class="cls-19" cx="265.12" cy="205.28" r="32.41"/><path class="cls-5" d="M210.19,190.63h0c17.17,0,17.07,33.07,14.18,41.47-.3.88-7.13,2.47-14.17,2.54s-13.82-1.7-14.2-2.54C192.55,224.45,193,190.63,210.19,190.63Z" transform="translate(54.89 -12.45)"/><path class="cls-10" d="M187.14,234.34c.25-4.85,7.33-5.81,12.82-6.7,2.93-.48,3.85-3.53,4.08-6.26,1.86,1.72,4.25,3.48,6.16,3.48s4.28-1.76,6.15-3.49c.23,2.74,1.15,5.79,4.08,6.27,5.49.89,12.57,1.85,12.82,6.7s.13,17.63.13,17.63H187S186.88,239.18,187.14,234.34Z" transform="translate(54.89 -12.45)"/><path class="cls-10" d="M204,221.38c0-.46.06-.91.07-1.33h12.17c0,.42,0,.87.07,1.32-1.87,1.73-4.27,3.49-6.15,3.49S205.9,223.1,204,221.38Z" transform="translate(54.89 -12.45)"/><path class="cls-11" d="M204,221.38c0-.46.06-.91.07-1.33h12.17c0,.42,0,.87.07,1.32-1.87,1.73-4.27,3.49-6.15,3.49S205.9,223.1,204,221.38Z" transform="translate(54.89 -12.45)"/><path class="cls-10" d="M198,206.71a1.55,1.55,0,0,1,1.6.61c0-.6,0-1.06,0-1.31a10.64,10.64,0,1,1,21.25,0c0,.25,0,.71,0,1.31a1.55,1.55,0,0,1,1.6-.61c1,.34.48,6.22-2.33,7.27a1.2,1.2,0,0,1-.24.06,14.57,14.57,0,0,1-1.51,3.77c-.77,1.26-5.2,6.19-8.14,6.19s-7.38-4.93-8.14-6.19a14.24,14.24,0,0,1-1.52-3.77,1,1,0,0,1-.23-.06C197.49,212.93,197,207.05,198,206.71Z" transform="translate(54.89 -12.45)"/><path class="cls-6" d="M199,215.41a.76.76,0,1,0,.75-.75A.76.76,0,0,0,199,215.41Z" transform="translate(54.89 -12.45)"/><path class="cls-6" d="M219.84,215.41a.76.76,0,1,0,.76-.75A.76.76,0,0,0,219.84,215.41Z" transform="translate(54.89 -12.45)"/><path class="cls-5" d="M209.86,192c9.35,0,12.76,6.79,12.43,12.33a28.29,28.29,0,0,1-1.22,5.76c-.12.17-.52.07-.53-.23,0-5.74-1.33-9.27-3.72-10.8,0,0-17.41,8.31-17,10.8.05.3-.42.4-.54.23a26.8,26.8,0,0,1-1.17-6.23C198.1,201.41,199.24,192,209.86,192Z" transform="translate(54.89 -12.45)"/><path class="cls-17" d="M187.14,234.34c.25-4.85,7.33-5.81,12.82-6.7a4.29,4.29,0,0,0,3.29-2.78l-.33,8.28,7.28,9.9,7.35-9.9-.41-8.28a4.3,4.3,0,0,0,3.29,2.78c5.49.89,12.57,1.85,12.82,6.7s.13,17.63.13,17.63H187S186.88,239.18,187.14,234.34Z" transform="translate(54.89 -12.45)"/></g><path class="cls-34" d="M209.86,192c9.35,0,12.76,6.79,12.43,12.33a28.29,28.29,0,0,1-1.22,5.76c-.12.17-.52.07-.53-.23,0-5.74-1.33-9.27-3.72-10.8,0,0-17.41,8.31-17,10.8.05.3-.42.4-.54.23a26.8,26.8,0,0,1-1.17-6.23C198.1,201.41,199.24,192,209.86,192Z" transform="translate(54.89 -12.45)"/><path class="cls-45" d="M364.94,118.66q-23.1,48.1-47.73,93.23" transform="translate(54.89 -12.45)"/><path class="cls-45" d="M264.69,178.67q-11.35,60.78-23.44,117.78" transform="translate(54.89 -12.45)"/><path class="cls-45" d="M343.77,102.58q-26,17-53.63,32.86" transform="translate(54.89 -12.45)"/><path class="cls-45" d="M111.9,189.78q.45,62.81.93,121.7" transform="translate(54.89 -12.45)"/><path class="cls-45" d="M180.09,102.58q-72.78,47.87-150.35,92.75" transform="translate(54.89 -12.45)"/><circle class="cls-6" cx="111.17" cy="151.43" r="35.29" transform="translate(-1.68 223.57) rotate(-80.48)"/><g class="cls-47"><circle class="cls-24" cx="166.06" cy="138.98" r="32.41"/><path class="cls-48" d="M111.22,124.33h0C94,124.33,94.14,149.11,97,157.5c.3.88,7.13,2.48,14.17,2.55s13.82-1.7,14.2-2.55C128.86,149.86,127.16,124.33,111.22,124.33Z" transform="translate(54.89 -12.45)"/><path class="cls-10" d="M134.27,168c-.25-4.85-7.33-5.81-12.82-6.7-2.93-.48-3.85-3.52-4.08-6.25-1.86,1.72-4.25,3.48-6.16,3.48s-4.28-1.77-6.15-3.5c-.23,2.74-1.15,5.79-4.08,6.27-5.49.89-12.57,1.85-12.82,6.7S88,185.67,88,185.67H134.4S134.53,172.88,134.27,168Z" transform="translate(54.89 -12.45)"/><path class="cls-10" d="M117.37,155.08c0-.46-.06-.91-.07-1.34H105.13c0,.42,0,.87-.07,1.32,1.87,1.73,4.27,3.5,6.15,3.5S115.51,156.8,117.37,155.08Z" transform="translate(54.89 -12.45)"/><path class="cls-11" d="M117.37,155.08c0-.46-.06-.91-.07-1.34H105.13c0,.42,0,.87-.07,1.32,1.87,1.73,4.27,3.5,6.15,3.5S115.51,156.8,117.37,155.08Z" transform="translate(54.89 -12.45)"/><path class="cls-10" d="M123.44,140.41a1.54,1.54,0,0,0-1.6.6c0-.6,0-1.06,0-1.3a10.64,10.64,0,1,0-21.25,0c0,.24,0,.7,0,1.3a1.54,1.54,0,0,0-1.6-.6c-1,.33-.48,6.21,2.33,7.27l.24.06a14.57,14.57,0,0,0,1.51,3.77c.77,1.26,5.2,6.18,8.14,6.18s7.38-4.92,8.14-6.18a14.24,14.24,0,0,0,1.52-3.77l.24-.06C123.92,146.62,124.4,140.74,123.44,140.41Z" transform="translate(54.89 -12.45)"/><path class="cls-6" d="M122.43,149.11a.76.76,0,1,1-.75-.76A.76.76,0,0,1,122.43,149.11Z" transform="translate(54.89 -12.45)"/><circle class="cls-6" cx="155.7" cy="136.65" r="0.75"/><path class="cls-48" d="M111.55,125.71c-9.34,0-12.76,6.8-12.43,12.33a28.46,28.46,0,0,0,1.22,5.77c.12.16.56.06.53-.24-.81-7.65,4.19-4.55,3.82-11.42,0,0,3.17,6.75,12.16,4.94a10.59,10.59,0,0,0,3.76-1.7l0,0a16.76,16.76,0,0,1,1,8.2c0,.3.42.4.54.24a26.81,26.81,0,0,0,1.17-6.24C123.31,135.11,122.17,125.71,111.55,125.71Z" transform="translate(54.89 -12.45)"/><path class="cls-2" d="M117.88,169.49l-6.71,14.36-6.56-14.36-.34-10.93a4.29,4.29,0,0,1-3.29,2.77c-5.49.89-12.57,1.85-12.82,6.7S88,185.67,88,185.67H134.4s.13-12.79-.13-17.64-7.33-5.81-12.82-6.7a4.29,4.29,0,0,1-3.29-2.77" transform="translate(54.89 -12.45)"/><path class="cls-2" d="M111.21,168.23A4.7,4.7,0,0,1,105.4,171c-2.4-.67-4.28-3.36-5.81-9.44,0,0,4.44-2.12,4.8-3.31" transform="translate(54.89 -12.45)"/><path class="cls-2" d="M111.2,168.23A4.7,4.7,0,0,0,117,171c2.41-.67,4.29-3.36,5.82-9.44,0,0-4.45-2.12-4.81-3.31" transform="translate(54.89 -12.45)"/></g><path class="cls-49" d="M111.55,125.71c-9.34,0-12.76,6.8-12.43,12.33a28.46,28.46,0,0,0,1.22,5.77c.12.16.56.06.53-.24-.81-7.65,4.19-4.55,3.82-11.42,0,0,3.17,6.75,12.16,4.94a10.59,10.59,0,0,0,3.76-1.7l0,0a16.76,16.76,0,0,1,1,8.2c0,.3.42.4.54.24a26.81,26.81,0,0,0,1.17-6.24C123.31,135.11,122.17,125.71,111.55,125.71Z" transform="translate(54.89 -12.45)"/><path class="cls-45" d="M386.15,197.2q-5.73,40.44-11.82,78.36" transform="translate(54.89 -12.45)"/><path class="cls-45" d="M428.43,142.15q-50.74,39.36-104.84,76.28" transform="translate(54.89 -12.45)"/><circle class="cls-6" cx="390.74" cy="171.81" r="23.52" transform="translate(22.64 216.63) rotate(-31.45)"/><g class="cls-50"><ellipse class="cls-8" cx="445.62" cy="159.36" rx="21.61" ry="21.64"/><path class="cls-14" d="M390.72,156.77h0c-4.47,0-8.57,3.61-8.57,8.07,0,2.16.47,12.82-.92,14.17,0,0,4.77,2.8,9.48,2.85s9.51-2.85,9.51-2.85c-1.95-3.45-.92-12-.92-14.17C399.29,160.38,395.19,156.77,390.72,156.77Z" transform="translate(54.89 -12.45)"/><path class="cls-10" d="M406.15,186.06c-.17-3.25-4.91-3.89-8.58-4.49-2-.32-2.58-2.36-2.73-4.19-1.25,1.15-2.85,2.33-4.13,2.33s-2.86-1.18-4.12-2.34c-.15,1.84-.76,3.88-2.73,4.2-3.67.6-8.41,1.24-8.58,4.49s-.08,8.17-.08,8.17h31S406.32,189.31,406.15,186.06Z" transform="translate(54.89 -12.45)"/><path class="cls-10" d="M394.84,177.38c0-.31,0-.61,0-.9h-8.15c0,.29,0,.59-.05.89,1.26,1.16,2.87,2.34,4.12,2.34S393.59,178.53,394.84,177.38Z" transform="translate(54.89 -12.45)"/><path class="cls-11" d="M394.84,177.38c0-.31,0-.61,0-.9h-8.15c0,.29,0,.59-.05.89,1.26,1.16,2.87,2.34,4.12,2.34S393.59,178.53,394.84,177.38Z" transform="translate(54.89 -12.45)"/><path class="cls-10" d="M398.89,167.55a1,1,0,0,0-1.06.4c0-.4,0-.71,0-.87a7.13,7.13,0,1,0-14.23,0c0,.16,0,.47,0,.87a1,1,0,0,0-1.06-.4c-.65.22-.33,4.16,1.56,4.87l.15,0a9.51,9.51,0,0,0,1,2.53c.51.84,3.47,4.14,5.44,4.14s4.94-3.3,5.45-4.14a9.85,9.85,0,0,0,1-2.53l.15,0C399.22,171.71,399.54,167.77,398.89,167.55Z" transform="translate(54.89 -12.45)"/><path class="cls-6" d="M405.68,186.09c-.16-3.15-4.76-3.77-8.32-4.36a2.78,2.78,0,0,1-2.14-1.8l-4.51,4.45-4.5-4.45a2.78,2.78,0,0,1-2.14,1.8c-3.56.59-8.16,1.21-8.33,4.36s-.08,7.92-.08,7.92h30.11S405.85,189.24,405.68,186.09Z" transform="translate(54.89 -12.45)"/><rect class="cls-16" x="445.15" y="172.68" width="0.91" height="4.77"/><path class="cls-6" d="M391,186.18a.28.28,0,1,1-.28-.27A.27.27,0,0,1,391,186.18Z" transform="translate(54.89 -12.45)"/><path class="cls-6" d="M391,188.21a.28.28,0,1,1-.28-.27A.27.27,0,0,1,391,188.21Z" transform="translate(54.89 -12.45)"/><path class="cls-24" d="M406.15,186.06c-.17-3.25-4.91-3.89-8.58-4.49a2.87,2.87,0,0,1-2.21-1.86l-.18,2.81-4.47,6.82-4.42-6.82-.22-2.81a2.87,2.87,0,0,1-2.21,1.86c-3.67.6-8.41,1.24-8.58,4.49s-.08,8.17-.08,8.17h31S406.32,189.31,406.15,186.06Z" transform="translate(54.89 -12.45)"/><polygon class="cls-16" points="452.24 169.36 450.08 166.98 445.6 171.82 441.16 166.98 439 169.36 438.64 172.37 441.18 170.37 445.6 172.44 450.07 170.37 452.61 172.37 452.24 169.36"/><polygon class="cls-24" points="452.24 169.06 450.08 166.68 445.6 171.52 441.16 166.68 439 169.06 438.64 172.06 441.18 170.07 445.6 172.13 450.07 170.07 452.61 172.06 452.24 169.06"/><path class="cls-14" d="M390.94,157.7c-6.26,0-8.54,4.55-8.32,8.26a19,19,0,0,0,.82,3.87.21.21,0,0,0,.35-.16c-.54-5.13,2.8-3,2.56-7.66,0,0,2.12,4.53,8.13,3.32a2.55,2.55,0,0,1-1.36-2.28,4.73,4.73,0,0,0,1.05,1.33,2.15,2.15,0,0,0,2.83-.19l0,0a11.29,11.29,0,0,1,.65,5.5c0,.2.28.27.36.16a18.09,18.09,0,0,0,.78-4.18C398.81,164,398,157.7,390.94,157.7Z" transform="translate(54.89 -12.45)"/></g><path class="cls-45" d="M214.34,305.57q-87-47.1-179.77-91.27" transform="translate(54.89 -12.45)"/><path class="cls-6" d="M126.36,232.67c19.18,25.18-9.28,53.64-34.46,34.46C72.72,242,101.18,213.49,126.36,232.67Z" transform="translate(54.89 -12.45)"/><g class="cls-51"><ellipse class="cls-8" cx="164.02" cy="237.45" rx="21.61" ry="21.64"/><path class="cls-10" d="M124.53,264.16c-.17-3.24-4.89-3.88-8.55-4.48-2-.32-2.57-2.35-2.73-4.18-1.24,1.15-2.83,2.33-4.1,2.33s-2.86-1.18-4.11-2.34c-.15,1.83-.76,3.87-2.72,4.19-3.66.6-8.39,1.24-8.56,4.48s-.08,8.14-.08,8.14h30.94S124.7,267.4,124.53,264.16Z" transform="translate(54.89 -12.45)"/><path class="cls-19" d="M124.53,264.16c-.17-3.24-4.89-3.88-8.55-4.48-2-.32-2.57-2.35-2.73-4.18-1.24,1.15-2.83,2.33-4.1,2.33s-2.86-1.18-4.11-2.34c-.15,1.83-.76,3.87-2.72,4.19-3.66.6-8.39,1.24-8.56,4.48s-.08,8.14-.08,8.14h30.94S124.7,267.4,124.53,264.16Z" transform="translate(54.89 -12.45)"/><path class="cls-10" d="M113.25,255.5c0-.3,0-.61,0-.89h-8.13c0,.28,0,.58,0,.88,1.25,1.16,2.85,2.34,4.11,2.34S112,256.65,113.25,255.5Z" transform="translate(54.89 -12.45)"/><path class="cls-52" d="M113.25,255.5c0-.3,0-.61,0-.89h-8.13c0,.28,0,.58,0,.88,1.25,1.16,2.85,2.34,4.11,2.34S112,256.65,113.25,255.5Z" transform="translate(54.89 -12.45)"/><path class="cls-53" d="M113.85,257.75c.33.19,0,1.18-1,1.18h-7.39c-1,0-1.41-.86-1-1.18v-1.89a1,1,0,0,1,1-1h7.39a1,1,0,0,1,1,1Z" transform="translate(54.89 -12.45)"/><path class="cls-19" d="M160.34,242.16h7.39a1,1,0,0,1,1,1v1.9a1,1,0,0,1-1,1h-7.39a1,1,0,0,1-1-1v-1.9A1,1,0,0,1,160.34,242.16Z"/><path class="cls-54" d="M113.71,255.11s-.26-.43-.5-.43h-8.13a1.13,1.13,0,0,0-.5.44s2.11,2.71,4.57,2.71S113.71,255.11,113.71,255.11Z" transform="translate(54.89 -12.45)"/><path class="cls-23" d="M109.15,235h0a8.05,8.05,0,0,0-8.07,8c0,2.16.63,3.68,1,3.78,1.2.34,3.67-5.17,7.06-5.17h0c3.39,0,5.86,5.51,7,5.17.38-.1,1-1.62,1-3.78A8.06,8.06,0,0,0,109.15,235Z" transform="translate(54.89 -12.45)"/><path class="cls-10" d="M117.3,245.7a1,1,0,0,0-1.06.4c0-.4,0-.7,0-.87a7.1,7.1,0,1,0-14.18,0,8.09,8.09,0,0,0,0,.87,1,1,0,0,0-1.07-.4c-.64.23-.32,4.15,1.56,4.86l.15,0a9.78,9.78,0,0,0,1,2.52c.51.84,3.46,4.13,5.43,4.13s4.92-3.29,5.43-4.13a9.77,9.77,0,0,0,1-2.52l.16,0C117.63,249.85,117.94,245.93,117.3,245.7Z" transform="translate(54.89 -12.45)"/><path class="cls-23" d="M109.37,235.88c-6.23,0-8.51,4.54-8.29,8.24a18.4,18.4,0,0,0,.81,3.85c.08.11.38,0,.35-.15-.54-3.39,1.09-7.52,1.91-7.8,3.24-.85,4.21,2.52,8.1,2.58,0,0-.81-1.65-.52-1.65,0,0,1,1.68,2.29,1.42,0,0-.86-1.33-.61-1.38a6.51,6.51,0,0,0,1.26.86,1,1,0,0,0,.76,0,13.35,13.35,0,0,1,.65,6c0,.19.27.26.36.15a18.54,18.54,0,0,0,.78-4.16C117.22,242.16,116.45,235.88,109.37,235.88Z" transform="translate(54.89 -12.45)"/><rect class="cls-6" x="152.77" y="253.5" width="22.52" height="1.74"/><rect class="cls-6" x="152.77" y="256.01" width="22.52" height="1.74"/></g><path class="cls-45" d="M40.05,151.34q27.23,40.72,56.25,78.92" transform="translate(54.89 -12.45)"/><path class="cls-45" d="M143.19,172q16.76,14,34.63,27.21" transform="translate(54.89 -12.45)"/><path class="cls-45" d="M332.16,270.75q9,7.8,18.69,15.11" transform="translate(54.89 -12.45)"/><path class="cls-45" d="M219.1,254.28q5,20.93,10.37,40.55" transform="translate(54.89 -12.45)"/><path class="cls-45" d="M407.34,102.21q9,7.8,18.69,15.11" transform="translate(54.89 -12.45)"/><path class="cls-2" d="M334.44,345.41a14.34,14.34,0,1,1,14.34-14.34A14.35,14.35,0,0,1,334.44,345.41Zm0-23.51a9.17,9.17,0,1,0,9.17,9.17A9.18,9.18,0,0,0,334.44,321.9Z" transform="translate(54.89 -12.45)"/><path class="cls-55" d="M321.84,333.18a10,10,0,1,1,10-10A10.05,10.05,0,0,1,321.84,333.18Zm0-16.45a6.42,6.42,0,1,0,6.41,6.41A6.42,6.42,0,0,0,321.84,316.73Z" transform="translate(54.89 -12.45)"/><path class="cls-17" d="M-32.27,181.45A2.69,2.69,0,0,1-35,184.14a2.69,2.69,0,0,1-2.68-2.69A2.68,2.68,0,0,1-35,178.77,2.68,2.68,0,0,1-32.27,181.45Z" transform="translate(54.89 -12.45)"/><path class="cls-17" d="M-27.22,188.28a3.42,3.42,0,0,1-3.41,3.42A3.42,3.42,0,0,1-34,188.28a3.42,3.42,0,0,1,3.42-3.42A3.42,3.42,0,0,1-27.22,188.28Z" transform="translate(54.89 -12.45)"/><path class="cls-24" d="M149.65,66.27a10.94,10.94,0,1,1,10.94-10.94A10.95,10.95,0,0,1,149.65,66.27Zm0-17.93a7,7,0,1,0,7,7A7,7,0,0,0,149.65,48.34Z" transform="translate(54.89 -12.45)"/><path class="cls-55" d="M152.35,53.48a7.5,7.5,0,1,1,7.5-7.5A7.51,7.51,0,0,1,152.35,53.48Zm0-12.29A4.79,4.79,0,1,0,157.14,46,4.8,4.8,0,0,0,152.35,41.19Z" transform="translate(54.89 -12.45)"/></g></g></svg>