<svg xmlns="http://www.w3.org/2000/svg" viewBox="0 0 620.94 421.21"><defs><style>.cls-1{isolation:isolate;}.cls-2{fill:#c2f4ff;}.cls-3,.cls-31{fill:#003abc;}.cls-19,.cls-36,.cls-4{fill:#fff;}.cls-4{mix-blend-mode:soft-light;}.cls-5,.cls-6{fill:#eb1478;}.cls-10,.cls-29,.cls-31,.cls-32,.cls-39,.cls-44,.cls-6{opacity:0.5;}.cls-10,.cls-23,.cls-29,.cls-31,.cls-32,.cls-39,.cls-44,.cls-6{mix-blend-mode:multiply;}.cls-7{fill:#24dddd;}.cls-8{fill:#3dedf7;}.cls-9{fill:#0dd3d3;}.cls-11{fill:#ff9cde;}.cls-12{fill:#ffd2f2;}.cls-13{fill:#6150e2;}.cls-14{fill:#e3fffd;}.cls-15{fill:#e54c54;}.cls-16{fill:#f7db52;}.cls-17{fill:#4ba34f;}.cls-18{fill:#ccc;mix-blend-mode:color-burn;}.cls-19{opacity:0.25;}.cls-20{fill:#4e92e5;}.cls-21{fill:#f9f7f4;}.cls-22{fill:#ccc8c2;}.cls-23{opacity:0.75;}.cls-24{fill:#d1d1d1;}.cls-25{fill:#2f7bea;}.cls-26{fill:none;stroke:#eb1478;stroke-miterlimit:10;stroke-width:6px;}.cls-27,.cls-29{fill:#ffaf98;}.cls-28,.cls-32{fill:#ff61bb;}.cls-30,.cls-39{fill:#a184f3;}.cls-33{fill:#6ee0ff;}.cls-34{fill:#d7ccff;}.cls-35{fill:#886ee5;}.cls-36{opacity:0.33;}.cls-37{fill:#4a81e5;}.cls-38{fill:#db3595;}.cls-40{fill:#423a64;}.cls-41{fill:#0086f7;}.cls-42,.cls-44{fill:#009df7;}.cls-43{fill:#bc2e86;}.cls-45{fill:#ffc5e9;}</style></defs><title>Search</title><g class="cls-1"><g id="OBJECTS"><path class="cls-2" d="M676.16,216.45a134.81,134.81,0,0,0-17.45-29.63c-20.23-25.92-49.93-36.32-81.83-38.36-34.65-2.22-72.63,6.95-104.89-9.46-37.22-18.92-60-56.92-96.44-77.14-50.31-27.95-117.12-33.4-169.33-7.39A131.32,131.32,0,0,0,178,73.28c-38.95,34.24-27.13,84.35-32.89,129.91-6.34,50.14-54.22,85-70.19,131.63-22.08,64.52,51.54,99.66,104.65,106,49,5.89,95.65-14,143.84-18.9,47.52-4.81,95.07,2.57,141.83,10.57,43,7.36,88.25,16.94,130.68,1.44C677.71,404.1,709.54,293.71,676.16,216.45Z" transform="translate(-70.94 -37.65)"/><path class="cls-3" d="M201.27,423.54c2.69-4.68,4-10.34,4.5-16a49.75,49.75,0,0,0-2.83-22.62c-6.32-16-22.35-26.18-27.66-42.54-3.73-11.53-4.19-21.42-11.31-31.68-9.05-13.05-23.76-20-33.84-32.45a109.2,109.2,0,0,0-7.76-9.3c-15.1-14.79-38.19,1.4-33.87,21.86,3.57,16.92,14.66,23.77,28.46,29.27,16.3,6.49,21.1,22.91,23.53,40.12,1.27,9,6.78,15.8,12.08,22.71,6,7.81,14.5,13.1,19.23,22.07A40.68,40.68,0,0,1,176,421.7a17.2,17.2,0,0,0,1,6.23,9.56,9.56,0,0,0,7.45,5.14c6,.9,11.86-2.4,15.47-7.43A22,22,0,0,0,201.27,423.54Z" transform="translate(-70.94 -37.65)"/><path class="cls-4" d="M105.2,284.24a1.52,1.52,0,0,1,2.16-.12c4.33,3.87,9.77,6.73,15,9.49,10.69,5.61,21.75,11.42,25.09,26.11,4.79,21,10.89,35.28,32.6,59.64,18,20.15,12.21,44.69,9.27,53.54a13.81,13.81,0,0,1-3.34.3c2.49-6.8,9.74-31.65-8.22-51.8-22-24.72-28.49-39.94-33.29-61-3-13.32-13-18.55-23.53-24.08-5.42-2.85-11-5.79-15.64-9.92A1.53,1.53,0,0,1,105.2,284.24Z" transform="translate(-70.94 -37.65)"/><path class="cls-5" d="M186.32,420.53c1.56-6-3.33-14.28-6.44-19.58-15.16-25.83-53.16-20.6-63.75-52-7.5-22.25-22.33-24.14-30.73-12.28-6.28,8.87,2.76,24.14,8.3,32.48,9,13.52,21.21,23.21,35.69,28.26,6.56,2.29,14.57,4.17,19.46,10.13,5.11,6.25,10.26,13.45,17.07,17.74,6.65,4.2,17.34,4,20.2-4.05A5.16,5.16,0,0,0,186.32,420.53Z" transform="translate(-70.94 -37.65)"/><path class="cls-6" d="M176.55,419.8a1.69,1.69,0,0,0,.55-2.28c-.56-1-14-23.49-34-31.21C107,373.69,100,341.89,99.93,341.57a1.69,1.69,0,0,0-3.31.69c.07.34,7.48,34,45.32,47.23,18.89,7.28,32.11,29.52,32.24,29.74a1.7,1.7,0,0,0,2.32.6Z" transform="translate(-70.94 -37.65)"/><path class="cls-5" d="M565.34,301.06a257.69,257.69,0,0,1,10.25-30.47,286.33,286.33,0,0,1,13.61-28.91,235.56,235.56,0,0,1,16.93-27.05l4.75-6.42,5.09-6.14,2.54-3.07,2.74-2.9,5.46-5.8a1,1,0,0,1,1.43-.05,1,1,0,0,1,.07,1.4l-.05,0L623,197.64l-2.58,3-2.4,3.13L613.22,210l-4.44,6.5a230.56,230.56,0,0,0-15.64,27.25,281,281,0,0,0-12.28,28.89A252.26,252.26,0,0,0,572,302.54l0,.13a3.42,3.42,0,1,1-6.68-1.49Z" transform="translate(-70.94 -37.65)"/><path class="cls-5" d="M572.63,285a49,49,0,0,1,9.81-11.07A47.88,47.88,0,0,1,595.52,266,47.36,47.36,0,0,1,611,262.5a52.91,52.91,0,0,1,8.06,0c2.69.18,5.3.73,8,1.12a7.89,7.89,0,1,1-2.27,15.61,8.26,8.26,0,0,1-1.66-.43l-.87-.34c-1.89-.73-3.78-1.68-5.74-2.3a39.64,39.64,0,0,0-6-1.5,36.87,36.87,0,0,0-12.54-.22,41,41,0,0,0-12.52,3.94,45.33,45.33,0,0,0-11.17,7.77l-.08.07a1,1,0,0,1-1.43,0A1,1,0,0,1,572.63,285Z" transform="translate(-70.94 -37.65)"/><path class="cls-5" d="M575.84,282.08a43.92,43.92,0,0,0-.76-13.37,44.21,44.21,0,0,0-13.88-24.1,47.3,47.3,0,0,0-5.75-4.5c-2-1.38-4.18-2.45-6.32-3.68A7.14,7.14,0,0,0,542,248.8a7.37,7.37,0,0,0,1.42.62l.81.25c1.75.54,3.63.92,5.37,1.58a37,37,0,0,1,5.1,2.29,33.41,33.41,0,0,1,9,6.88,36.83,36.83,0,0,1,6.69,9.82A41,41,0,0,1,574,282v.09a.91.91,0,0,0,1.81,0Z" transform="translate(-70.94 -37.65)"/><path class="cls-5" d="M581.46,260.32a36,36,0,0,1,9.91-11.62,49.25,49.25,0,0,1,13.7-7.43l3.76-1.21c1.27-.36,2.55-.59,3.84-.89a68.35,68.35,0,0,1,7.8-1.21c2.62-.25,5.22-.25,7.87-.37l7.85.34a7.25,7.25,0,1,1-2.13,14.27l-.48-.13-6.53-1.71c-2.18-.35-4.4-.85-6.62-1.11a59.72,59.72,0,0,0-6.68-.4c-1.11,0-2.25,0-3.36.05l-3.34.32A42.77,42.77,0,0,0,594.12,253a32.64,32.64,0,0,0-10.9,8.3l-.08.11a1,1,0,0,1-1.68-1.1Z" transform="translate(-70.94 -37.65)"/><path class="cls-5" d="M594.08,234.13a20.66,20.66,0,0,1,4.18-5.33c.78-.82,1.68-1.46,2.52-2.2s1.81-1.32,2.75-1.93a47.85,47.85,0,0,1,12.18-5.48,77.74,77.74,0,0,1,13-2.78c2.2-.2,4.42-.44,6.63-.6l6.64-.2a5.77,5.77,0,0,1,.36,11.53,5.93,5.93,0,0,1-1-.07l-.31,0-6-.93c-2-.23-4-.39-6-.59a71.13,71.13,0,0,0-12,.27,42.59,42.59,0,0,0-11.58,2.78c-.92.37-1.81.82-2.72,1.23s-1.77.93-2.57,1.51a18.71,18.71,0,0,0-4.43,3.82l-.09.12a1,1,0,0,1-1.67-1.1Z" transform="translate(-70.94 -37.65)"/><path class="cls-5" d="M610.28,210.23a42.3,42.3,0,0,1,6.76-4,52.79,52.79,0,0,1,7.54-3,53.61,53.61,0,0,1,8.13-1.86,59.74,59.74,0,0,1,8.48-.67c2.92,0,5.18,1.93,5.06,4.43s-2.59,4.56-5.51,4.62a6.07,6.07,0,0,1-1.37-.13l-.11,0a45.76,45.76,0,0,0-6.64-1.06,44.15,44.15,0,0,0-7,0,45.63,45.63,0,0,0-7.17,1.06,41.64,41.64,0,0,0-7,2.18l-.08,0a1.13,1.13,0,0,1-1.43-.4A.89.89,0,0,1,610.28,210.23Z" transform="translate(-70.94 -37.65)"/><path class="cls-5" d="M584.8,256.46a33.89,33.89,0,0,0-.52-14.61,43.69,43.69,0,0,0-5.89-13.3l-2.12-3c-.73-1-1.57-1.84-2.36-2.77a56,56,0,0,0-5.17-5.16c-1.82-1.61-3.79-3-5.71-4.53l-6.13-3.93a7.25,7.25,0,0,0-9.75,2.32,6.75,6.75,0,0,0,1.56,9.6,6.14,6.14,0,0,0,1.26.62l.44.16,6,2.13c1.86.9,3.83,1.69,5.66,2.68A49.9,49.9,0,0,1,567.3,230c.83.62,1.72,1.19,2.51,1.84l2.32,2.06a36.44,36.44,0,0,1,7.5,10,29.38,29.38,0,0,1,3.25,12.48v.13a.89.89,0,0,0,1,.88A1.09,1.09,0,0,0,584.8,256.46Z" transform="translate(-70.94 -37.65)"/><path class="cls-5" d="M598.88,231.5a19.89,19.89,0,0,0,.53-6.45c0-1.06-.23-2.07-.34-3.12s-.42-2.05-.69-3.05a40.89,40.89,0,0,0-5-11.21,65.51,65.51,0,0,0-7.43-9.69c-1.42-1.43-2.83-2.9-4.3-4.3l-4.56-4a5.7,5.7,0,0,0-7.87.75,5.4,5.4,0,0,0,.07,7.73,5.21,5.21,0,0,0,.77.56l.26.14,4.82,2.76c1.56,1,3.07,2,4.63,3A59.6,59.6,0,0,1,588,211.8a35.49,35.49,0,0,1,6.37,8.82c.41.82.75,1.66,1.12,2.51s.65,1.73.84,2.63a17.33,17.33,0,0,1,.63,5.45v.15a.86.86,0,0,0,.9.93A1.07,1.07,0,0,0,598.88,231.5Z" transform="translate(-70.94 -37.65)"/><path class="cls-5" d="M611.57,210.66a43.6,43.6,0,0,0-.84-8.37,55.64,55.64,0,0,0-5.93-16.39,59.38,59.38,0,0,0-4.92-7.57c-1.85-2.5-5.06-3.1-7.17-1.35s-2.34,5.19-.49,7.69a6.06,6.06,0,0,0,1,1.07l.09.08a47,47,0,0,1,5.24,4.88,45.24,45.24,0,0,1,4.59,5.87,47.67,47.67,0,0,1,3.73,6.73,41.25,41.25,0,0,1,2.61,7.32l0,.1a1.17,1.17,0,0,0,1.28.93A1,1,0,0,0,611.57,210.66Z" transform="translate(-70.94 -37.65)"/><path class="cls-5" d="M622.38,197.59a37.28,37.28,0,0,0,.27-7.24,46.57,46.57,0,0,0-1-7.36,47.73,47.73,0,0,0-2.16-7.32,55,55,0,0,0-3.32-7c-1.29-2.34-4-3.23-6-2a4.9,4.9,0,0,0-1.31,6.5,5.28,5.28,0,0,0,.73,1l.08.08a40.77,40.77,0,0,1,3.9,4.78,39.28,39.28,0,0,1,3.23,5.55,41.32,41.32,0,0,1,2.4,6.17,36.89,36.89,0,0,1,1.37,6.55v.09a1,1,0,0,0,1,.95A.83.83,0,0,0,622.38,197.59Z" transform="translate(-70.94 -37.65)"/><path class="cls-5" d="M624.28,193.89a33.09,33.09,0,0,1,5.48-3.38,40.17,40.17,0,0,1,6.12-2.48,42.25,42.25,0,0,1,6.6-1.54,46.39,46.39,0,0,1,6.89-.52,3.8,3.8,0,0,1,4.15,3.73,4.33,4.33,0,0,1-4.44,3.87,4.53,4.53,0,0,1-1.12-.11l-.09,0a35.32,35.32,0,0,0-5.41-.92,34.91,34.91,0,0,0-5.7-.06,36.63,36.63,0,0,0-5.83.86,31.66,31.66,0,0,0-5.66,1.81l-.07,0a.92.92,0,0,1-1.17-.34A.75.75,0,0,1,624.28,193.89Z" transform="translate(-70.94 -37.65)"/><path class="cls-5" d="M625.65,191.7a51,51,0,0,1,3.26-7.12,60.75,60.75,0,0,1,4.22-6.67,60.11,60.11,0,0,1,11.18-11.73l0,0a5,5,0,0,1,6.32,7.86,5.18,5.18,0,0,1-1.14.69,52.12,52.12,0,0,0-12,7.32,54,54,0,0,0-5.36,4.92,47.21,47.21,0,0,0-4.68,5.63l0,.06a1,1,0,0,1-1.79-.93Z" transform="translate(-70.94 -37.65)"/><path class="cls-7" d="M189.06,321.41a41.7,41.7,0,0,1-4.31-3.72c-1.19-1.27-2.49-2.48-3.58-3.81-2.31-2.57-4.35-5.29-6.42-8A167.42,167.42,0,0,1,164,288.82c-1.63-2.92-3.24-5.85-4.64-8.86s-3-5.95-4.27-9l-4-9.14-3.55-9.28c-1.23-3.07-2.31-6.2-3.33-9.34l-3.15-9.39c-1.87-6.33-3.75-12.65-5.51-19-1.58-6.39-3.26-12.76-4.75-19.17l-4.12-19.3a1.28,1.28,0,0,1,2.48-.59v.05l4.9,19c1.75,6.3,3.68,12.55,5.51,18.82,2,6.22,4.12,12.4,6.24,18.57l3.48,9.14c1.14,3.05,2.33,6.08,3.66,9.05l3.86,9,4.24,8.76c1.34,3,3,5.73,4.51,8.59s3.16,5.63,4.84,8.38a160.06,160.06,0,0,0,10.86,15.81c2,2.43,4,4.88,6.21,7.1,1,1.18,2.21,2.15,3.3,3.23a37.2,37.2,0,0,0,3.22,2.6l.2.14a4.56,4.56,0,1,1-5.05,7.59Z" transform="translate(-70.94 -37.65)"/><path class="cls-7" d="M134.82,210.25a46.32,46.32,0,0,1,1.78-9.4,56.41,56.41,0,0,1,3.42-9,58.48,58.48,0,0,1,4.92-8.47,65.06,65.06,0,0,1,6.3-7.73,5.61,5.61,0,0,1,8.23,7.62,5.71,5.71,0,0,1-1,.82l-.13.09a54.77,54.77,0,0,0-6.66,5.08,50.11,50.11,0,0,0-5.89,6.19,51.53,51.53,0,0,0-4.9,7.2,43.86,43.86,0,0,0-3.59,8l0,.1a1.28,1.28,0,0,1-2.49-.49Z" transform="translate(-70.94 -37.65)"/><path class="cls-7" d="M144.18,240.68a70.6,70.6,0,0,1,2.7-13.66,91.67,91.67,0,0,1,4.93-13.13,96.84,96.84,0,0,1,6.91-12.41A108.4,108.4,0,0,1,167.39,190a7.16,7.16,0,1,1,10.94,9.23,6.93,6.93,0,0,1-1.07,1l-.16.13a94.21,94.21,0,0,0-9.6,8.21,87.35,87.35,0,0,0-8.49,9.59,85.57,85.57,0,0,0-7.07,10.91,67.23,67.23,0,0,0-5.23,12l0,.1a1.28,1.28,0,0,1-2.5-.49Z" transform="translate(-70.94 -37.65)"/><path class="cls-7" d="M157.88,271.29a67.87,67.87,0,0,1,2.4-15.7,71.06,71.06,0,0,1,5.9-15,74.54,74.54,0,0,1,4.2-7.06,69.76,69.76,0,0,1,5.14-6.52,72.62,72.62,0,0,1,12.54-11.23,6.42,6.42,0,1,1,7.66,10.3,6.49,6.49,0,0,1-.89.55l-.34.17a62,62,0,0,0-12,7.45,60.25,60.25,0,0,0-5.37,4.77,69.94,69.94,0,0,0-4.76,5.51,66,66,0,0,0-7.73,12.65,64.45,64.45,0,0,0-4.83,14.26l0,.07a1,1,0,0,1-1.92-.22Z" transform="translate(-70.94 -37.65)"/><path class="cls-7" d="M128.26,180.27c-2.11-5-4.07-10.09-5.85-15.29-.89-2.6-1.74-5.23-2.48-7.95a56.81,56.81,0,0,1-1.78-8.64l0-.19A5.32,5.32,0,1,1,128.71,147a5.69,5.69,0,0,1,0,1.37,47.15,47.15,0,0,0-.3,7.37c0,2.58.21,5.22.43,7.87.44,5.29,1.1,10.64,1.9,15.93v0a1.3,1.3,0,0,1-1.08,1.47A1.29,1.29,0,0,1,128.26,180.27Z" transform="translate(-70.94 -37.65)"/><path class="cls-7" d="M172.58,299.26a28.56,28.56,0,0,1,.55-14.17,41.06,41.06,0,0,1,6.38-12.86,61.57,61.57,0,0,1,9.82-10.51c1.85-1.47,3.74-2.93,5.66-4.36l5.95-3.88a7.74,7.74,0,0,1,8.45,13,7.44,7.44,0,0,1-1.6.79l-.44.16-5.69,2-5.46,2.44a51,51,0,0,0-9.88,6.48,33.59,33.59,0,0,0-7.56,9,24.62,24.62,0,0,0-3.26,11.36v.24a1.48,1.48,0,0,1-2.92.33Z" transform="translate(-70.94 -37.65)"/><path class="cls-7" d="M131.41,197.27a41.72,41.72,0,0,0-7.58-3.48,48.73,48.73,0,0,0-8-2.11,48.2,48.2,0,0,0-8.09-.74,52.27,52.27,0,0,0-7.94.53h-.11a5.61,5.61,0,1,1,0-11.13,62.27,62.27,0,0,1,9.4,1.7,56.9,56.9,0,0,1,8.85,3.11,54.9,54.9,0,0,1,8.08,4.43,44.83,44.83,0,0,1,7.13,5.74,1.28,1.28,0,0,1-1.57,2Z" transform="translate(-70.94 -37.65)"/><path class="cls-7" d="M141.87,228.6a64,64,0,0,0-12-3.54,81.38,81.38,0,0,0-12.29-1.51,82.47,82.47,0,0,0-12.19.31,91.52,91.52,0,0,0-11.85,2l-.15,0a7.16,7.16,0,0,1-3.08-14,8.06,8.06,0,0,1,1.6-.17,104.67,104.67,0,0,1,13.75.86A92.76,92.76,0,0,1,119,215.28a86.73,86.73,0,0,1,12.59,4.59,67.32,67.32,0,0,1,11.59,6.55,1.28,1.28,0,0,1-1.24,2.22Z" transform="translate(-70.94 -37.65)"/><path class="cls-7" d="M152.63,258.78a56.22,56.22,0,0,0-24.49-4.58,46.11,46.11,0,0,0-11.79,1.89,50.27,50.27,0,0,0-10.63,4.49l-.24.13A7.74,7.74,0,1,1,98.27,247a8.18,8.18,0,0,1,1.74-.66,64,64,0,0,1,14.63-2.22A56.89,56.89,0,0,1,129,245.41a61.65,61.65,0,0,1,13.25,4.37,58.41,58.41,0,0,1,11.7,7,1.17,1.17,0,0,1-1.2,2Z" transform="translate(-70.94 -37.65)"/><path class="cls-7" d="M164.72,286.4a22.57,22.57,0,0,0-10.43-3.11,30.55,30.55,0,0,0-10.76,1.4,47.06,47.06,0,0,0-9.95,4.44l-4.61,3-4.38,3.41-.3.23a6.64,6.64,0,1,1-8.17-10.48,6.86,6.86,0,0,1,1.26-.77l5.86-2.76c2-.8,4.07-1.57,6.1-2.29a55.56,55.56,0,0,1,12.86-2.57,37.14,37.14,0,0,1,13,1.22,26.15,26.15,0,0,1,11.24,6.37,1.27,1.27,0,0,1-1.58,2Z" transform="translate(-70.94 -37.65)"/><path class="cls-8" d="M645.05,391.62a26.06,26.06,0,0,1-6-9.26,33.11,33.11,0,0,1-2.72-14.92c.83-11.39,9-21.05,9.07-32.48.08-8.06-1.61-14.42.87-22.35,3.14-10.08,11.08-17.44,15-27.32a71.7,71.7,0,0,1,3.07-7.44c6.63-12.39,24.5-6.72,25.84,7.12,1.1,11.44-4.57,18-12.23,24.23-9,7.36-8.82,18.73-6.93,30.13,1,6-1.16,11.37-3.14,16.81-2.23,6.14-6.58,11.19-7.8,17.83a27,27,0,0,0,.68,11.44,11.44,11.44,0,0,1,.6,4.16,6.38,6.38,0,0,1-3.7,4.75c-3.64,1.76-8,.83-11.3-1.64A14.26,14.26,0,0,1,645.05,391.62Z" transform="translate(-70.94 -37.65)"/><path class="cls-7" d="M661.61,394.88c-2.73-2.53-2.93-8.31-3.07-12-.69-18,20.24-27.63,15.43-47-3.4-13.69,3.5-19.44,11.59-16.16,6.05,2.46,6.41,13.12,6.3,19.13a42.33,42.33,0,0,1-8.92,25.85c-2.58,3.28-6,6.83-6.57,11.43-.57,4.82-.85,10.13-2.91,14.5s-7.47,7.65-11.53,4.49Z" transform="translate(-70.94 -37.65)"/><path class="cls-7" d="M628.44,318.83c5.5,5.39,9.5,16,9.73,21.82.33,8.78-2.79,17-2.06,26a44.55,44.55,0,0,0,2.37,11.82c1.47,4,4,5.72,6,9.07,4.22,7.17-5.54,9.7-9.74,7.72-8.5-4-17.25-20.16-13.61-35.5A28.44,28.44,0,0,0,620,343.27c-1.69-4.63-4.8-8.5-6.34-13.15-1.35-4.06-.47-9.6,2.69-12.38C620.56,314,624.82,315.28,628.44,318.83Z" transform="translate(-70.94 -37.65)"/><path class="cls-9" d="M656.71,397.41a1,1,0,0,1-.75-.34c-.16-.17-15.39-17.45-6.26-37.69,8.91-19.78,9.94-30.05,8.79-44.32-.8-10,5.06-15.87,10.72-21.56,2.78-2.8,5.66-5.69,7.63-9a1,1,0,0,1,1.4-.35,1,1,0,0,1,.35,1.39c-2.1,3.54-5.07,6.52-7.94,9.41-5.58,5.61-10.86,10.91-10.13,20,1.15,14.31.08,25.25-9,45.32-8.58,19,5.77,35.33,5.92,35.49a1,1,0,0,1-.76,1.7Z" transform="translate(-70.94 -37.65)"/><g class="cls-10"><path class="cls-7" d="M666.32,391.34a1,1,0,0,1-1-1c0-.67-.53-16.41,7.11-26.8,14.2-18.08,7.46-36.44,7.39-36.62a1,1,0,1,1,1.9-.72c.07.19,7.21,19.63-7.67,38.57-7.2,9.79-6.7,25.33-6.7,25.49a1,1,0,0,1-1,1Z" transform="translate(-70.94 -37.65)"/></g><g class="cls-10"><path class="cls-7" d="M636.22,391.34a1,1,0,0,1-.8-.39c-.44-.57-10.72-14.13-7.18-35.44,3.37-20.22-8.72-29.82-8.84-29.92a1,1,0,0,1,1.24-1.61c.54.41,13.18,10.39,9.61,31.86-3.4,20.45,6.67,33.73,6.78,33.86a1,1,0,0,1-.18,1.43A1.06,1.06,0,0,1,636.22,391.34Z" transform="translate(-70.94 -37.65)"/></g><path class="cls-11" d="M680.46,387.8a3.63,3.63,0,0,0-3.62-3.34H623.93a3.63,3.63,0,0,0-3.62,3.34c-.58,6.94-1,22.71,6.25,28.41a3.37,3.37,0,0,0,2.08.66h43.49a3.37,3.37,0,0,0,2.08-.66C681.46,410.51,681,394.74,680.46,387.8Z" transform="translate(-70.94 -37.65)"/><path class="cls-6" d="M678.58,409.64c-35.76,2-51.48-10.6-58.4-20-.47,7.56-.3,21.34,6.38,26.59a3.37,3.37,0,0,0,2.08.66h43.49a3.37,3.37,0,0,0,2.08-.66A14.62,14.62,0,0,0,678.58,409.64Z" transform="translate(-70.94 -37.65)"/><ellipse class="cls-12" cx="181.4" cy="438.28" rx="37.72" ry="12.03" transform="translate(-71.82 -37.28) rotate(-0.12)"/><rect class="cls-13" x="93.76" y="93.71" width="417.67" height="257.71" rx="13.48"/><path class="cls-14" d="M560,159.72v201a6.26,6.26,0,0,1-6.26,6.26H193.35a6.26,6.26,0,0,1-6.26-6.26v-201a6.26,6.26,0,0,1,6.26-6.26H553.73a6,6,0,0,1,2.37.47A6.26,6.26,0,0,1,560,159.72Z" transform="translate(-70.94 -37.65)"/><rect class="cls-12" x="125.77" y="124.53" width="355.91" height="24.79" rx="12.39"/><circle class="cls-15" cx="423.97" cy="137.35" r="5.55"/><circle class="cls-16" cx="445.58" cy="137.35" r="5.55"/><circle class="cls-17" cx="465.85" cy="137.35" r="5.55"/><path class="cls-12" d="M345.64,244.49H218a17.61,17.61,0,0,1-17.56-17.56h0A17.61,17.61,0,0,1,218,209.38H345.64a17.61,17.61,0,0,1,17.56,17.55h0A17.61,17.61,0,0,1,345.64,244.49Z" transform="translate(-70.94 -37.65)"/><path class="cls-12" d="M345.64,290.77H218a17.61,17.61,0,0,1-17.56-17.56h0A17.61,17.61,0,0,1,218,255.66H345.64a17.61,17.61,0,0,1,17.56,17.55h0A17.61,17.61,0,0,1,345.64,290.77Z" transform="translate(-70.94 -37.65)"/><path class="cls-12" d="M345.64,341H218a17.61,17.61,0,0,1-17.56-17.56h0A17.61,17.61,0,0,1,218,305.93H345.64a17.61,17.61,0,0,1,17.56,17.55h0A17.61,17.61,0,0,1,345.64,341Z" transform="translate(-70.94 -37.65)"/><path class="cls-12" d="M541.94,227.73H394.32a7.2,7.2,0,0,1-7.18-7.18h0a7.2,7.2,0,0,1,7.18-7.18H541.94a7.2,7.2,0,0,1,7.18,7.18h0A7.2,7.2,0,0,1,541.94,227.73Z" transform="translate(-70.94 -37.65)"/><path class="cls-12" d="M541.94,250.87H394.32a7.2,7.2,0,0,1-7.18-7.18h0a7.2,7.2,0,0,1,7.18-7.18H541.94a7.2,7.2,0,0,1,7.18,7.18h0A7.2,7.2,0,0,1,541.94,250.87Z" transform="translate(-70.94 -37.65)"/><rect class="cls-12" x="317.36" y="224.15" width="159.16" height="84.5" rx="12"/><rect class="cls-13" x="232.14" y="348.63" width="140.92" height="32.21"/><rect class="cls-18" x="232.14" y="351.56" width="140.92" height="11.83"/><rect class="cls-13" x="178.29" y="377.82" width="248.62" height="10.07" rx="5.03"/><path class="cls-19" d="M556.1,153.93,187.09,351V310.38L480.93,153.46h72.8A6,6,0,0,1,556.1,153.93Z" transform="translate(-70.94 -37.65)"/><polygon class="cls-19" points="489.05 140.49 489.05 160.26 172.47 329.32 135.45 329.32 489.05 140.49"/><path class="cls-20" d="M431.68,433.29H583.31L557.62,334H421.71a12.16,12.16,0,0,0-11.78,15.21Z" transform="translate(-70.94 -37.65)"/><rect class="cls-21" x="366.47" y="241.27" width="128.27" height="148.59"/><rect class="cls-22" x="375.45" y="258.43" width="110.73" height="2.07"/><rect class="cls-22" x="375.45" y="268.14" width="110.73" height="2.07"/><rect class="cls-22" x="375.45" y="277.55" width="110.73" height="2.07"/><rect class="cls-22" x="375.45" y="286.8" width="110.73" height="2.07"/><rect class="cls-22" x="375.45" y="295.37" width="110.73" height="2.07"/><g class="cls-23"><rect class="cls-24" x="381.36" y="231.52" width="128.27" height="148.59"/><rect class="cls-24" x="390.35" y="248.68" width="110.73" height="2.07"/><rect class="cls-24" x="390.35" y="258.39" width="110.73" height="2.07"/><rect class="cls-24" x="390.35" y="267.8" width="110.73" height="2.07"/><rect class="cls-24" x="390.35" y="277.05" width="110.73" height="2.07"/><rect class="cls-24" x="390.35" y="285.62" width="110.73" height="2.07"/></g><rect class="cls-21" x="384.76" y="225.57" width="128.27" height="148.59"/><rect class="cls-22" x="393.75" y="242.73" width="110.73" height="2.07"/><rect class="cls-22" x="393.75" y="252.44" width="110.73" height="2.07"/><rect class="cls-22" x="393.75" y="261.85" width="110.73" height="2.07"/><rect class="cls-22" x="393.75" y="271.1" width="110.73" height="2.07"/><rect class="cls-22" x="393.75" y="279.67" width="110.73" height="2.07"/><path class="cls-25" d="M590.26,315.62a9.26,9.26,0,0,0-9.17,7.36l-1,4.53H468a12.17,12.17,0,0,0-11.83,9.3l-23.43,96.48H584.38l25.38-104.53,3.83-12.87Z" transform="translate(-70.94 -37.65)"/><path class="cls-19" d="M345.52,249.53l-92.71,52.36a53.6,53.6,0,0,1-2.32-13.49l84.69-47.83A54.63,54.63,0,0,1,345.52,249.53Z" transform="translate(-70.94 -37.65)"/><path class="cls-19" d="M359.17,280.31l-87,49.15a54.89,54.89,0,0,1-14.27-16l94.93-53.61A54.27,54.27,0,0,1,359.17,280.31Z" transform="translate(-70.94 -37.65)"/><circle class="cls-26" cx="175.26" cy="94.45" r="13.64" transform="translate(-28.08 205.49) rotate(-76.64)"/><circle class="cls-5" cx="145.04" cy="83.5" r="9.74" transform="translate(-40.61 167.72) rotate(-76.66)"/><path class="cls-5" d="M168.72,63.82a6.62,6.62,0,1,1-6.62-6.62A6.62,6.62,0,0,1,168.72,63.82Z" transform="translate(-70.94 -37.65)"/><path class="cls-12" d="M655.75,449.27c0,5.3-22.85,9.59-51,9.59s-51.05-4.29-51.05-9.59,22.86-9.59,51.05-9.59S655.75,444,655.75,449.27Z" transform="translate(-70.94 -37.65)"/><path class="cls-27" d="M609.49,390.43s1.93-19.84,1.17-21.52c-2.78-1.65-8.27-.28-11.23.18s-3.76,1.11-3.59,3.85c.2,3.05.63,6.11.95,9.15s.61,6,.92,9l.12,1.11.11.31,17.91,47.6,4.45-1.25Z" transform="translate(-70.94 -37.65)"/><path class="cls-27" d="M599.89,367.27a27.69,27.69,0,0,0-6-.63c-2.42,0-6.75.27-8,2.72-1,2-.43,6.16-.6,8.36q-.39,5.29-.79,10.6l-.08,1.06,0,.22,7.15,50.3,4.69-.34q0-24.87,0-49.76c.43-1.93.85-3.86,1.27-5.75-.22-2.22,2.81-6.85,3.62-8.87s3-5,1.29-6.7A5.76,5.76,0,0,0,599.89,367.27Z" transform="translate(-70.94 -37.65)"/><path class="cls-28" d="M596.23,437.1s1.53,1.08,1.53,4.07a76,76,0,0,1-.73,8.1h-2.46v-5.4l-5.21,5.4h-6.77c-1.64,0-.68-2.89,2.6-3.38s4.87-3.95,6.31-6.45C593.53,439.65,595.84,438.26,596.23,437.1Z" transform="translate(-70.94 -37.65)"/><path class="cls-28" d="M619.8,437.1s1.53,1.08,1.53,4.07a76,76,0,0,1-.73,8.1h-2.46v-5.4l-5.2,5.4h-6.78c-1.64,0-.68-2.89,2.6-3.38s5.28-4.25,6.73-6.75C617.51,439.35,619.41,438.26,619.8,437.1Z" transform="translate(-70.94 -37.65)"/><path class="cls-29" d="M598.67,370.05H585.61c-.65,2.14-.2,5.69-.35,7.67q-.39,5.29-.79,10.6l-.08,1.06,0,.22.13.91c3.33,3.55,8.53,9.65,11.72,15.82q0-8.26,0-16.53c.43-1.93.85-3.86,1.27-5.75-.2-2,2.29-6,3.34-8.27C599.67,372.54,598.67,370.05,598.67,370.05Z" transform="translate(-70.94 -37.65)"/><path class="cls-29" d="M612.71,404.86l-3.22-14.43s1-10.65,1.29-17L599.92,369l-.49.09a12.5,12.5,0,0,0-1.87.41l-1.22,8.68c.15,1.3.31,2.61.45,3.91.3,3,.61,6,.92,9l0,.17A155.11,155.11,0,0,1,612.71,404.86Z" transform="translate(-70.94 -37.65)"/><path class="cls-27" d="M589.68,264.78A157,157,0,0,1,579,251.58c-.83-1.17-1.44-2.14-2.21-3.45l-2.23-3.8-4.46-7.59-6.67-10.69s.43-6.21-.79-8.36-1.66-5-2.12-5.6-1.18,2.87-.54,4.66c-1-.71-2.3-1.72-4.45-7.82-.57-1.65-1.94-.86-.86,1.65s1.51,4.38,1.22,5-1.91,1.79-1.51,3.8,3.87,6.85,6.14,8l3.86,12,3.06,8.26,1.53,4.13c.5,1.33,1.17,3,1.81,4.36a165.43,165.43,0,0,0,8.79,16c1.76,2.87,3.53,5.68,5.36,8.49a7.14,7.14,0,0,0,10.53,1.59h0a7.15,7.15,0,0,0,.65-10.41C594,269.53,591.79,267.15,589.68,264.78Z" transform="translate(-70.94 -37.65)"/><path class="cls-29" d="M592.76,283.67s1.9-1.35,4.2-3.12a7.15,7.15,0,0,0-.82-8.69c-1.93-2.05-3.82-4.15-5.69-6.24-6.35,1.49-13.17-2.15-17.64-5.36,2.13,4.13,4.44,8,6.79,11.93,1.76,2.87,3.53,5.68,5.36,8.49a7.08,7.08,0,0,0,6.07,3.21l1.67-.21Z" transform="translate(-70.94 -37.65)"/><path class="cls-27" d="M608,241.45c-4.92-4.34-12.57-3.47-15.19.86-.32.53-6.66,10.13-5.79,14.76.56,3,3.73,4.83,8.35,5.06.54,2.93.94,8.08-2.22,10.72,1.65,1,10.29,1.58,12-.76a73.31,73.31,0,0,1-3.12-10.6q1-.21,2.07-.51C613.21,258.38,612.92,245.79,608,241.45Z" transform="translate(-70.94 -37.65)"/><path class="cls-30" d="M602.08,267.54c-11.48-1.79-27.88,7.71-21.9,19.52,4.41,8.7,7.34,5.13,7.55,13.38s-3,23.2-3,23.2,9.22,6.09,31.39,0c-2.32-10.09-5-26.72-3.93-42.92C612.69,272.44,608.05,268.47,602.08,267.54Z" transform="translate(-70.94 -37.65)"/><path class="cls-27" d="M602.61,274a7.91,7.91,0,0,0-9.76,6.46l-1.39,9.15-1.35,8.88-.68,4.44a3.82,3.82,0,0,1-.48,1.84,4.14,4.14,0,0,1-.6.81,6.26,6.26,0,0,1-.7.56l-.9.67-3.6,2.7L576,314.85l-14.38,10.77a15.35,15.35,0,0,0-4.84,0c-.91.15-5.28,1.06-5,1.55s1.22.44,1.61.5c.56.08,1.79-.15,2.21.3-.11.14-.25.26-.37.4l-3,3.23c-1.53,1.44-2.39,4-1,3.75a57.85,57.85,0,0,0,6.28-2.35s-3.41,2.6-2.24,2.54,4.9-2.85,4.9-2.85a7.65,7.65,0,0,0,1.9-2.32c1.82-2.56,4.42-3.55,7.18-4.86,3.43-1.62,6.84-3.26,10.25-4.88l8.11-3.87,4.06-1.93,1-.49a12.46,12.46,0,0,0,1.2-.61,14.44,14.44,0,0,0,2.77-2.1,14.62,14.62,0,0,0,3.68-6l1.54-4.22L604.9,293l3.17-8.7A7.9,7.9,0,0,0,602.61,274Z" transform="translate(-70.94 -37.65)"/><path class="cls-3" d="M584.71,323.64s-4.28,23.21-3,39.65,1.39,19.39,1.39,19.39,5.68,2.87,17.37,2.87,15.64-2.87,15.64-2.87-2-16,2.69-29.52,2.62-21.53-2.69-29.52C611.2,319.88,584.71,323.64,584.71,323.64Z" transform="translate(-70.94 -37.65)"/><path class="cls-31" d="M618.79,353.16a51.06,51.06,0,0,0,2-7.19c-4.11,10.42-15,30.44-38.1,29.88.39,5.53.45,6.83.45,6.83s5.68,2.87,17.37,2.87,15.64-2.87,15.64-2.87S614.15,366.63,618.79,353.16Z" transform="translate(-70.94 -37.65)"/><path class="cls-29" d="M606.06,275.91a7.83,7.83,0,0,0-13.21,4.51l-1.39,9.15-1.35,8.88-.68,4.44a3.82,3.82,0,0,1-.48,1.84,4,4,0,0,1-.56.75,25.43,25.43,0,0,1-1.45,6.15c-.88,1.83-2.37,4.79-3.58,7.16l4.21-2,4.06-1.93,1-.49a12.46,12.46,0,0,0,1.2-.61,14.44,14.44,0,0,0,2.77-2.1,14.62,14.62,0,0,0,3.68-6l1.54-4.22L604.9,293,607,287.3C606.59,283.81,606.26,279.17,606.06,275.91Z" transform="translate(-70.94 -37.65)"/><path class="cls-28" d="M593.15,238.59s.84,9.32,4.88,11c.33,1.68-2.18,3.93-2.94,5.38s5.85-1.79,7.08,0-1.23,6-3.92,7.19c-9.32,4.14-.76,11.56-.94,17.78-.12,4.27-3.41,7.81-4.74,11.72-1.88,5.51,1.56,8,4.88,11.92a10.79,10.79,0,0,1,2.87,6.09c.1,2.43-1.67,4.21-2.26,6.4a13.66,13.66,0,0,0,.84,8.76,12.44,12.44,0,0,0,5.7,5.38,18.9,18.9,0,0,0,19.54-1.74c5.24-4,10.68-14.69,5.35-20.51-3.43-3.74-4.42-9.32-4.23-14.23.22-5.89,3.54-11.36,1.69-17.32-1.53-4.91-6.15-7.17-8.37-11.47a17.05,17.05,0,0,1-1.28-12.49c1.47-5.48-2.46-11.27-6.72-14.47C605.09,233.87,598.49,234.52,593.15,238.59Z" transform="translate(-70.94 -37.65)"/><path class="cls-32" d="M629.49,308c-3.43-3.74-4.42-9.32-4.23-14.23.22-5.89,3.54-11.36,1.69-17.32a10.63,10.63,0,0,0-1.05-2.29c1,1.74-5.51,5.51-6.48,5.91-3.47,1.46-8.54,2.74-11.92.54-4.41-2.86-5.69-12.64-2.74-16.88,2.2-3.17,5-11.43-2.06-13.64a14.61,14.61,0,0,1-9.13-8.74c.57,2.89,1.84,7.19,4.46,8.28.33,1.68-2.18,3.93-2.94,5.38s5.85-1.79,7.08,0-1.23,6-3.92,7.19c-9.32,4.14-.76,11.56-.94,17.78-.12,4.27-3.41,7.81-4.74,11.72-1.88,5.51,1.56,8,4.88,11.92a10.79,10.79,0,0,1,2.87,6.09c.1,2.43-1.67,4.21-2.26,6.4a13.66,13.66,0,0,0,.84,8.76,12.44,12.44,0,0,0,5.7,5.38,18.9,18.9,0,0,0,19.54-1.74C629.38,324.49,634.82,313.78,629.49,308Z" transform="translate(-70.94 -37.65)"/><path class="cls-33" d="M671,254.58a15.23,15.23,0,1,1,15.23-15.23A15.24,15.24,0,0,1,671,254.58Zm0-25a9.74,9.74,0,1,0,9.73,9.73A9.74,9.74,0,0,0,671,229.62Z" transform="translate(-70.94 -37.65)"/><path class="cls-13" d="M395.58,101.44a12.71,12.71,0,0,0-1.46-3.5l5.12-5.11-4.36-4.36-5.11,5.12a13,13,0,0,0-3.5-1.46V84.9h-6.16v7.23a13,13,0,0,0-3.5,1.46l-5.11-5.12-4.36,4.36,5.12,5.11a12.69,12.69,0,0,0-1.45,3.5h-7.23v6.16h7.23a12.69,12.69,0,0,0,1.45,3.5l-5.12,5.11,4.36,4.36,5.11-5.12a13,13,0,0,0,3.5,1.46v7.23h6.16v-7.23a12.71,12.71,0,0,0,3.5-1.46l5.11,5.12,4.36-4.36-5.12-5.11a12.71,12.71,0,0,0,1.46-3.5h7.23v-6.16Zm-6.82-.28a6.51,6.51,0,1,1-2.19-2.2A6.47,6.47,0,0,1,388.76,101.16Z" transform="translate(-70.94 -37.65)"/><path class="cls-27" d="M293.41,300.35a54,54,0,0,1-8.35,1c1.2-1.26,1.54-3.84-.11-2.66a40.31,40.31,0,0,1-6.11,2.94c-2.62,1-7.74-.36-10.49-.63-1.69-.18-3.07-.92-3.94.75a5.93,5.93,0,0,0,0,4.42c.85,1.37,2.26.88,3.92.82s3.59-.14,5.38-.27c1.45-.11,4.07-.94,5.43-.54a37.68,37.68,0,0,0,8.79,1.46C291.89,307.65,296.87,299.64,293.41,300.35Z" transform="translate(-70.94 -37.65)"/><path class="cls-34" d="M276.45,300.76a3.06,3.06,0,0,1,1.69-.08c.59.27,1.17,4.8.73,5.89s-1.46.72-2.39.26S276,302.12,276.45,300.76Z" transform="translate(-70.94 -37.65)"/><path class="cls-35" d="M213.56,272.35s-1.67,4.42,4.47,11.88,16.8,21,20.59,22.72,31.23.92,33.64,1.38,4,.14,4.7-1.89c.34-1.47.08-5.88-1.23-6.65s-2.14,0-4.44.11-24.94-1.35-28.19-4.67c-1.57-1.66-13.84-21.55-15.48-24.2S218.64,263.79,213.56,272.35Z" transform="translate(-70.94 -37.65)"/><path class="cls-36" d="M377.18,236.64a54.52,54.52,0,0,1-101.58,27.5,54.24,54.24,0,0,1-7.38-25c0-.82-.06-1.64-.06-2.47A54.52,54.52,0,0,1,376.9,231C377.08,232.87,377.18,234.74,377.18,236.64Z" transform="translate(-70.94 -37.65)"/><path class="cls-37" d="M322.67,175.06a61.54,61.54,0,0,0-44.76,103.82,10.46,10.46,0,0,0-1.51,2l-50.89,88.8a10.57,10.57,0,0,0,3.9,14.39l1.83,1.05a10.58,10.58,0,0,0,14.39-3.91l50.9-88.8,0,0a61.57,61.57,0,1,0,26.12-117.33Zm0,109a47.44,47.44,0,1,1,47.44-47.44A47.49,47.49,0,0,1,322.67,284.08Z" transform="translate(-70.94 -37.65)"/><path class="cls-27" d="M194.85,427.73s-1.54,2.77-1,4.3,4.82,5.76,9.09,6,4.65,3.2,3.82,3.95-11.64,1.5-13.91,0-7.9-5.73-9.27-7.61c.82-2.54,1.93-4.51,4.65-5.27l3.53-4Z" transform="translate(-70.94 -37.65)"/><path class="cls-3" d="M183.58,434.32c1.37,1.88,7,6.11,9.27,7.61s13.09.75,13.91,0,.45-3.76-3.82-3.95a10.28,10.28,0,0,1-5-1.85h0c-1.85,1.33-3.51.21-6.43-2.24s-3.24-4.85-3.24-4.85C185.51,429.81,184.4,431.78,183.58,434.32Z" transform="translate(-70.94 -37.65)"/><path class="cls-31" d="M206.76,441.93a1.66,1.66,0,0,0,.19-1.75c-1.62,1.49-2.21-.63-2.85.24s-3.83.93-3.24,0,.53-1.67-.39-1.19a7.37,7.37,0,0,1-6.87.66c-3.31-1.1-7.74-5.75-9.39-7.23q-.35.78-.63,1.65c1.37,1.89,7,6.12,9.27,7.62S205.94,442.68,206.76,441.93Z" transform="translate(-70.94 -37.65)"/><path class="cls-27" d="M173.05,430.91s-1.55,2.77-1,4.3,4.81,5.76,9.08,6,4.65,3.2,3.83,3.95-11.64,1.5-13.91,0-7.91-5.73-9.27-7.61c.81-2.54,1.92-4.51,4.65-5.27.81-.94,3.53-4,3.53-4Z" transform="translate(-70.94 -37.65)"/><path class="cls-3" d="M161.78,437.5c1.36,1.88,7,6.11,9.27,7.61s13.08.75,13.91,0,.45-3.76-3.83-3.95a10.32,10.32,0,0,1-5-1.85h0c-1.85,1.33-3.5.22-6.43-2.24s-3.23-4.85-3.23-4.85C163.7,433,162.59,435,161.78,437.5Z" transform="translate(-70.94 -37.65)"/><path class="cls-38" d="M218.62,369.78a9.41,9.41,0,0,0-.17-1.17l-.2-.89-.41-1.85-1.66-7-3.39-13.76-6.91-27.42-21.46,7.74s-1.24,5.12,2.16,16.43c3.33,11.07,10.74,21.23,17.31,30.48a.89.89,0,0,1,0-.58c.39,4.44-1.61,8.27-3.11,12.27a103.72,103.72,0,0,0-3.87,11.68c-1.4,5.81-4.72,21.44-5,23.19-.85,2.61-1.69,5.23-2.58,7.83l5.65,2.59c4.3-8.4,8.42-16.82,12.37-25.43,2-4.31,3.89-8.66,5.71-13.12A104.12,104.12,0,0,0,218,376.47a24.34,24.34,0,0,0,.71-4.87A13.1,13.1,0,0,0,218.62,369.78Z" transform="translate(-70.94 -37.65)"/><path class="cls-28" d="M182.94,316.23c-.47-.9-8.67,5.09-9.18,22-.4,13.48,2.18,31.23,3.25,38v.19c-.15,1-.42,2.36-.63,3.53l-1.33,7.24-3.57,12.2a37.65,37.65,0,0,0-1.2,5.75L167,430.6l5.94,1.71,9.84-27.66,4.92-13.82,2.46-6.91c.42-1.2.81-2.21,1.25-3.56l.37-1.4.28-1.12.42-1.79,13.6-57.23Z" transform="translate(-70.94 -37.65)"/><path class="cls-32" d="M199,327.17c-.66-.59-17.11-2.22-17.11-2.22s-3.23.77-6.27,1.67a41.75,41.75,0,0,0-1.87,11.44c2.07,2.1,8.11,7.13,19.49,8.6,2.14.85-2.3,30.12-3.45,34.37-1.1,4.06-14.15,47.44-22.63,48.43L167,430.6l5.94,1.71,9.84-27.66,4.92-13.82,2.46-6.91c.42-1.2.81-2.21,1.25-3.56l.37-1.4.28-1.12.42-1.79,10.3-43.35C201.6,330.8,199.49,327.58,199,327.17Z" transform="translate(-70.94 -37.65)"/><path class="cls-34" d="M175.14,327.17s-2.88,7.12-2.07,8,8.9,7.46,27.6,6.56c7.26.06,10.84-2.12,11.37-2.91s-1.2-4.26-2.31-5.18S193.16,338.31,175.14,327.17Z" transform="translate(-70.94 -37.65)"/><path class="cls-27" d="M230.61,265.84s-6.7,4.58-10.41,5.15c2.38,2.87,5.21,6.66,7.14,6.8s3.55-5.51,7.15-8.37C234.21,266.7,230.61,265.84,230.61,265.84Z" transform="translate(-70.94 -37.65)"/><path class="cls-29" d="M230.61,265.84s-1.86,1.26-4.16,2.55a2.17,2.17,0,0,0,.89,1.23,12.5,12.5,0,0,0,5.65,1.26l.28-.32a18.83,18.83,0,0,0,.51-2.83A6.57,6.57,0,0,0,230.61,265.84Z" transform="translate(-70.94 -37.65)"/><path class="cls-27" d="M249.62,261.19c-.19.57-3.25,11.53-7.17,13.85s-9.69-1.82-13.46-10.37,5.59-16.43,11.82-15.51S251.15,256.41,249.62,261.19Z" transform="translate(-70.94 -37.65)"/><path class="cls-30" d="M173.94,330.43c-1.06-1.45.13-6,1.3-7.33,4.48-5.19,16.56-19.62,22.22-30.8,7-13.86,13.47-26.35,24.25-23.11,9.14,2.75,14.53,17.18,11.23,27.23-2.74,8.36-12,1.79-17.29,8.76-5.65,7.38-5.12,19.88-4.4,26.26.26,2.23.6,4.7-1.52,5.17C200.1,338.75,180,338.67,173.94,330.43Z" transform="translate(-70.94 -37.65)"/><path class="cls-34" d="M221.2,269.69s3.8-3.39,5.13-2.31a37.37,37.37,0,0,1,5.55,6.92c.66,1.39-.29,5.54-.86,6.43S222.38,272.29,221.2,269.69Z" transform="translate(-70.94 -37.65)"/><path class="cls-39" d="M223.79,291.17c.16-.32-14.3-7.86-14.68-8.13a27.83,27.83,0,0,0-6-1.29c-1.89,3.24-3.73,6.84-5.61,10.55a91.84,91.84,0,0,1-5.52,9.22,51.87,51.87,0,0,0,12.92-2.46,4.86,4.86,0,0,1,5.72,2.23c.82,1.39,1.56,2.5,1.56,2.5-1.33,3.21-2.53,6.49-3.56,9.82a36.76,36.76,0,0,0-1.65,7c-.3,2.9-.5,6.16-2.13,8.67a13.26,13.26,0,0,1-1.66,2c-3.64,3.77-7.09,4.69-12,4.1a104.43,104.43,0,0,1-15.35-3.13c7.51,6.36,25.16,6.29,34,4.32,2.12-.47,1.78-2.94,1.52-5.17-.72-6.38-1.25-18.88,4.4-26.26,3.28-4.3,8-3.45,11.86-4.13C225.73,296.45,223.71,291.34,223.79,291.17Z" transform="translate(-70.94 -37.65)"/><path class="cls-27" d="M284.3,324.24a55.34,55.34,0,0,1-8.39-.5c1.39-1,2.15-3.51.33-2.64a40.38,40.38,0,0,1-6.5,1.8c-2.5.38-6.57-1.47-9-2.15s-5.81-2.93-7.48,0c-.55,1-1,3.76-.14,4.65s4.23.71,5.31.87c1.79.27,3.59.51,5.38.7,1.46.16,4.2-.19,5.48.45a37.93,37.93,0,0,0,8.42,3C281.58,331.16,287.82,324.16,284.3,324.24Z" transform="translate(-70.94 -37.65)"/><path class="cls-34" d="M267.52,321.61a3.1,3.1,0,0,1,1.68.23c.54.37.35,4.93-.26,5.92s-1.56.46-2.4-.16S266.81,322.86,267.52,321.61Z" transform="translate(-70.94 -37.65)"/><path class="cls-30" d="M210.32,282.39s-2.38,4.06,2.42,12.51,13,23.64,16.48,26.05,30.62,6.49,32.91,7.37,3.9.85,4.95-1c.58-1.38,1.06-5.77-.1-6.76s-2.12-.37-4.4-.68-24.34-5.79-27-9.65c-1.27-1.91-10-23.7-11.2-26.59S216.76,274.87,210.32,282.39Z" transform="translate(-70.94 -37.65)"/><path class="cls-39" d="M262.12,325.69c-3.76-.57-28.74-4.68-32-9.55S218.7,298.9,221.2,295.6a45.49,45.49,0,0,0,4.52-8.71c-.64-1.57-1.11-2.75-1.32-3.28-1.17-2.89-7.64-8.74-14.08-1.22,0,0-2.38,4.06,2.42,12.51s13,23.64,16.48,26.05,30.62,6.49,32.91,7.37,3.9.85,4.95-1a10.37,10.37,0,0,0,.54-2.61C266.2,325.35,265.66,326.23,262.12,325.69Z" transform="translate(-70.94 -37.65)"/><path class="cls-3" d="M241.53,261.72s8.55,3.11,11.88-2.62-7.44-19.33-17.73-14.41c-8.49,4.05-17.14,8.24-26.61,8.9-10.08.71-19.36-2.3-29.11,2.38-15.93,7.66-17,34,.27,41.22,4,1.67,8.48,1.65,12.76,1.09a47.18,47.18,0,0,0,24.44-10.41,39.67,39.67,0,0,0,10.9-14.75c.88-2.1,2.18-13.94,5.45-12.61,2.43,1,1.91,3.73,1.48,5.33s2.76-.39,3.77-2.46S241.53,261.72,241.53,261.72Z" transform="translate(-70.94 -37.65)"/><path class="cls-31" d="M253.41,259.1a4.65,4.65,0,0,0,.55-2c-4.35,4.82-15.36,2.2-16.75.22-1.51-2.15-5.66-6.05-8.11,0s-11.87,24.55-36.17,22.22c-17.46-1.68-20.34-11.71-20.57-17.23-8,10.89-6,29.06,7.87,34.83,4,1.67,8.48,1.65,12.76,1.09a47.18,47.18,0,0,0,24.44-10.41,39.67,39.67,0,0,0,10.9-14.75c.88-2.1,2.18-13.94,5.45-12.61,2.43,1,1.91,3.73,1.48,5.33s2.76-.39,3.77-2.46,2.5-1.66,2.5-1.66S250.08,264.83,253.41,259.1Z" transform="translate(-70.94 -37.65)"/><path class="cls-31" d="M185,445.11a1.66,1.66,0,0,0,.19-1.75c-1.62,1.49-2.21-.63-2.85.24s-3.83.93-3.24,0,.53-1.67-.39-1.19a7.37,7.37,0,0,1-6.87.66c-3.3-1.1-7.74-5.75-9.38-7.23a14.7,14.7,0,0,0-.64,1.66c1.37,1.88,7,6.11,9.27,7.61S184.14,445.86,185,445.11Z" transform="translate(-70.94 -37.65)"/><polygon class="cls-40" points="294.37 115.1 276.59 121.57 267.23 95.86 274.31 93.28 294.37 115.1"/><polygon class="cls-40" points="261.7 126.99 279.48 120.52 270.12 94.81 263.05 97.38 261.7 126.99"/><polygon class="cls-40" points="261.08 92.43 248.55 100.71 245.91 93.44 259.63 88.45 261.08 92.43"/><path class="cls-5" d="M348.64,134.61,333.75,140l-4.91-13.49a6.29,6.29,0,0,1,3.75-8.05l3.1-1.12a6.26,6.26,0,0,1,8,3.75Z" transform="translate(-70.94 -37.65)"/><path class="cls-27" d="M198.78,121.85s-3.67-.21-6.79-.66-5.66-2.39-6.72-.91-1.05,13.93,0,16.78,6.46,4.22,8.43,3.26,1-2.91-1.13-3.95-1.61-8.91-.71-9.83c1.49.17,8.37.06,8.37.06Z" transform="translate(-70.94 -37.65)"/><path class="cls-27" d="M274,129.2a27.15,27.15,0,0,0-.68,3.19,5.12,5.12,0,0,0,1.57,3.75,9.34,9.34,0,0,0,5.83,2.93c3.48.26,5,.12,5.18,1.69a3.05,3.05,0,0,1-1.27,2.79,46.87,46.87,0,0,1-7.7.14c-3.48-.24-7.7-.56-10.87-2.24-2.57-1.63-2.2-2.75-1.09-5.37s5.21-8.63,5.21-8.63Z" transform="translate(-70.94 -37.65)"/><path class="cls-41" d="M299.16,79.72l-.05-.82-.05-.41a8.58,8.58,0,0,0-.22-.92,8.81,8.81,0,0,0-3.65-5l-.91-.57c-.33-.19-.63-.36-.8-.44l-1.22-.6a197.84,197.84,0,0,0-22.13-8.22c-6.79-2.13-15.49-1.15-22.61-1.17-2,0-5.94-.42-7.67.83-1.47,1.07-1.25,3.71-1.51,5.42q-.81,5.25-1.6,10.51l.45,0s3.66,6.61,15,8.12,30.95-1.78,30.95-1.78c-.33,1.18-.68,2.39-1.06,3.59-1.37,4.42-3,8.9-4.57,13.38l-4.94,13.49-2.49,6.8-1.21,3.48c-.4,1.23-.77,2.26-1.17,4l6.7,1.69c.27-.61.83-1.79,1.35-2.77l1.64-3.11,3.44-6.27,7-12.65c2.3-4.25,4.59-8.53,6.78-13,1.09-2.25,2.16-4.5,3.16-7.11a20.1,20.1,0,0,0,1.36-5.12A7.65,7.65,0,0,0,299.16,79.72Z" transform="translate(-70.94 -37.65)"/><path class="cls-42" d="M260.68,73.83l-.17-3.64-.09-1.83-.05-.94c0-.37,0-.53-.12-1.34L233.48,61.4s-4.89,15-1.4,28.53,13.15,31.43,13.15,31.43c-1.22.06-2.48.1-3.75.12-4.62.06-9.38,0-14.13-.18L213,120.79l-7.24-.24-3.68-.07c-1.29,0-6.75-.09-8.48.06l.47,6.9c.66.07,17.91,2.38,17.91,2.38l14.18,2.69c4.77.87,9.54,1.71,14.47,2.4,2.48.34,4.95.65,7.75.79a20.34,20.34,0,0,0,5.28-.29A7.63,7.63,0,0,0,255,135l.77-.31.38-.17a7.54,7.54,0,0,0,.8-.49,8.84,8.84,0,0,0,3.58-5l.26-1c.08-.37.14-.71.17-.89l.19-1.35c.33-3.07.39-5.51.46-8.07s.08-5,.07-7.44c0-4.91-.1-9.77-.22-14.62L261,81.09Z" transform="translate(-70.94 -37.65)"/><path class="cls-43" d="M280.72,139.07a8.82,8.82,0,0,1-4.77-2,2.85,2.85,0,0,1-2.47.51c-2.51-.57-3.93-3.47-4.61-4.49a2.52,2.52,0,0,0-1.76-.92,34.24,34.24,0,0,0-2.14,3.91c-1.11,2.62-1.48,3.74,1.09,5.37,3.17,1.68,7.39,2,10.87,2.24a46.87,46.87,0,0,0,7.7-.14,3.05,3.05,0,0,0,1.27-2.79C285.77,139.19,284.2,139.33,280.72,139.07Z" transform="translate(-70.94 -37.65)"/><path class="cls-43" d="M192.61,136.37c-1.06-.52-1.47-2.71-1.49-4.91a4.05,4.05,0,0,1-1.75-.32c-1.76-.75-.93-7.08,0-7.88a4.49,4.49,0,0,0,.95-2.49c-1.92-.68-4.2-1.67-5-.49-1.06,1.48-1.05,13.93,0,16.78s6.46,4.22,8.43,3.26S194.75,137.41,192.61,136.37Z" transform="translate(-70.94 -37.65)"/><path class="cls-44" d="M251.67,135.68c.58-.05,1.21-.13,2-.27A7.63,7.63,0,0,0,255,135l.77-.31.38-.17a7.54,7.54,0,0,0,.8-.49,8.84,8.84,0,0,0,3.58-5l.26-1c.08-.37.14-.71.17-.89l.19-1.35c.33-3.07.39-5.51.46-8.07s.08-5,.07-7.44c0-4.91-.1-9.77-.22-14.62L261,81.09l-.29-7.26-.17-3.64-.09-1.83-.05-.94c0-.37,0-.53-.12-1.34L233.48,61.4a61,61,0,0,0-1.77,7.68c3.4,5.39,12.22,18.8,18,22.94,5.73,5.13,9.08,18.51,8.49,27.72C257.67,127.36,256.18,133,251.67,135.68Z" transform="translate(-70.94 -37.65)"/><path class="cls-27" d="M303.77,48.75s7.94,2.8,15.75.82c-.64,2.57-1.35,7.82-1.35,7.82s-9.64.12-13.09,0S303.77,48.75,303.77,48.75Z" transform="translate(-70.94 -37.65)"/><path class="cls-28" d="M284.89,39.25c-15.87.29-31.67,5.87-45,14.31-.19.12-4.21,3.62-6.77,5.9a3,3,0,0,0-.31,4.14c4.38,5.24,16.24,18.51,28.81,24.91,3.18-4,22.37-15,34.21-15.33s13.86-6.07,14.44-15C311.25,43.48,297.07,39,284.89,39.25Z" transform="translate(-70.94 -37.65)"/><path class="cls-45" d="M311.33,49.59a.83.83,0,0,0-.62-.79l-3-.78a.84.84,0,0,0-1,.6,23.66,23.66,0,0,0,.61,12.7.83.83,0,0,0,1,.53,4.39,4.39,0,0,0,3-2.7C312,56.94,311.41,52.13,311.33,49.59Z" transform="translate(-70.94 -37.65)"/><path class="cls-32" d="M307.55,68.57c-9.71,3.15-15.85-2-19.94-5.57-4,9.91-11.74,12.68-22.37,13-14.81.21-27.46-11-32.41-16.06a2.92,2.92,0,0,0,0,3.71c4.38,5.24,16.24,18.51,28.81,24.91,3.18-4,22.37-15,34.21-15.33C302,73,305.53,71.37,307.55,68.57Z" transform="translate(-70.94 -37.65)"/><path class="cls-27" d="M326.16,133.91c-2-1.61-5.68-5.5-5-6.18s4-1,4-1-.28-1.16-3.81-1.4-5.07-.26-5.07-.26c-3.64-5.36-7.23-10.78-10.64-16.24-1.67-2.71-3.39-5.52-4.68-8.14a6,6,0,0,1-.62-1.61l-.15-1.66c-.12-1.41-.19-3-.22-4.57-.05-2.93,1.24-9.4-1.32-11.11-1.82-1.2-8.21-2.69-9.69-.1-.61,1.05.54,4.68.73,5.91.3,2.08.63,4.17,1,6.24.28,1.66.59,3.3,1,5.09l.33,1.34c.15.54.37,1.18.58,1.75a15,15,0,0,0,1.54,2.73c2.05,3,4.14,5.41,6.27,8,4.27,5,8.62,9.86,13,14.68.75,5.7,3.49,8.79,9.43,10.4S328.2,135.53,326.16,133.91Z" transform="translate(-70.94 -37.65)"/><path class="cls-29" d="M294.61,98.58c-.58-4.23,3.78-8.12,5.56-9.52.18-2.92.19-6.18-1.52-7.33s-8.21-2.69-9.69-.1c-.61,1.05.54,4.68.73,5.91q.45,3.12,1,6.24c.28,1.66.59,3.3,1,5.09l.33,1.34c.15.54.37,1.18.58,1.75a15,15,0,0,0,1.54,2.73c2.05,3,4.14,5.41,6.27,8q2.78,3.24,5.58,6.4C305.33,118.13,295.31,103.69,294.61,98.58Z" transform="translate(-70.94 -37.65)"/><path class="cls-28" d="M287.22,86.44s7.43,3.7,15.06,0c0,0-.65-14.33-.53-22.56S297.33,52.3,291.64,53.1s-7.18,4.93-6.43,12.19S287.22,86.44,287.22,86.44Z" transform="translate(-70.94 -37.65)"/><path class="cls-32" d="M285.11,63.82c0,.49.05.95.1,1.47.75,7.27,2,21.15,2,21.15s7.43,3.7,15.06,0c0,0-.07-1.55-.16-3.9C291.18,81.74,286.81,71,285.11,63.82Z" transform="translate(-70.94 -37.65)"/><path class="cls-27" d="M333.43,60.21c-.53.32-10.14,6.66-14.77,5.79s-6.52-8-3.91-17.08S330,40.09,334.29,45,337.77,57.58,333.43,60.21Z" transform="translate(-70.94 -37.65)"/><path class="cls-3" d="M349,58.47a18.69,18.69,0,0,1-5.85-3.25s5.72-5,2.29-7.14a14,14,0,0,0-6.14-2.28s4.33-5.77,1-6.85-5.23.67-6.44,0-16.75-2.11-21.09,7.38a3.4,3.4,0,0,0,2.32,4.9,2.21,2.21,0,0,0,1.86-.47c1.47-1.34,4.43-3.22,6.31-1.74s1.07,4.16-1.21,5.64,2.95,2.74,6.44.56c0,0,4.57,13,11.55,12.24S352.65,59.73,349,58.47Z" transform="translate(-70.94 -37.65)"/><path class="cls-31" d="M350.13,60.32c-8.61,4.79-18.23-7.32-18.84-9.76s-3.15-5.25-8.15-4.51c-3.68.53-7.1-1.29-8.67-2.3a10.79,10.79,0,0,0-1.7,2.58,3.4,3.4,0,0,0,2.32,4.9,2.21,2.21,0,0,0,1.86-.47c1.47-1.34,4.43-3.22,6.31-1.74s1.07,4.16-1.21,5.64,2.95,2.74,6.44.56c0,0,4.57,13,11.55,12.24C345.25,66.92,349.72,62.86,350.13,60.32Z" transform="translate(-70.94 -37.65)"/></g></g></svg>